<svg width="86" height="132" viewBox="0 0 86 132" fill="none" xmlns="http://www.w3.org/2000/svg">
<path d="M60.3139 6.19025L60.3139 6.19027L60.316 6.19727L64.1366 18.7449L64.1372 18.7469L74.4057 53.1993C74.4079 53.207 74.4105 53.2145 74.4132 53.2219L75.6073 56.4163C75.6258 56.4657 75.6552 56.5103 75.6934 56.5468L76.5946 57.4078L78.2379 61.4455C78.2542 61.4855 78.2777 61.5222 78.3073 61.5536L80.4237 63.8003L81.5625 65.9762L81.7955 68.8714C81.803 68.965 81.8478 69.0516 81.9199 69.1119L83.5597 70.4827L80.6837 73.8646C80.6244 73.9343 80.5948 74.0244 80.6011 74.1157L80.8357 77.477L79.4196 82.4377C79.3978 82.5141 79.4027 82.5957 79.4333 82.669L80.8663 86.0916L80.8661 86.0917L80.8718 86.104L82.7418 90.124L82.035 97.1018C82.0303 97.149 82.0351 97.1966 82.0493 97.2419L82.7658 99.5236C82.7799 99.5688 82.8031 99.6105 82.8338 99.6464L84.9366 102.102L85.504 103.909L63.0073 106.372L63.0009 106.372L47.9618 107.741L47.9602 107.741L24.0785 110.023C23.9172 110.038 23.7876 110.162 23.7652 110.323L23.2875 113.745C23.273 113.849 23.3059 113.954 23.377 114.031L26.9593 117.91C26.973 117.925 26.9879 117.939 27.0039 117.951L29.207 119.635L28.5496 122.148C28.5308 122.219 28.5353 122.295 28.5624 122.364L29.2788 124.189C29.2834 124.201 29.2886 124.213 29.2945 124.224L29.6789 124.959L28.3995 126.996L26.0872 128.321C26.0005 128.371 25.9391 128.456 25.9187 128.553L25.7223 129.491L21.8349 130.664V129.081C21.8349 128.964 21.7756 128.854 21.677 128.789L17.9413 126.335L17.3268 124.965L17.9895 123.277C18.0222 123.194 18.0218 123.101 17.9884 123.018L16.7943 120.052C16.7327 119.899 16.5724 119.81 16.4097 119.838L13.7828 120.294C13.6373 120.319 13.5233 120.433 13.4979 120.579L12.5426 126.055C12.5376 126.084 12.5362 126.113 12.5384 126.141L12.7419 128.862L7.23408 127.599C7.15705 127.582 7.0763 127.591 7.00499 127.625L6.48198 127.875L1.05834 88.4467L2.01294 48.7742L2.01299 48.7724L3.20703 7.93092C3.20976 7.8376 3.17509 7.74706 3.11074 7.67943L0.810609 5.2621L15.5386 4.16275L15.5405 4.16261L33.448 3.022L33.448 3.0222L33.46 3.02103L58.7218 0.539809L60.3139 6.19025Z" fill="white" stroke="black" stroke-width="0.7" stroke-linecap="round" stroke-linejoin="round"/>
</svg>
