<svg width="112" height="98" viewBox="0 0 112 98" fill="none" xmlns="http://www.w3.org/2000/svg">
<path d="M95.9117 14.9423L110.28 13.8171L111.259 15.2206L109.699 15.3862C109.586 15.3982 109.487 15.4636 109.431 15.5619C109.376 15.6603 109.371 15.7794 109.418 15.8819L110.246 17.6608L105.962 20.4612C105.827 20.5492 105.77 20.7176 105.823 20.8695L106.52 22.8669V25.3353L104.557 26.3775C104.442 26.4382 104.371 26.5571 104.371 26.6866V28.1478L102.791 29.8729C102.732 29.9374 102.699 30.0217 102.699 30.1092V33.0755C102.699 33.111 102.704 33.1464 102.715 33.1803L103.366 35.2545L101.613 36.9297C101.582 36.9598 101.556 36.9956 101.537 37.0351L100.616 39.0161L99.0061 40.3346C98.8925 40.4277 98.849 40.5819 98.8974 40.7206L99.545 42.5767L98.0704 44.1868L95.7595 45.07C95.6082 45.1278 95.5164 45.2818 95.5374 45.4424L95.7383 46.9776L93.8677 47.5733C93.7628 47.6067 93.6797 47.6876 93.6434 47.7915L92.6881 50.5297C92.6605 50.6087 92.6622 50.695 92.6928 50.7729L93.381 52.5261L93.1563 56.1753L88.2594 60.1857C88.2187 60.219 88.186 60.2611 88.1638 60.3088L87.2472 62.2791L85.4114 63.5946C85.3268 63.6552 85.2735 63.7505 85.2662 63.8544C85.2588 63.9584 85.2982 64.0601 85.3735 64.1321L86.8903 65.5813L86.5248 66.8037L82.8703 68.1131C82.7658 68.1505 82.6852 68.2353 82.6532 68.3417C82.6212 68.448 82.6416 68.5632 82.708 68.6521L83.8237 70.1444L83.6046 73.0741L80.5972 75.9475C80.4844 76.0552 80.4565 76.2246 80.5289 76.3628L81.4064 78.0397L80.2794 80.6241C80.2105 80.7821 80.2668 80.9667 80.4122 81.0592L82.3995 82.3251V84.7548L81.2751 86.2588C81.2187 86.3342 81.1951 86.429 81.2095 86.5219C81.2239 86.6149 81.2751 86.6981 81.3515 86.7529L83.1291 88.0266L83.3416 90.8689L82.2981 91.6666C82.2115 91.7328 82.1607 91.8356 82.1607 91.9446V94.3463L65.3021 95.0175L65.3019 95.0175L36.1687 96.1583L36.1664 96.1584L15.5026 96.8314L15.0364 82.578C15.0324 82.4567 14.9659 82.3461 14.8606 82.2858L13.6665 81.6013C13.6187 81.5738 13.5651 81.5581 13.5101 81.5553L8.97261 81.3272C8.91975 81.3246 8.86697 81.3339 8.81825 81.3546L6.89323 82.172L5.00621 80.1688V33.9882C5.00621 33.9704 5.00485 33.9526 5.00213 33.9349L0.525719 4.89625L12.5437 4.67548V4.6755L12.5471 4.6754L36.9064 3.99092L36.9095 3.99081L61.5078 3.07808L61.5122 3.07786L79.901 2.16526L79.9037 2.1651L99.5304 1.03546L101.744 4.20746V6.00124L98.7472 8.86409C98.7343 8.87647 98.7223 8.88983 98.7114 8.90405L96.0844 12.3267C96.054 12.3663 96.0325 12.4119 96.0212 12.4605L95.5435 14.5141C95.5182 14.6228 95.5463 14.737 95.619 14.8216C95.6918 14.9062 95.8005 14.951 95.9117 14.9423Z" fill="white" stroke="black" stroke-width="0.7" stroke-linecap="round" stroke-linejoin="round"/>
</svg>
