<svg width="153" height="169" viewBox="0 0 153 169" fill="none" xmlns="http://www.w3.org/2000/svg">
<path d="M8.72124 109.848C8.88757 109.893 9.0622 109.811 9.13276 109.653L9.81618 108.13L11.6648 106.584C11.7369 106.524 11.7817 106.437 11.7892 106.344L12.028 103.377C12.0349 103.292 12.0105 103.208 11.9595 103.14L10.7654 101.542C10.7164 101.477 10.646 101.431 10.5664 101.412L8.76215 100.981L7.54774 99.6271L8.66043 96.863C8.68478 96.8025 8.69175 96.7364 8.68054 96.6722L8.21538 94.0057L8.85687 91.3499L10.7609 91.1477C10.8378 91.1396 10.9098 91.1062 10.9657 91.0528L13.8315 88.3146C13.8716 88.2764 13.902 88.2292 13.9202 88.1769L15.5919 83.3853C15.5994 83.3639 15.6047 83.3418 15.6079 83.3194L16.3036 78.4451L19.2898 76.2504C19.3235 76.2256 19.3525 76.195 19.3754 76.16L20.5099 74.4256L23.7527 73.0979C23.762 73.0941 23.7712 73.0898 23.7802 73.0852L26.8848 71.488C26.9646 71.4469 27.0256 71.3768 27.0552 71.292L27.5328 69.9229C27.578 69.7933 27.5433 69.6493 27.4441 69.5546L22.8227 65.1391L23.2389 63.7473C23.2573 63.6858 23.2585 63.6205 23.2422 63.5584L21.5705 57.1694C21.5498 57.0904 21.5021 57.0211 21.4357 56.9735L20.5671 56.3511L19.4414 53.3397L19.9052 50.0167L20.5903 46.7436L22.1456 45.6821C22.23 45.6245 22.2851 45.5329 22.2963 45.4314L22.7738 41.096C22.7772 41.0652 22.7765 41.034 22.7717 41.0034L22.0711 36.5406L23.2244 33.896C23.2526 33.8314 23.2606 33.7598 23.2474 33.6906L22.7855 31.2633L23.9561 27.2368C23.9749 27.1721 23.9747 27.1034 23.9554 27.0388L23.0326 23.9529L23.8865 21.5053L27.6318 20.6634L30.1452 21.9732C30.1952 21.9992 30.2506 22.0128 30.307 22.0128H32.012L33.8224 25.256C33.8842 25.3668 34.0011 25.4355 34.128 25.4355H36.5161C36.6305 25.4355 36.7377 25.3795 36.8032 25.2857L39.669 21.1786C39.696 21.1399 39.7149 21.0962 39.7246 21.05L43.9521 0.854233L57.2243 3.52388L57.2242 3.52395L57.2313 3.52522L77.5308 7.17599L77.5354 7.17675L104.999 11.7403L105.003 11.7408L135.571 16.5324L135.575 16.5329L152.421 18.9921L129.838 167.758L108.455 164.839L108.448 164.838L83.8927 160.966L82.7556 160.531L55.0762 145.256L55.0742 145.255L37.1696 135.219L37.1649 135.217L19.4977 124.952L19.4972 124.952L1.36506 114.377L2.18947 112.211L4.74482 109.548L5.53842 108.979L8.72124 109.848Z" fill="white" stroke="black" stroke-width="0.7" stroke-linecap="round" stroke-linejoin="round"/>
</svg>
