<svg width="178" height="291" viewBox="0 0 178 291" fill="none" xmlns="http://www.w3.org/2000/svg">
<mask id="path-1-inside-1_101_447" fill="white">
<path d="M68.0629 262.445L69.7346 266.095L71.8839 269.062L70.2122 269.29L69.0182 267.693L68.0629 262.445ZM72.3616 251.264L75.705 254.002L76.4215 256.284L72.8392 255.599L72.3616 251.264V251.264ZM42.5094 228.675L42.7483 231.185L39.8824 231.641L38.6883 230.728L38.4495 227.99L42.5094 228.675ZM47.2858 228.903L51.5845 231.413L49.1963 232.325L46.3305 231.413L47.2858 228.903ZM169.56 230.956L169.083 234.379L170.277 237.573L171.232 238.258L172.904 244.647L172.426 246.244L177.202 250.808L176.725 252.177L173.62 253.774L170.277 255.143L169.083 256.968L165.978 259.25L165.261 264.27L163.59 269.062L160.724 271.8L158.575 272.028L157.858 274.994L158.336 277.732L157.142 280.699L158.575 282.296L160.485 282.752L161.679 284.349L161.44 287.316L159.53 288.913L158.813 290.51L155.47 289.597L154.515 290.282L129.439 287.316L98.1538 283.437V279.558L96.2433 278.189L96.4821 274.538L97.4374 273.397V267.236L94.5715 260.391L89.7952 254.002L85.9742 250.123L84.0636 247.157L80.7202 245.331L79.2873 246.7L76.8991 245.103L78.0932 242.821L77.6156 239.627L75.9438 236.889L70.4511 235.976L67.3464 234.607L61.6148 230.272L61.376 227.306L58.0325 223.199L54.6891 220.917H52.0621L48.9575 219.776L46.3305 217.722L43.7035 216.81L36.0613 215.212L35.8226 213.387L33.1956 210.877L35.1061 208.139L34.6285 206.542L35.8226 204.032L35.1061 202.435L37.2554 198.327V196.73L34.3897 194.677L32.7179 192.395L34.3897 188.516L31.7627 186.234L29.6133 180.758L27.7027 179.617L27.2251 175.966L25.0758 172.772L25.3146 170.034L23.8817 168.665L23.4041 165.927L21.7323 163.189L20.0606 161.135L19.1054 159.31L19.3441 154.29L20.7771 150.639L21.9711 151.78L23.8817 150.183L25.3146 147.216L24.5981 143.794L23.4041 141.968H20.5382L18.8665 140.828L15.2843 133.754L16.7172 129.419L16.4784 125.768L15.5231 124.399L17.1948 121.204L17.6725 118.01H19.8218L19.3441 123.943L23.6429 125.54L24.1205 123.258L22.9264 120.52L21.4935 114.131L25.7922 112.762L27.2251 114.131L31.285 113.903L30.0909 111.849L28.1804 113.447L25.0758 112.077L22.9264 109.339L20.7771 110.024L18.8665 114.587L20.0606 115.956L17.6725 117.097L15.2843 113.903L14.0902 113.675L12.8961 110.708L11.2244 109.111L11.9409 102.95L10.2691 97.4744L8.11977 95.1926L5.7316 89.4883L2.62693 84.012L1.91051 80.8175L3.34343 79.2204L3.10459 70.3215L4.29868 68.0398L5.97043 65.7581L6.68685 61.8791V58.0001L3.58226 49.3295L0 43.8534L0.716422 42.4842V39.0616L5.49277 33.3572L6.68685 33.8136L11.4632 26.512V23.0894L12.6573 22.1768L16.0007 16.016L16.4784 11.6807L16.7172 7.80166L14.8066 6.20455L16.4784 4.6073L17.6725 0.956421L33.6732 5.74817L49.1963 10.3117L75.2274 17.6133L101.258 24.4585L79.5261 101.353L90.7505 117.782L98.3926 128.506L109.856 144.706L122.036 162.732L134.215 180.53L142.574 192.623L159.53 217.266L169.56 230.956V230.956Z"/>
</mask>
<path d="M68.0629 262.445L69.7346 266.095L71.8839 269.062L70.2122 269.29L69.0182 267.693L68.0629 262.445ZM72.3616 251.264L75.705 254.002L76.4215 256.284L72.8392 255.599L72.3616 251.264V251.264ZM42.5094 228.675L42.7483 231.185L39.8824 231.641L38.6883 230.728L38.4495 227.99L42.5094 228.675ZM47.2858 228.903L51.5845 231.413L49.1963 232.325L46.3305 231.413L47.2858 228.903ZM169.56 230.956L169.083 234.379L170.277 237.573L171.232 238.258L172.904 244.647L172.426 246.244L177.202 250.808L176.725 252.177L173.62 253.774L170.277 255.143L169.083 256.968L165.978 259.25L165.261 264.27L163.59 269.062L160.724 271.8L158.575 272.028L157.858 274.994L158.336 277.732L157.142 280.699L158.575 282.296L160.485 282.752L161.679 284.349L161.44 287.316L159.53 288.913L158.813 290.51L155.47 289.597L154.515 290.282L129.439 287.316L98.1538 283.437V279.558L96.2433 278.189L96.4821 274.538L97.4374 273.397V267.236L94.5715 260.391L89.7952 254.002L85.9742 250.123L84.0636 247.157L80.7202 245.331L79.2873 246.7L76.8991 245.103L78.0932 242.821L77.6156 239.627L75.9438 236.889L70.4511 235.976L67.3464 234.607L61.6148 230.272L61.376 227.306L58.0325 223.199L54.6891 220.917H52.0621L48.9575 219.776L46.3305 217.722L43.7035 216.81L36.0613 215.212L35.8226 213.387L33.1956 210.877L35.1061 208.139L34.6285 206.542L35.8226 204.032L35.1061 202.435L37.2554 198.327V196.73L34.3897 194.677L32.7179 192.395L34.3897 188.516L31.7627 186.234L29.6133 180.758L27.7027 179.617L27.2251 175.966L25.0758 172.772L25.3146 170.034L23.8817 168.665L23.4041 165.927L21.7323 163.189L20.0606 161.135L19.1054 159.31L19.3441 154.29L20.7771 150.639L21.9711 151.78L23.8817 150.183L25.3146 147.216L24.5981 143.794L23.4041 141.968H20.5382L18.8665 140.828L15.2843 133.754L16.7172 129.419L16.4784 125.768L15.5231 124.399L17.1948 121.204L17.6725 118.01H19.8218L19.3441 123.943L23.6429 125.54L24.1205 123.258L22.9264 120.52L21.4935 114.131L25.7922 112.762L27.2251 114.131L31.285 113.903L30.0909 111.849L28.1804 113.447L25.0758 112.077L22.9264 109.339L20.7771 110.024L18.8665 114.587L20.0606 115.956L17.6725 117.097L15.2843 113.903L14.0902 113.675L12.8961 110.708L11.2244 109.111L11.9409 102.95L10.2691 97.4744L8.11977 95.1926L5.7316 89.4883L2.62693 84.012L1.91051 80.8175L3.34343 79.2204L3.10459 70.3215L4.29868 68.0398L5.97043 65.7581L6.68685 61.8791V58.0001L3.58226 49.3295L0 43.8534L0.716422 42.4842V39.0616L5.49277 33.3572L6.68685 33.8136L11.4632 26.512V23.0894L12.6573 22.1768L16.0007 16.016L16.4784 11.6807L16.7172 7.80166L14.8066 6.20455L16.4784 4.6073L17.6725 0.956421L33.6732 5.74817L49.1963 10.3117L75.2274 17.6133L101.258 24.4585L79.5261 101.353L90.7505 117.782L98.3926 128.506L109.856 144.706L122.036 162.732L134.215 180.53L142.574 192.623L159.53 217.266L169.56 230.956V230.956Z" fill="white" stroke="black" stroke-width="1.4" stroke-linecap="round" stroke-linejoin="round" mask="url(#path-1-inside-1_101_447)"/>
</svg>
