<svg width="48" height="48" viewBox="0 0 48 48" fill="none" xmlns="http://www.w3.org/2000/svg">
<path d="M11.6544 35.9406C11.1544 35.8406 10.6484 35.5846 10.3424 35.1266C9.73043 34.2126 9.9884 32.9246 10.9064 32.3146L22.9064 24.3146C23.5764 23.8686 24.4845 23.8686 25.1545 24.3146L37.1545 32.3146C38.0725 32.9246 38.3305 34.2126 37.7185 35.1266C37.1065 36.0426 35.8225 36.3006 34.9065 35.6906L24.0305 28.4406L13.1545 35.6906C12.6965 35.9946 12.1565 36.0406 11.6544 35.9406ZM11.6544 23.9406C11.1544 23.8406 10.6484 23.5846 10.3424 23.1266C9.73043 22.2126 9.9884 20.9246 10.9064 20.3146L22.9064 12.3147C23.5764 11.8687 24.4845 11.8687 25.1545 12.3147L37.1545 20.3146C38.0725 20.9246 38.3305 22.2126 37.7185 23.1266C37.1065 24.0426 35.8225 24.3006 34.9065 23.6906L24.0305 16.4406L13.1545 23.6906C12.6965 23.9946 12.1565 24.0406 11.6544 23.9406Z" fill="white" fill-opacity="0.8"/>
</svg>
