<svg width="163" height="122" viewBox="0 0 163 122" fill="none" xmlns="http://www.w3.org/2000/svg">
<path d="M160.478 41.7857L155.01 120.841L134.109 119.495L134.103 119.494L109.039 117.442L109.033 117.441L88.2621 115.388L88.2617 115.388L63.1896 112.878L63.1863 112.878L34.0616 109.685L34.054 109.684L13.2844 106.947L13.2834 106.947L1.22007 105.395L17.1154 0.899783L42.8063 4.27769L42.808 4.27791L59.0477 6.33154L59.0477 6.33162L59.0554 6.33242L85.325 9.07052L85.3252 9.07054L104.908 11.1241L104.914 11.1246L120.676 12.4938L120.681 12.4941L136.202 13.6349L136.204 13.635L162.128 15.6615L160.479 41.7836L160.478 41.7857Z" fill="white" stroke="black" stroke-width="0.7" stroke-linecap="round" stroke-linejoin="round"/>
</svg>
