<svg width="39" height="36" viewBox="0 0 39 36" fill="none" xmlns="http://www.w3.org/2000/svg">
<path d="M37.6605 12.9303L38.0771 17.7068L37.4639 17.3553C37.3618 17.2967 37.237 17.2935 37.1319 17.3466L33.1244 19.3737L31.5109 19.5939C31.4468 19.6026 31.3865 19.629 31.3364 19.6699L29.7294 20.9859L26.7065 21.6525C26.6439 21.6663 26.5864 21.697 26.5401 21.7413L25.4633 22.77L23.4753 22.5589C23.4177 22.5528 23.3594 22.5611 23.3057 22.583L19.9624 23.9522C19.9431 23.9601 19.9245 23.9697 19.907 23.9809L12.7425 28.5444C12.7321 28.551 12.7221 28.5581 12.7125 28.5657L5.5624 34.2586L4.37639 35.0139L2.44399 33.1677L6.25364 29.3137C6.38478 29.1811 6.38883 28.9689 6.26284 28.8313L4.65796 27.0789L0.921104 7.66497L15.1496 4.76781L15.1496 4.76791L15.1578 4.76604L32.1078 0.888449L34.1738 0.493623L37.6605 12.9303Z" fill="white" stroke="black" stroke-width="0.7" stroke-linecap="round" stroke-linejoin="round"/>
</svg>
