<svg width="24" height="37" viewBox="0 0 24 37" fill="none" xmlns="http://www.w3.org/2000/svg">
<path d="M4.49141 6.2606C4.4289 6.39635 4.45948 6.55681 4.56753 6.66005L6.11495 8.13865L5.89407 10.2496C5.88156 10.3691 5.93128 10.4867 6.02575 10.5611L10.0448 13.7233L11.4135 15.6849L12.5916 19.9623C12.6105 20.031 12.6499 20.0922 12.7045 20.1379L14.5409 21.673L14.9867 22.9509C15.0105 23.019 15.0547 23.0781 15.1133 23.1201L18.9345 25.8582C19.017 25.9173 19.121 25.9377 19.2197 25.9142L20.815 25.5331L21.6396 28.0937L20.949 30.7331C20.9005 30.9187 21.0104 31.1088 21.1954 31.1594L22.6956 31.5689L23.4938 33.6661H23.1981C23.1737 33.6661 23.1493 33.6686 23.1254 33.6737L10.5427 36.3453L1.32491 6.31131L0.87797 4.60336L1.52112 2.96501L3.74503 1.05264H6.88975L4.49141 6.2606Z" fill="white" stroke="black" stroke-width="0.7" stroke-linecap="round" stroke-linejoin="round"/>
</svg>
