<svg width="204" height="149" viewBox="0 0 204 149" fill="none" xmlns="http://www.w3.org/2000/svg">
<mask id="path-1-inside-1_101_468" fill="white">
<path d="M178.792 54.9523L178.314 58.6032L177.12 60.2005L176.165 56.0932L178.792 54.9523V54.9523ZM147.507 1.55956L149.417 2.01594L149.656 6.57943L151.805 9.77379L152.044 12.0555L157.537 25.0615L160.403 30.0814L169 42.8591L178.792 53.8115L174.971 54.4961L174.732 51.3016L172.105 49.9326L175.687 58.6032L178.075 62.4822L188.822 77.998L190.494 81.877L196.464 91.004L197.181 91.2321L199.808 95.3393L201.479 99.4464L202.912 105.379L202.434 106.292L203.151 113.593L203.867 124.546L202.912 125.458V128.425L201.718 129.109L200.763 132.532L200.524 135.954L201.718 139.149L200.046 141.431L199.569 143.712H195.509L192.643 146.907L188.822 146.45L187.628 147.591L183.329 148.96L180.463 146.45L180.702 143.712L182.852 144.853L186.434 145.994L186.673 144.625L185.001 143.256L181.896 142.8L180.463 141.887L174.254 132.304L172.105 130.706L167.567 129.565L164.463 129.794L164.701 128.196L160.641 125.686L159.209 120.438L157.776 116.331L156.104 116.559L152.761 114.962L151.089 111.083L150.85 105.835L148.462 104.238L147.745 108.117L144.641 107.432L142.491 105.151L136.521 96.7084L135.805 93.742L133.655 92.6011L133.178 90.5476L135.088 89.6349L135.327 86.6686L138.432 82.3333L137.237 79.1389L135.805 80.0515L132.7 77.998L130.551 77.5417L129.834 79.8234L132.939 80.7362L133.416 82.1052L132.939 85.7559H131.745L128.401 83.246L127.207 83.0179L127.924 75.2599L127.207 72.9782L129.118 65.9048L128.64 57.6904L127.685 53.5833L124.58 51.0735L123.625 48.3353L121.714 46.9662L117.416 47.6509L115.505 45.1408L113.595 44.6845L111.684 41.9465L106.669 39.4365L106.191 35.7857L103.087 34.873L100.937 32.1349L98.549 29.8531L95.6833 28.4841L94.0116 28.256L89.474 25.9743L83.7425 27.1151L81.1154 29.3969L82.5484 32.3631H78.4885L75.3839 34.6449L73.4732 36.4702L70.1299 38.5239L64.3982 39.4365L60.0995 40.8056L59.8607 38.0675L58.189 35.7857L49.8304 30.3095L48.3974 27.1151L44.8151 28.256L39.8 26.4305L32.3968 25.0615L37.1731 22.5516L33.8296 21.867L30.9638 23.0079L29.0533 22.7798L24.5157 24.8334L15.9183 26.4305L18.3065 24.6051L16.1571 23.0079L13.0525 24.6051L9.23148 28.9405L7.08206 28.4841L8.03739 25.2896L6.6044 25.0615L5.88798 23.2361L6.6044 20.498L4.21623 18.6727L0.633972 14.7937L1.11164 11.371L24.9934 9.08929L40.0388 7.7203L62.9653 5.2103L64.6371 7.7203L65.8312 11.1429L67.264 12.0555L98.549 10.2302L130.551 7.94842L131.745 11.8274L133.178 12.9683L136.043 12.2838L135.805 6.57943L134.849 4.98218L134.61 2.70043L136.043 0.646807L137.476 0.19043L142.491 1.55956H147.507V1.55956Z"/>
</mask>
<path d="M178.792 54.9523L178.314 58.6032L177.12 60.2005L176.165 56.0932L178.792 54.9523V54.9523ZM147.507 1.55956L149.417 2.01594L149.656 6.57943L151.805 9.77379L152.044 12.0555L157.537 25.0615L160.403 30.0814L169 42.8591L178.792 53.8115L174.971 54.4961L174.732 51.3016L172.105 49.9326L175.687 58.6032L178.075 62.4822L188.822 77.998L190.494 81.877L196.464 91.004L197.181 91.2321L199.808 95.3393L201.479 99.4464L202.912 105.379L202.434 106.292L203.151 113.593L203.867 124.546L202.912 125.458V128.425L201.718 129.109L200.763 132.532L200.524 135.954L201.718 139.149L200.046 141.431L199.569 143.712H195.509L192.643 146.907L188.822 146.45L187.628 147.591L183.329 148.96L180.463 146.45L180.702 143.712L182.852 144.853L186.434 145.994L186.673 144.625L185.001 143.256L181.896 142.8L180.463 141.887L174.254 132.304L172.105 130.706L167.567 129.565L164.463 129.794L164.701 128.196L160.641 125.686L159.209 120.438L157.776 116.331L156.104 116.559L152.761 114.962L151.089 111.083L150.85 105.835L148.462 104.238L147.745 108.117L144.641 107.432L142.491 105.151L136.521 96.7084L135.805 93.742L133.655 92.6011L133.178 90.5476L135.088 89.6349L135.327 86.6686L138.432 82.3333L137.237 79.1389L135.805 80.0515L132.7 77.998L130.551 77.5417L129.834 79.8234L132.939 80.7362L133.416 82.1052L132.939 85.7559H131.745L128.401 83.246L127.207 83.0179L127.924 75.2599L127.207 72.9782L129.118 65.9048L128.64 57.6904L127.685 53.5833L124.58 51.0735L123.625 48.3353L121.714 46.9662L117.416 47.6509L115.505 45.1408L113.595 44.6845L111.684 41.9465L106.669 39.4365L106.191 35.7857L103.087 34.873L100.937 32.1349L98.549 29.8531L95.6833 28.4841L94.0116 28.256L89.474 25.9743L83.7425 27.1151L81.1154 29.3969L82.5484 32.3631H78.4885L75.3839 34.6449L73.4732 36.4702L70.1299 38.5239L64.3982 39.4365L60.0995 40.8056L59.8607 38.0675L58.189 35.7857L49.8304 30.3095L48.3974 27.1151L44.8151 28.256L39.8 26.4305L32.3968 25.0615L37.1731 22.5516L33.8296 21.867L30.9638 23.0079L29.0533 22.7798L24.5157 24.8334L15.9183 26.4305L18.3065 24.6051L16.1571 23.0079L13.0525 24.6051L9.23148 28.9405L7.08206 28.4841L8.03739 25.2896L6.6044 25.0615L5.88798 23.2361L6.6044 20.498L4.21623 18.6727L0.633972 14.7937L1.11164 11.371L24.9934 9.08929L40.0388 7.7203L62.9653 5.2103L64.6371 7.7203L65.8312 11.1429L67.264 12.0555L98.549 10.2302L130.551 7.94842L131.745 11.8274L133.178 12.9683L136.043 12.2838L135.805 6.57943L134.849 4.98218L134.61 2.70043L136.043 0.646807L137.476 0.19043L142.491 1.55956H147.507V1.55956Z" fill="white" stroke="black" stroke-width="1.4" stroke-linecap="round" stroke-linejoin="round" mask="url(#path-1-inside-1_101_468)"/>
</svg>
