<svg width="123" height="120" viewBox="0 0 123 120" fill="none" xmlns="http://www.w3.org/2000/svg">
<path d="M117.603 78.3087L114.916 80.4485C114.867 80.4872 114.83 80.5383 114.807 80.5964L113.136 84.9317C113.127 84.954 113.121 84.9771 113.117 85.0006L112.4 89.3358C112.389 89.4063 112.399 89.4787 112.43 89.5433L113.624 92.0533C113.655 92.1199 113.707 92.1748 113.772 92.2101L115.135 92.9539L113.156 96.5249C113.136 96.5615 113.122 96.6014 113.116 96.6427L112.652 99.7457L111.276 101.498C111.234 101.552 111.208 101.618 111.203 101.686L110.964 104.653C110.96 104.697 110.965 104.741 110.978 104.784L112.033 108.21H107.539L102.569 106.853C102.504 106.835 102.435 106.836 102.37 106.857L100.937 107.313C100.864 107.337 100.801 107.384 100.757 107.447L99.3237 109.5C99.2755 109.569 99.2539 109.653 99.2626 109.737L99.5014 112.019C99.5067 112.069 99.523 112.118 99.5491 112.162L100.459 113.683L100.682 119.01L98.2623 119.588L97.0476 118.621L95.8853 114.845C95.8374 114.69 95.6884 114.588 95.5259 114.599L63.5289 116.881L63.5243 116.881L32.3568 118.7L31.1219 117.913L29.9678 114.605C29.9581 114.577 29.9449 114.551 29.9286 114.526L28.2845 112.058L27.5831 109.824C27.5689 109.779 27.5457 109.737 27.515 109.701L25.4122 107.246L24.7388 105.101L25.4479 98.0988C25.4543 98.0361 25.4436 97.973 25.4171 97.9159L23.5094 93.8149L22.1265 90.5118L23.5258 85.61C23.5369 85.5709 23.5412 85.5301 23.5384 85.4895L23.3094 82.2093L26.3217 78.6673C26.3821 78.5962 26.4117 78.5039 26.4038 78.4109C26.3959 78.3179 26.3511 78.2319 26.2795 78.172L24.4815 76.6689L24.2545 73.849C24.2507 73.8021 24.2376 73.7564 24.2157 73.7148L23.0217 71.433C23.0068 71.4047 22.9882 71.3786 22.9663 71.3553L20.8617 69.1211L19.2147 65.0745C19.1961 65.0288 19.168 64.9875 19.1323 64.9534L18.235 64.096L17.0731 60.9879L6.80744 26.5449L6.80684 26.5429L2.98674 13.9968L1.42593 8.45755L6.27668 7.82557L6.27833 7.82536L29.9196 4.85919L29.9196 4.85924L29.9254 4.85841L56.556 1.06428L56.0777 2.28272L53.2437 5.89305C53.2127 5.93253 53.1906 5.9782 53.1788 6.02698L52.4622 8.99322C52.4329 9.11452 52.4704 9.24226 52.5607 9.32847L53.516 10.2412C53.5476 10.2714 53.5847 10.2955 53.6252 10.3121L58.5955 12.3473L61.1844 14.371C61.246 14.4191 61.3218 14.4453 61.4 14.4453H65.0384L67.7722 18.3632L68.7117 21.0558C68.7313 21.1119 68.7648 21.1622 68.8092 21.2017L72.3375 24.3482L73.2622 26.3361C73.2965 26.4098 73.3554 26.4693 73.4287 26.5043L78.6608 29.0038L81.6747 30.9974L83.305 33.8902C83.3463 33.9635 83.4127 34.0195 83.4919 34.0479L87.2648 35.3996L90.2008 37.5573L90.4258 40.1376C90.4374 40.2712 90.5243 40.3863 90.6495 40.4342L92.8977 41.2933L93.7951 43.4368C93.8137 43.4812 93.8413 43.5214 93.8762 43.5546L95.5478 45.1519C95.5814 45.184 95.6211 45.2092 95.6646 45.2258L101.483 47.4495L102.385 50.034C102.403 50.0863 102.433 50.1335 102.474 50.1718L104.333 51.9485L105.481 54.5797L105.951 57.7285C105.967 57.8351 106.032 57.9285 106.126 57.9815L111.296 60.9006L113.821 65.2868L113.591 68.1446C113.583 68.2439 113.618 68.3418 113.686 68.4139L116.074 70.9238C116.167 71.0209 116.306 71.0567 116.434 71.016L117.753 70.5962L120.745 71.6957C120.749 71.6975 120.754 71.6991 120.759 71.7007L121.769 72.0221L119.498 75.7693L117.349 75.3586C117.231 75.3361 117.109 75.3756 117.027 75.4634C116.945 75.5511 116.914 75.6748 116.945 75.791L117.603 78.3087ZM116.053 86.3203L114.945 89.1432L114.6 88.9781L115.394 86.3203H116.053Z" fill="white" stroke="black" stroke-width="0.7" stroke-linecap="round" stroke-linejoin="round"/>
</svg>
