<svg width="135" height="84" viewBox="0 0 135 84" fill="none" xmlns="http://www.w3.org/2000/svg">
<path d="M122.618 26.3874C122.536 26.5453 122.585 26.7401 122.733 26.8398L126.706 29.5194L128.098 32.8455C128.126 32.9114 128.173 32.9672 128.233 33.0056L133.156 36.1412L134.03 38.2285L133.11 43.7184L131.045 45.6914C130.987 45.7466 130.95 45.8199 130.94 45.8991L130.478 49.4276L128.713 51.1144L125.442 52.2304C125.402 52.2442 125.364 52.2655 125.331 52.2931L123.495 53.8276L117.621 54.7255C117.54 54.738 117.465 54.7791 117.411 54.8414L116.216 56.2106C116.177 56.2557 116.15 56.3102 116.138 56.3689L115.421 59.7915C115.413 59.8321 115.412 59.8739 115.418 59.915L115.656 61.5122C115.672 61.6159 115.733 61.7072 115.823 61.761L117.664 62.8605L118.75 64.5198L118.526 67.7284L116.193 71.0717C116.162 71.116 116.142 71.1668 116.134 71.2202L115.672 74.3134L114.595 75.5477L110.605 77.3416C110.474 77.4005 110.392 77.5333 110.399 77.6767L110.626 82.6721L109.859 82.9654L104.795 78.7866L103.626 77.2231C103.552 77.1248 103.432 77.0722 103.31 77.0844L98.7786 77.5401L74.6716 79.1365L64.8876 79.3644L64.8795 79.3648L55.0958 79.8208L55.0879 79.8211L45.5503 80.0489L18.6287 79.5976L18.4337 78.2935C18.4222 78.2167 18.3855 78.1459 18.3293 78.0922L16.5887 76.4291L17.2193 74.8224C17.2373 74.7765 17.2454 74.7272 17.2431 74.6779L17.0043 69.6581C17 69.5683 16.9614 69.4837 16.8965 69.4216L16.2883 68.8405V64.8831C16.2883 64.8009 16.2594 64.7214 16.2066 64.6584L15.3753 63.6656L16.2714 60.8831C16.3007 60.7922 16.2915 60.6932 16.246 60.6091C16.2005 60.5251 16.1226 60.4633 16.0304 60.4382L14.6557 60.063L15.0908 56.9454C15.1086 56.818 15.0551 56.6911 14.9515 56.615L11.9576 54.4147L11.52 52.1148L12.457 48.3099C12.4811 48.2121 12.4618 48.1086 12.4041 48.026L11.0183 46.0398L10.5528 42.9265C10.5402 42.8427 10.4977 42.7663 10.4332 42.7115L8.38392 40.9712L8.16459 39.5039C8.1562 39.4478 8.1343 39.3945 8.10077 39.3488L6.50773 37.1745L6.73401 34.7972C6.74154 34.7181 6.72196 34.6389 6.67849 34.5724L5.5415 32.8343V29.516C5.5415 29.374 5.45562 29.246 5.32415 29.1921L3.81084 28.5724L2.90154 25.3147C2.88917 25.2703 2.86816 25.2289 2.83974 25.1927L0.835833 22.6399L2.15197 20.3343C2.16128 20.318 2.16927 20.3009 2.17585 20.2833L3.36993 17.089C3.38459 17.0498 3.39209 17.0083 3.39209 16.9664V14.9902L4.31476 13.0068C4.34569 12.9403 4.35496 12.8658 4.34125 12.7937L3.86358 10.2839C3.83546 10.1361 3.7161 10.0229 3.56708 10.0025L2.25202 9.82307L2.90974 5.84288C2.9202 5.77958 2.91307 5.71463 2.88911 5.65511L1.88853 3.16957H4.23618L17.3711 3.1696L17.3752 3.16955L36.9582 2.94129L36.9582 2.94129L56.78 2.71317V2.71327L56.7882 2.71298L76.3711 2.02849L76.3712 2.02849L96.1929 1.34405L96.199 1.34373L109.066 0.673043L110.177 4.06925C110.215 4.1849 110.31 4.2726 110.428 4.30087L112.143 4.71038L112.527 5.99427L111.142 9.3014C111.116 9.36439 111.109 9.43372 111.121 9.50085L112.315 15.8899C112.32 15.9142 112.327 15.9379 112.336 15.9607L114.247 20.5242C114.278 20.5975 114.332 20.6582 114.402 20.6963L116.074 21.6089C116.108 21.6276 116.145 21.6405 116.184 21.6469L121.512 22.5322L123.032 25.2291L122.839 25.9663L122.618 26.3874Z" fill="white" stroke="black" stroke-width="0.7" stroke-linecap="round" stroke-linejoin="round"/>
</svg>
