<svg width="134" height="207" viewBox="0 0 134 207" fill="none" xmlns="http://www.w3.org/2000/svg">
<path d="M56.7444 30.788C56.7242 30.8725 56.7362 30.9614 56.7779 31.0375L59.3733 35.7716L59.6035 37.5317C59.6094 37.5768 59.6241 37.6204 59.6466 37.6599L61.0415 40.1031L61.2552 42.5532L60.0014 43.3519C59.8391 43.4553 59.7907 43.6703 59.893 43.8332L61.1467 45.8296L59.7533 46.7806C59.6598 46.8444 59.6029 46.9495 59.6006 47.0627C59.5984 47.1758 59.651 47.2831 59.7418 47.3506L61.8142 48.8906L62.7324 51.0838C62.76 51.1496 62.807 51.2055 62.8672 51.2438L65.6253 53.0007L66.3035 55.1607C66.3112 55.1852 66.3216 55.2088 66.3345 55.231L71.2916 63.8012L71.0661 65.7395C71.0527 65.855 71.0974 65.9696 71.1856 66.0453L75.8719 70.0751L76.3252 72.2406C76.3607 72.41 76.5146 72.5281 76.6874 72.5183L80.4841 72.305L80.8347 73.3098L79.9297 75.9035L76.3625 82.2656C76.3332 82.3179 76.3178 82.3768 76.3178 82.4368V84.4094L74.6815 87.7593C74.6352 87.8542 74.6342 87.9649 74.6787 88.0606L75.6013 90.0439V92.2777L71.9509 94.4576C71.8118 94.5407 71.7479 94.7084 71.7964 94.863L72.4693 97.0062L70.8649 100.072C70.8192 100.159 70.8124 100.262 70.8462 100.354C70.88 100.447 70.9512 100.521 71.0424 100.558L72.626 101.207L74.4788 103.641C74.5672 103.757 74.7185 103.806 74.8584 103.764L79.396 102.395C79.4362 102.383 79.474 102.363 79.5074 102.338L82.8121 99.8118L85.154 102.863V110.274C85.154 110.331 85.1677 110.386 85.1939 110.436L88.0413 115.877L88.9438 119.327L87.8507 120.789C87.77 120.896 87.7584 121.041 87.8209 121.16L89.9703 125.268C90.0261 125.374 90.1327 125.445 90.2526 125.454L92.9058 125.666L94.7067 129.967V134.917C94.7067 135.002 94.7374 135.083 94.793 135.147L95.9871 136.516C96.044 136.581 96.1232 136.623 96.2093 136.633L98.1198 136.862C98.1856 136.87 98.2524 136.859 98.3122 136.83L101.526 135.294L107.361 137.301C107.505 137.351 107.665 137.302 107.756 137.18L108.878 135.679L110.32 135.285L113.077 136.383C113.113 136.397 113.15 136.405 113.188 136.407L117.358 136.629L118.458 137.68C118.546 137.764 118.671 137.796 118.788 137.765L121.313 137.107L124.557 138.214C124.731 138.274 124.922 138.188 124.993 138.018L126.806 133.689L129.182 133.878L130.306 137.53C130.319 137.573 130.341 137.614 130.37 137.649L132.895 140.719L121.519 205.706L95.3572 201.428L95.352 201.427L76.2578 198.006L76.2518 198.005L61.2124 195.04L61.2104 195.039L38.5334 190.706L38.5227 190.704L27.309 188.196L27.3069 188.196L1.38946 182.568L12.7555 136.867L15.8407 130.972C15.8751 130.906 15.8878 130.831 15.8768 130.758L15.6612 129.317L17.4707 127.156C17.5559 127.054 17.5762 126.913 17.5231 126.791L16.329 124.053C16.293 123.97 16.2264 123.905 16.1432 123.87L12.5864 122.383L13.4621 117.991L15.7588 116.016C15.7777 115.999 15.7948 115.981 15.8098 115.961L18.8581 111.929L20.9214 111.052C20.9701 111.032 21.0135 111 21.0483 110.96L23.4365 108.222C23.4677 108.187 23.4913 108.145 23.5059 108.1L24.4339 105.218L26.9968 102.769C27.0227 102.744 27.0447 102.716 27.0619 102.684L29.6668 97.9331L34.6502 92.7182C34.6884 92.6782 34.7166 92.6297 34.7325 92.5766L35.2101 90.9795C35.2273 90.9221 35.2294 90.8612 35.2163 90.8027L34.4999 87.6082C34.483 87.5331 34.4419 87.4656 34.3828 87.4162L30.6272 84.2765L29.7254 82.1225L29.4916 79.6655C29.4892 79.6403 29.4841 79.6154 29.4763 79.5913L28.5834 76.8187L30.1178 75.1433C30.1989 75.0547 30.229 74.9307 30.1973 74.8148L28.7882 69.6538L39.5115 25.4841L39.5126 25.48L41.6608 17.498L41.6609 17.498L41.6626 17.491L45.641 1.39243L62.8706 5.1238L56.7444 30.788Z" fill="white" stroke="black" stroke-width="0.7" stroke-linecap="round" stroke-linejoin="round"/>
</svg>
