<svg width="89" height="149" viewBox="0 0 89 149" fill="none" xmlns="http://www.w3.org/2000/svg">
<path d="M73.0889 6.16152C73.0907 6.20419 73.1003 6.24617 73.1172 6.28539L74.7889 10.1644C74.8167 10.2288 74.8632 10.2834 74.9223 10.3211L76.2495 11.1665L77.4046 14.6982C77.409 14.7114 77.4141 14.7244 77.4199 14.737L79.3305 18.8441C79.3489 18.8836 79.3745 18.9194 79.406 18.9495L80.7442 20.2281L86.4496 82.4631L84.8825 84.1743C84.8003 84.264 84.7706 84.3899 84.804 84.5068L85.4684 86.834L84.3993 88.0597C84.3065 88.166 84.2867 88.3177 84.3491 88.4444L86.2596 92.3234C86.2834 92.3718 86.3181 92.414 86.361 92.4468L87.4008 93.2416L87.1803 95.5582C87.1739 95.6257 87.1872 95.6936 87.2186 95.7536L88.5843 98.3631L87.9496 100.385L86.6243 101.229C86.5302 101.289 86.4703 101.39 86.4631 101.501L86.2347 104.993L83.9728 106.722C83.8608 106.808 83.8111 106.952 83.8468 107.089L84.0497 107.864L82.5151 110.587L80.4969 111.23C80.3852 111.266 80.2987 111.355 80.2666 111.467L79.5501 113.977C79.5114 114.113 79.5581 114.259 79.6687 114.347L80.8399 115.28L78.8867 117.975C78.8384 118.042 78.8151 118.124 78.821 118.206L79.2956 124.78L79.0754 126.043L77.1982 129.182C77.1263 129.302 77.133 129.453 77.2151 129.567L79.2184 132.331L78.4745 133.398L71.1861 135.644C71.0543 135.684 70.9587 135.799 70.9418 135.935L70.4642 139.814C70.453 139.905 70.4777 139.997 70.5331 140.069L72.3259 142.424L71.5527 144.456L68.5299 143.631L62.3349 141.354C62.2722 141.331 62.2041 141.326 62.1388 141.341L59.0342 142.025C58.9437 142.045 58.8647 142.1 58.8147 142.179L56.1877 146.286C56.1114 146.405 56.1145 146.558 56.1955 146.675L56.7596 147.483L55.2201 146.625C55.1209 146.57 55.0012 146.566 54.8988 146.615L53.2475 147.404L48.7696 141.414L49.873 139.095C49.8953 139.048 49.9069 138.997 49.9069 138.945V136.891C49.9069 136.828 49.8897 136.766 49.8573 136.711L47.9781 133.569L47.2733 129.978C47.2487 129.853 47.1577 129.751 47.036 129.712L44.9997 129.064L43.1571 126.423C43.129 126.383 43.0928 126.349 43.0509 126.323L38.5133 123.585C38.4898 123.571 38.4648 123.56 38.4387 123.552L34.2092 122.204L28.837 117.518L27.9574 115.207L30.058 108.963L31.4781 106.25C31.509 106.19 31.5224 106.123 31.5166 106.057L31.2874 103.428L32.666 101.013C32.7516 100.863 32.7151 100.673 32.58 100.566L31.1472 99.4246C31.1184 99.4017 31.0862 99.3835 31.0517 99.3706L25.5588 97.3171C25.4428 97.2738 25.3125 97.2949 25.2162 97.3728L22.3719 99.6723L20.0316 97.0297L19.0938 91.8779C19.0851 91.8304 19.0668 91.7853 19.0398 91.7452L16.8906 88.5507C16.8623 88.5087 16.8253 88.4733 16.782 88.447L11.604 85.2988L10.4546 83.3222C10.4313 83.2821 10.4002 83.247 10.3632 83.219L4.69412 78.9309L2.62113 74.9696V72.7739C2.62113 72.6983 2.59668 72.6248 2.55145 72.5643L1.40845 71.0354L0.712357 66.8241L0.942626 63.3051L2.0243 61.6516L3.1125 61.2357C3.25349 61.1818 3.34405 61.0436 3.33719 60.8929L3.1091 55.8825L6.95209 54.1546C6.99814 54.1339 7.03916 54.1035 7.07234 54.0655L8.26643 52.6963C8.31034 52.646 8.33892 52.5841 8.3488 52.518L8.81433 49.4049L11.1555 46.0496C11.1918 45.9976 11.2132 45.9368 11.2176 45.8737L11.4564 42.451C11.4617 42.3748 11.442 42.299 11.4001 42.2351L10.2061 40.4097C10.177 40.3653 10.1382 40.328 10.0926 40.3008L8.32432 39.2449L8.11932 37.8735L8.80417 34.6017L9.85396 33.3981L15.6977 32.5048C15.7609 32.4951 15.8203 32.4684 15.8693 32.4273L17.7299 30.8718L21.0119 29.752C21.0599 29.7355 21.1039 29.7089 21.1406 29.6738L23.0511 27.8484C23.1089 27.7932 23.146 27.7199 23.1564 27.6407L23.618 24.1123L25.6781 22.144C25.7327 22.0918 25.769 22.0233 25.7815 21.9488L26.7368 16.2444C26.7477 16.1793 26.74 16.1124 26.7144 16.0514L25.7591 13.7697C25.7316 13.7038 25.6845 13.648 25.6243 13.6097L20.7017 10.4741L19.3112 7.15258C19.2848 7.08962 19.2406 7.03574 19.184 6.99757L15.3837 4.43451L15.3859 4.43033L33.3357 3.30203L33.3393 3.30182L55.068 2.16115L55.068 2.16125L55.076 2.16064L72.8652 0.818736L73.0889 6.16152Z" fill="white" stroke="black" stroke-width="0.7" stroke-linecap="round" stroke-linejoin="round"/>
</svg>
