<svg width="68" height="113" viewBox="0 0 68 113" fill="none" xmlns="http://www.w3.org/2000/svg">
<path d="M66.0024 75.8585L67.6193 76.2447L67.4287 78.4307L63.853 79.2848C63.8136 79.2942 63.7761 79.3104 63.7422 79.3327L60.117 81.7139L58.6388 80.7051C58.5631 80.6534 58.4701 80.6335 58.3798 80.6497L54.5588 81.3342C54.462 81.3515 54.3769 81.4088 54.3244 81.4921C54.272 81.5753 54.257 81.6768 54.2831 81.7716L55.4296 85.9342L53.1863 88.7204L51.5574 89.8321C51.4827 89.8831 51.4306 89.961 51.4121 90.0495L50.7386 93.2671L47.8348 94.1208C47.7529 94.1449 47.6826 94.1981 47.6371 94.2704L46.2043 96.5522C46.1693 96.6079 46.1507 96.6725 46.1507 96.7383V100.457L44.0038 102.303L40.8781 101.876L38.9195 100.836L38.4807 99.1596C38.4553 99.0625 38.3895 98.981 38.3 98.9358C38.2105 98.8906 38.1058 98.8859 38.0126 98.923L35.1468 100.064C35.0832 100.089 35.0284 100.133 34.9892 100.189L33.0787 102.927C33.0377 102.986 33.0157 103.056 33.0157 103.127V105.136L28.9556 106.157L27.186 104.043C27.0692 103.904 26.865 103.877 26.7162 103.982L22.1787 107.176C22.1133 107.222 22.0656 107.29 22.0437 107.366L21.4341 109.502L13.9142 106.454C13.8271 106.418 13.7295 106.419 13.6433 106.457L11.0164 107.598C10.9493 107.627 10.893 107.676 10.8554 107.739L10.0728 109.048L8.69641 108.296C8.61821 108.254 8.52667 108.242 8.44045 108.265L5.94545 108.915L3.91645 107.838C3.80797 107.78 3.67724 107.784 3.57199 107.847C3.46674 107.91 3.40236 108.024 3.40236 108.147V110.758L2.6486 111.658L0.975786 111.481L0.528382 105.283L2.60294 102.42C2.71273 102.268 2.68392 102.057 2.53753 101.941L1.2873 100.945L1.88814 98.8402L3.85857 98.2127C3.94285 98.1858 4.01384 98.1281 4.05727 98.051L5.72902 95.0848C5.77362 95.0056 5.78571 94.9123 5.76272 94.8244L5.58288 94.1369L7.78607 92.4529C7.86634 92.3915 7.91618 92.2985 7.92278 92.1977L8.14996 88.7238L9.43328 87.9065C9.50283 87.8622 9.5545 87.7948 9.5792 87.7162L10.2956 85.4344C10.3235 85.3457 10.3149 85.2496 10.2718 85.1673L8.88697 82.5212L9.11603 80.1148C9.12748 79.9945 9.07612 79.8769 8.98016 79.8035L7.85126 78.9406L6.07997 75.3443L7.12086 74.1509C7.19881 74.0615 7.22621 73.9388 7.19366 73.8248L6.53081 71.5029L8.07039 69.8219C8.13699 69.7491 8.16982 69.6517 8.16082 69.5535L2.50755 7.8874L4.00346 9.15787C4.05233 9.19937 4.11166 9.22666 4.17498 9.23674L7.04082 9.69312C7.1023 9.70291 7.16529 9.69612 7.22328 9.67346L12.4773 7.61983C12.4984 7.61156 12.5187 7.60125 12.5379 7.58905L16.0495 5.35232L27.668 4.21958L27.668 4.21962L27.6733 4.21902L57.6139 0.840326V2.04586C57.6139 2.06391 57.6153 2.08193 57.6181 2.09977L59.2888 12.8178L66.1931 70.5941L65.3643 71.386C65.2423 71.5026 65.2208 71.6895 65.3132 71.8307L66.4129 73.5119L65.7533 75.4028C65.7206 75.4963 65.7291 75.5992 65.7766 75.686C65.8241 75.7729 65.9062 75.8355 66.0024 75.8585Z" fill="white" stroke="black" stroke-width="0.7" stroke-linecap="round" stroke-linejoin="round"/>
</svg>
