<svg width="166" height="85" viewBox="0 0 166 85" fill="none" xmlns="http://www.w3.org/2000/svg">
<path d="M164.763 83.9728L139.327 84.1979L139.323 84.198L124.047 83.9697L124.045 83.9697L98.2562 83.7417L98.253 83.7416L72.7073 83.2854L57.4278 82.6011L57.4238 82.6009L36.8933 81.9168L36.8856 81.9164L16.3556 80.7759L16.3551 80.7759L0.708513 79.8833L6.15312 1.1748L37.3338 2.75466L37.3339 2.75466L59.7825 3.89553L59.7825 3.8956L59.7895 3.89582L81.9996 4.58035L82.0044 4.58043L95.3781 4.80857L95.3816 4.80859L126.667 5.03686H126.669H148.739L151.264 7.44978C151.294 7.4783 151.329 7.50131 151.367 7.51775L153.994 8.65863C154.112 8.71018 154.25 8.69202 154.351 8.61141L155.556 7.65185L157.714 9.52619L154.572 13.6001C154.55 13.6298 154.532 13.6631 154.519 13.6985L153.325 17.1212C153.282 17.2441 153.311 17.3807 153.4 17.4757L157.424 21.773L159.312 25.6053C159.344 25.6695 159.394 25.7224 159.457 25.757L163.817 28.1689L164.763 83.9728Z" fill="white" stroke="black" stroke-width="0.7" stroke-linecap="round" stroke-linejoin="round"/>
</svg>
