<svg width="162" height="80" viewBox="0 0 162 80" fill="none" xmlns="http://www.w3.org/2000/svg">
<mask id="path-1-inside-1_101_474" fill="white">
<path d="M143.952 13.135L145.146 17.6985L144.191 20.4366L153.505 31.389L156.131 32.7581L157.803 34.1271L161.147 34.3552L153.982 42.3413L148.25 46.2203L146.818 47.8176L146.579 49.8712L144.191 52.1529L143.713 54.2064L139.653 56.2601L138.698 58.7699L136.549 59.4544L132.966 61.508L130.817 61.9644L127.712 64.2462L126.279 64.7025L95.472 67.4405L88.5462 68.5814L74.4561 69.4942L65.6198 69.7223L63.7093 70.1787L35.29 73.1449L34.3347 72.4604L29.7972 72.2323L30.9913 77.2522L0.183838 79.762L1.37792 75.883L3.7661 77.4803L4.72142 76.5675L5.91551 72.9168L5.43785 69.9505L5.91551 66.5279L4.48252 64.4743L7.10959 60.3672L10.2142 59.6827L16.4234 61.9644L19.7669 62.877L20.7222 60.3672L18.8115 57.8573L19.2892 53.9783L26.6926 51.6966L27.6478 50.3274L25.4985 47.3612L27.4091 44.1668L27.6478 42.7977L29.7972 43.026L30.7524 41.8851V39.147L32.9018 40.2878L35.5288 39.6033L37.2005 40.516L38.1558 38.9187L40.7828 37.7778L48.6637 40.9723L49.3803 38.4625L53.9177 35.268L55.8282 37.5497L60.3658 36.4088V34.1271L62.2763 31.389L65.1421 30.2481L65.6198 32.0735L67.7691 33.2143L71.1126 33.6707L73.5007 31.6172V27.7382L74.9336 25.4565L78.0383 24.5437L78.7548 21.1211L80.4265 19.9802L82.8147 17.014L81.6206 12.6786L85.4416 11.9941L87.1134 13.135L90.9344 10.6251L94.7555 9.71239L94.9943 6.97427L93.0838 6.51803L93.8002 4.4644L92.6061 2.63903L93.5614 1.72628L95.7107 0.129028L97.6212 1.72628L101.681 0.585405L104.547 2.18266L108.129 7.6589L110.517 8.11514L112.906 7.43064L115.294 7.88702L118.876 10.8533L120.309 10.6251L122.697 8.3434L126.279 9.25601L127.951 10.6251L131.533 9.48427L133.444 6.74615L136.31 5.60527L138.22 9.48427L141.325 10.3969L143.952 13.135V13.135Z"/>
</mask>
<path d="M143.952 13.135L145.146 17.6985L144.191 20.4366L153.505 31.389L156.131 32.7581L157.803 34.1271L161.147 34.3552L153.982 42.3413L148.25 46.2203L146.818 47.8176L146.579 49.8712L144.191 52.1529L143.713 54.2064L139.653 56.2601L138.698 58.7699L136.549 59.4544L132.966 61.508L130.817 61.9644L127.712 64.2462L126.279 64.7025L95.472 67.4405L88.5462 68.5814L74.4561 69.4942L65.6198 69.7223L63.7093 70.1787L35.29 73.1449L34.3347 72.4604L29.7972 72.2323L30.9913 77.2522L0.183838 79.762L1.37792 75.883L3.7661 77.4803L4.72142 76.5675L5.91551 72.9168L5.43785 69.9505L5.91551 66.5279L4.48252 64.4743L7.10959 60.3672L10.2142 59.6827L16.4234 61.9644L19.7669 62.877L20.7222 60.3672L18.8115 57.8573L19.2892 53.9783L26.6926 51.6966L27.6478 50.3274L25.4985 47.3612L27.4091 44.1668L27.6478 42.7977L29.7972 43.026L30.7524 41.8851V39.147L32.9018 40.2878L35.5288 39.6033L37.2005 40.516L38.1558 38.9187L40.7828 37.7778L48.6637 40.9723L49.3803 38.4625L53.9177 35.268L55.8282 37.5497L60.3658 36.4088V34.1271L62.2763 31.389L65.1421 30.2481L65.6198 32.0735L67.7691 33.2143L71.1126 33.6707L73.5007 31.6172V27.7382L74.9336 25.4565L78.0383 24.5437L78.7548 21.1211L80.4265 19.9802L82.8147 17.014L81.6206 12.6786L85.4416 11.9941L87.1134 13.135L90.9344 10.6251L94.7555 9.71239L94.9943 6.97427L93.0838 6.51803L93.8002 4.4644L92.6061 2.63903L93.5614 1.72628L95.7107 0.129028L97.6212 1.72628L101.681 0.585405L104.547 2.18266L108.129 7.6589L110.517 8.11514L112.906 7.43064L115.294 7.88702L118.876 10.8533L120.309 10.6251L122.697 8.3434L126.279 9.25601L127.951 10.6251L131.533 9.48427L133.444 6.74615L136.31 5.60527L138.22 9.48427L141.325 10.3969L143.952 13.135V13.135Z" fill="white" stroke="black" stroke-width="1.4" stroke-linecap="round" stroke-linejoin="round" mask="url(#path-1-inside-1_101_474)"/>
</svg>
