<svg width="126" height="105" viewBox="0 0 126 105" fill="none" xmlns="http://www.w3.org/2000/svg">
<mask id="path-1-inside-1_101_461" fill="white">
<path d="M57.2415 95.6031L56.2862 95.8312L51.7486 93.7777L53.898 91.496L58.9131 93.0931L57.2415 95.6031V95.6031ZM111.453 73.6982L106.915 74.3829L105.482 72.7856L100.467 72.5574L98.0792 70.0475L94.2582 69.5911L89.9594 74.3829L89.4819 76.4364L91.87 78.2617L96.1687 79.1745L99.2733 78.49L101.9 76.8927L102.856 75.2955L105.244 76.6646L104.288 79.4026L108.11 82.1407H109.781L110.737 79.1745L114.08 77.1209V80.5435L116.707 81.6844L114.796 84.1944L113.841 83.2816L109.781 89.2142L107.871 89.8987L109.304 91.9522L112.408 93.0931L113.364 95.1467L115.274 94.6903L117.662 96.0595L121.006 95.6031L125.782 100.851L121.961 104.274L119.095 104.046L117.185 103.133L114.319 99.0257L107.393 96.744L106.677 95.6031L103.572 93.5495L101.9 93.7777L99.2733 92.1805L100.467 96.744L99.2733 99.0257L99.751 101.764L96.4075 104.502L95.2134 102.448L95.4523 100.167L91.87 99.0257L87.8101 99.2538L84.4666 104.274L81.362 102.905L78.9738 103.133L71.5706 101.764L68.9435 100.395L71.5706 97.2003L69.8988 94.0058L68.9435 94.9186L63.6895 94.234L62.7343 91.2677H60.8238L61.0626 88.986L59.6297 88.5296H54.8534L55.5698 86.4761L52.2263 86.7042L51.9875 87.617L48.644 88.7578L48.4053 90.1268L49.5994 92.4086L45.5394 94.9186L38.8526 94.234L35.5091 93.3213L26.9117 90.1268L22.6131 89.2142L16.4037 89.4423L9.47811 90.5832L7.3287 91.7241L5.89585 88.7578L8.52279 87.3887L9.00045 84.6507L8.04512 83.9661L9.95563 81.4562L9.71687 75.7519L8.76154 73.0137L9.95563 71.4165L9.23921 68.4503L10.1945 67.3094L12.8215 61.3769L13.5379 58.1824L12.5827 56.357L14.0156 55.4443L9.95563 47.9145L10.4333 46.7737L6.13461 41.0693L6.37337 37.6467L4.22411 33.0832L0.880607 30.117L0.164185 3.19238L21.1801 2.50788L50.3158 1.36701L67.5107 0.682373L69.8988 2.96412L68.4658 4.78963L68.2271 10.9502L69.6599 12.7757L69.8988 15.5137L74.4363 18.2518L71.0929 25.3253L70.6152 27.1507L69.1824 28.0633L67.033 31.0297L65.1225 31.7142L63.6895 34.9086L63.212 39.4721L61.0626 41.5257L62.0179 43.8074L61.0626 47.23L58.9131 47.4582L59.6297 49.5118L59.1521 51.109L60.5849 53.3908L58.6744 54.988L81.362 53.8472L104.766 52.478V53.8472L102.617 61.1486L104.05 64.115L107.154 66.853L108.587 70.9603L109.781 73.242L111.453 73.6982V73.6982Z"/>
</mask>
<path d="M57.2415 95.6031L56.2862 95.8312L51.7486 93.7777L53.898 91.496L58.9131 93.0931L57.2415 95.6031V95.6031ZM111.453 73.6982L106.915 74.3829L105.482 72.7856L100.467 72.5574L98.0792 70.0475L94.2582 69.5911L89.9594 74.3829L89.4819 76.4364L91.87 78.2617L96.1687 79.1745L99.2733 78.49L101.9 76.8927L102.856 75.2955L105.244 76.6646L104.288 79.4026L108.11 82.1407H109.781L110.737 79.1745L114.08 77.1209V80.5435L116.707 81.6844L114.796 84.1944L113.841 83.2816L109.781 89.2142L107.871 89.8987L109.304 91.9522L112.408 93.0931L113.364 95.1467L115.274 94.6903L117.662 96.0595L121.006 95.6031L125.782 100.851L121.961 104.274L119.095 104.046L117.185 103.133L114.319 99.0257L107.393 96.744L106.677 95.6031L103.572 93.5495L101.9 93.7777L99.2733 92.1805L100.467 96.744L99.2733 99.0257L99.751 101.764L96.4075 104.502L95.2134 102.448L95.4523 100.167L91.87 99.0257L87.8101 99.2538L84.4666 104.274L81.362 102.905L78.9738 103.133L71.5706 101.764L68.9435 100.395L71.5706 97.2003L69.8988 94.0058L68.9435 94.9186L63.6895 94.234L62.7343 91.2677H60.8238L61.0626 88.986L59.6297 88.5296H54.8534L55.5698 86.4761L52.2263 86.7042L51.9875 87.617L48.644 88.7578L48.4053 90.1268L49.5994 92.4086L45.5394 94.9186L38.8526 94.234L35.5091 93.3213L26.9117 90.1268L22.6131 89.2142L16.4037 89.4423L9.47811 90.5832L7.3287 91.7241L5.89585 88.7578L8.52279 87.3887L9.00045 84.6507L8.04512 83.9661L9.95563 81.4562L9.71687 75.7519L8.76154 73.0137L9.95563 71.4165L9.23921 68.4503L10.1945 67.3094L12.8215 61.3769L13.5379 58.1824L12.5827 56.357L14.0156 55.4443L9.95563 47.9145L10.4333 46.7737L6.13461 41.0693L6.37337 37.6467L4.22411 33.0832L0.880607 30.117L0.164185 3.19238L21.1801 2.50788L50.3158 1.36701L67.5107 0.682373L69.8988 2.96412L68.4658 4.78963L68.2271 10.9502L69.6599 12.7757L69.8988 15.5137L74.4363 18.2518L71.0929 25.3253L70.6152 27.1507L69.1824 28.0633L67.033 31.0297L65.1225 31.7142L63.6895 34.9086L63.212 39.4721L61.0626 41.5257L62.0179 43.8074L61.0626 47.23L58.9131 47.4582L59.6297 49.5118L59.1521 51.109L60.5849 53.3908L58.6744 54.988L81.362 53.8472L104.766 52.478V53.8472L102.617 61.1486L104.05 64.115L107.154 66.853L108.587 70.9603L109.781 73.242L111.453 73.6982V73.6982Z" fill="white" stroke="black" stroke-width="1.4" stroke-linecap="round" stroke-linejoin="round" mask="url(#path-1-inside-1_101_461)"/>
</svg>
