<svg width="76" height="40" viewBox="0 0 76 40" fill="none" xmlns="http://www.w3.org/2000/svg">
<path d="M65.3118 37.7343L61.1909 38.9326L62.4278 36.5692L63.5374 36.039L65.3118 37.7343ZM49.1782 4.9132C49.1979 4.98112 49.2378 5.04145 49.2925 5.08627L50.9643 6.4554C51.0932 6.56103 51.2788 6.56103 51.4078 6.4554L52.7306 5.37201L53.3682 6.74258L49.7998 9.08644C49.6406 9.19103 49.5942 9.40377 49.6955 9.56511L50.2936 10.5175L48.5036 13.2967C48.4774 13.3373 48.46 13.3829 48.4523 13.4306L47.9746 16.3968C47.9583 16.4981 47.9873 16.6014 48.0538 16.6794C48.1203 16.7575 48.2176 16.8025 48.3202 16.8025H53.4519L57.5542 20.0688L58.246 23.5932C58.2647 23.6887 58.3223 23.772 58.4049 23.8233C58.4876 23.8745 58.5878 23.8891 58.6816 23.8635L60.089 23.4792L61.8661 26.6627C61.904 26.7305 61.9634 26.7839 62.0349 26.8142L64.1842 27.727C64.2205 27.7424 64.2593 27.7516 64.2987 27.7541L67.881 27.9822C67.9653 27.9876 68.0487 27.9623 68.1158 27.911L71.698 25.173C71.7267 25.1511 71.7519 25.1249 71.7725 25.0952L73.2985 22.9082L74.6228 26.5233L65.3834 30.275C65.3014 30.3083 65.235 30.3715 65.1977 30.4517L64.2813 32.4219L61.8991 34.1289L60.5987 29.3663C60.5625 29.2339 60.4524 29.1349 60.317 29.113C60.1815 29.091 60.0458 29.1503 59.9697 29.2644L58.3368 31.7162L56.0067 33.2746C55.9096 33.3396 55.8513 33.4487 55.8513 33.5656V35.2273L54.1435 36.655L52.8443 36.8323L51.5118 33.4377C51.4592 33.3037 51.33 33.2156 51.186 33.2156H50.0851L48.9759 32.5797L46.4415 31.0388L43.8594 25.6562C43.7859 25.5029 43.6128 25.4246 43.4492 25.4706L35.3438 27.7483L32.9703 28.2019L32.9702 28.2017L32.9579 28.2045L16.0059 32.0826L1.58084 35.0198L1.14817 34.7441L1.38078 16.9606L17.1101 13.3718L17.113 13.3711L40.0364 8.35189C40.1075 8.33633 40.172 8.29902 40.2208 8.24514L46.3542 1.48364L48.0749 1.11827L49.1782 4.9132Z" fill="white" stroke="black" stroke-width="0.7" stroke-linecap="round" stroke-linejoin="round"/>
</svg>
