<svg width="101" height="46" viewBox="0 0 101 46" fill="none" xmlns="http://www.w3.org/2000/svg">
<path d="M77.6495 2.49539C77.6508 2.50012 77.6521 2.50481 77.6535 2.50948L86.9675 32.8567C87.0207 33.03 87.1974 33.134 87.3748 33.0964L99.8303 30.4518L99.6187 35.7098L98.155 36.3091C98.0408 36.3558 97.9597 36.4592 97.9414 36.5812L97.4699 39.735L96.3527 42.5102L91.4945 44.0575C91.4067 44.0855 91.3334 44.147 91.2906 44.2287L90.9019 44.9715L86.2921 45.3719L86.9304 41.713C86.9482 41.6112 86.9201 41.5067 86.8536 41.4276C86.7871 41.3485 86.689 41.3028 86.5856 41.3028H84.3908L85.4397 39.7995C85.4943 39.7213 85.5146 39.6242 85.4959 39.5306C85.4772 39.4371 85.4211 39.3553 85.3407 39.304L83.9078 38.3914C83.806 38.3265 83.6779 38.3187 83.5689 38.3708L81.3113 39.4493L76.9883 37.9276L74.3401 35.1866L76.6392 29.6948C76.7136 29.5171 76.6305 29.3128 76.4532 29.2375L74.3039 28.3247C74.2607 28.3063 74.2141 28.2969 74.1671 28.2969H72.1638L72.336 26.487H74.1671C74.3234 26.487 74.4608 26.3834 74.5037 26.2331L75.2201 23.7231C75.267 23.5589 75.1885 23.3848 75.0344 23.3112L73.0726 22.374L74.4252 20.8971C74.4909 20.8254 74.5238 20.7296 74.516 20.6327L74.2771 17.6664C74.2632 17.4944 74.126 17.3581 73.9539 17.3455L71.2443 17.1462L72.1006 12.8514L74.6477 10.4178C74.7696 10.3013 74.7911 10.1144 74.6988 9.97319L73.5047 8.14768C73.4422 8.05209 73.3369 7.99303 73.2228 7.98945C73.1086 7.98587 72.9999 8.03822 72.9315 8.12971L70.5949 11.2551L66.3741 13.2716C66.2813 13.3159 66.2127 13.3987 66.1865 13.4981C66.1603 13.5975 66.1791 13.7034 66.2379 13.7877L67.0909 15.01L66.4332 16.8947C66.403 16.9813 66.408 17.0762 66.4471 17.1592L68.4693 21.4526L67.0441 22.4253C66.8974 22.5254 66.8489 22.7194 66.9313 22.8767L67.8198 24.5744L66.6681 28.3158C66.6332 28.4291 66.6581 28.5525 66.7342 28.6434L67.6417 29.7273L69.0542 34.6754C69.0713 34.7352 69.104 34.7894 69.149 34.8324L72.3641 37.9044L72.1483 39.5538C72.1378 39.6345 72.1557 39.7164 72.199 39.7854L73.6318 42.0671C73.6435 42.0857 73.657 42.1032 73.672 42.1194L75.194 43.7553L73.4616 44.2519L69.0293 42.6917C68.9744 42.6724 68.9156 42.667 68.8581 42.6762L66.0585 43.122L62.1839 42.2509L59.156 38.4679C59.0933 38.3895 58.9999 38.3418 58.8996 38.337C58.7993 38.3322 58.7018 38.3707 58.6318 38.4427L55.6781 41.4818L54.6304 41.148L53.9924 38.9137L54.8784 35.7394L56.1678 35.1234C56.2361 35.0908 56.2919 35.0369 56.327 34.9699L57.5211 32.6881C57.5521 32.6289 57.5655 32.5621 57.5597 32.4955L57.3313 29.8766L59.177 27.011C59.228 26.9319 59.2449 26.8356 59.224 26.7438C59.2031 26.652 59.1462 26.5725 59.066 26.5233L55.7226 24.4696C55.5647 24.3726 55.3585 24.4156 55.2524 24.5676L53.971 26.4039L51.6822 25.6086L50.5492 24.3097C50.4882 24.2397 50.4019 24.1969 50.3092 24.1906L47.0423 23.9675L45.605 23.1829L45.3804 20.1783C45.3715 20.0584 45.3016 19.9516 45.1955 19.8952L43.0461 18.7544C42.9955 18.7275 42.9392 18.7135 42.882 18.7135H39.2672L37.2177 15.0149C37.1719 14.9323 37.0948 14.8717 37.0037 14.8469L35.5038 14.4375L34.6117 12.0938C34.5782 12.0056 34.5104 11.9347 34.4239 11.8972C34.3373 11.8596 34.2393 11.8586 34.152 11.8944L32.6193 12.5219L28.7564 10.7851L41.5173 8.22633L41.518 8.2262L65.6378 3.4346L65.6416 3.4338L77.2563 0.992502L77.6495 2.49539ZM26.5713 11.3715L25.6867 13.0617L22.4904 13.9343C22.3499 13.9726 22.2479 14.0938 22.2341 14.2388L22.0197 16.4928L20.1783 16.8837L16.5855 16.4546L15.7184 15.0049C15.6539 14.897 15.5365 14.832 15.4109 14.8346C15.2853 14.8371 15.1707 14.9068 15.1106 15.0172L12.1308 20.4923L10.2368 20.0903C10.0993 20.0611 9.9576 20.117 9.87713 20.2323L7.98242 22.9475L2.75712 28.3561L0.772363 15.9251L22.1665 12.1064L22.1665 12.1065L22.1738 12.1051L27.0172 11.1339L26.7892 11.1961C26.6953 11.2218 26.6164 11.2853 26.5713 11.3715Z" fill="white" stroke="black" stroke-width="0.7" stroke-linecap="round" stroke-linejoin="round"/>
</svg>
