<svg width="83" height="124" viewBox="0 0 83 124" fill="none" xmlns="http://www.w3.org/2000/svg">
<path d="M59.7418 79.8661L59.3147 79.3221L59.7521 75.9792L60.8545 75.277L62.9283 76.6639L63.1018 77.659L59.7418 79.8661ZM58.121 40.1765C58.121 40.3289 58.2196 40.4638 58.3648 40.51L62.6635 41.8791C62.7305 41.9004 62.8024 41.9011 62.8699 41.881L66.4144 40.8226L67.1374 42.2041L66.3037 43.3989C66.2089 43.5347 66.2223 43.7185 66.336 43.8391L68.3901 46.0198V48.8471C68.3901 48.9628 68.4473 49.071 68.5428 49.1362L71.8862 51.418C72.0227 51.5111 72.2058 51.4961 72.3253 51.3819L73.8751 49.9013L75.2296 50.0862L79.2018 55.6672C79.2178 55.6898 79.2365 55.7103 79.2574 55.7285L81.6755 57.8288L78.7846 63.3528L77.0572 63.5591C76.9545 63.5714 76.8625 63.6285 76.8058 63.7151L75.7254 65.3667L73.0666 65.155C72.9635 65.1468 72.862 65.1846 72.7894 65.2583C72.7169 65.332 72.6806 65.4341 72.6904 65.5371L72.8978 67.7172L68.6879 68.3523C68.5303 68.376 68.4086 68.5034 68.392 68.6619L67.9278 73.0976L66.1922 74.7558L64.8992 74.9323L64.0477 72.8985C63.9824 72.7424 63.8148 72.6554 63.6495 72.6919L60.5449 73.3764C60.4917 73.3882 60.442 73.4122 60.3997 73.4465L55.6233 77.3255C55.4903 77.4335 55.4551 77.6219 55.54 77.7707L56.7415 79.8751L55.3401 80.2099L52.9232 79.9998L50.3901 76.6995C50.3296 76.6207 50.2384 76.5713 50.1393 76.5637C50.0402 76.5561 49.9425 76.5909 49.8707 76.6596L47.2436 79.1695C47.1069 79.3001 47.0986 79.5156 47.2248 79.6563L48.5268 81.1075L48.1054 82.5167C48.0967 82.5455 48.0919 82.5754 48.0909 82.6055L47.8534 89.864L47.1806 92.2209L46.2611 92.9237L43.5958 91.4382C43.4617 91.3635 43.2946 91.3848 43.1836 91.4909L42.2285 92.4036C42.1593 92.4697 42.1203 92.5611 42.1203 92.6567V95.3223L40.4576 94.6163C40.3183 94.5571 40.1566 94.5942 40.0571 94.7084L38.863 96.0774C38.8292 96.1161 38.8043 96.1619 38.7902 96.2114L37.4425 100.933L36.3848 100.764L33.1008 98.7473C32.9528 98.6564 32.7607 98.6877 32.6492 98.8208L30.7387 101.103C30.7205 101.124 30.705 101.148 30.6926 101.174L29.0208 104.596C28.972 104.696 28.9736 104.814 29.0252 104.912L30.5538 107.833L28.1803 109.482C28.0719 109.558 28.0151 109.687 28.0333 109.818L28.4878 113.075L26.4535 115.234C26.4037 115.287 26.3716 115.354 26.3616 115.426L25.4307 122.097L24.1102 122.818L22.2437 121.431L21.7953 119.502C21.7763 119.42 21.7286 119.348 21.6608 119.299L17.7095 116.412L16.7817 111.98C16.7784 111.964 16.7741 111.949 16.7687 111.934L1.10551 68.1718L3.15862 66.9948H5.45359C5.56501 66.9948 5.66978 66.9417 5.73572 66.8519C5.80166 66.7621 5.8209 66.6463 5.78752 66.5399L5.12121 64.4178L6.70008 62.0471C6.74412 61.981 6.76435 61.9019 6.75745 61.8227L6.52696 59.1794L7.65842 56.8012L10.4905 53.6443C10.588 53.5356 10.6078 53.3778 10.54 53.2483L9.90377 52.0325L11.7414 48.0821C11.801 47.9538 11.7776 47.8023 11.6821 47.6981L10.0689 45.9366L9.64021 44.2982L10.3215 42.3454C10.3598 42.2355 10.341 42.1137 10.2713 42.0205L9.16658 40.5428L9.84735 36.424L11.2428 34.2019C11.2858 34.1334 11.3038 34.052 11.2936 33.9717L10.3483 26.5214L17.9376 3.86184L18.4798 3.34379L21.4273 3.54489L22.3131 6.50699C22.3405 6.59867 22.4043 6.67512 22.4896 6.71856L26.0718 8.54393C26.1983 8.6084 26.3512 8.59004 26.4589 8.49746L28.8118 6.47427L30.6803 5.58165C30.7289 5.55844 30.7715 5.52431 30.8047 5.48195L32.1711 3.74122L34.9343 2.86121C35.0321 2.83007 35.1113 2.75756 35.1509 2.66289L36.0056 0.62153L37.8453 0.816847L43.2458 3.06029L47.4275 6.38964L56.9465 33.4466L56.9468 33.4474L58.121 36.8132V38.5793V40.1765Z" fill="white" stroke="black" stroke-width="0.7" stroke-linecap="round" stroke-linejoin="round"/>
</svg>
