<svg width="168" height="169" viewBox="0 0 168 169" fill="none" xmlns="http://www.w3.org/2000/svg">
<mask id="path-1-inside-1_101_488" fill="white">
<path d="M96.4999 63.5081L94.8282 63.2798L95.5448 59.6291L97.4553 62.5953L96.4999 63.5081V63.5081ZM167.667 123.974L167.19 129.45L167.429 134.014L166.235 136.068L165.04 136.752L164.802 133.786L163.13 133.101L161.219 135.155L160.503 137.208L160.742 141.544L157.876 143.597L157.398 144.51L157.16 144.738L156.443 145.651L156.204 146.564L155.488 153.181L154.532 153.637L152.144 158.429L151.428 160.71L134.472 163.677L123.964 165.046V163.449L93.6341 166.871L81.9321 168.012L84.3203 165.958L86.2308 162.764L88.1413 157.516L90.0518 153.865L91.4848 147.933L91.9625 141.544L91.0072 134.927L89.5743 131.276L83.6039 120.095L82.6486 118.042L82.8873 115.988L84.3203 113.478L83.6039 108.915L81.9321 105.72L83.8427 103.439L85.9921 97.506V92.0299L85.0367 89.2918L85.7532 88.1509L88.1413 87.4664L88.3802 82.6747L90.7684 80.8493L92.44 81.5338L93.873 78.3394L96.7388 75.8294L97.4553 77.8831L96.4999 83.5874L97.9329 84.2719L98.6493 79.4803L100.799 81.0776L101.276 76.5141L100.321 73.0915L101.276 70.5814L104.381 68.7561L106.769 68.2997L107.008 66.7025L105.097 64.649L105.336 61.6827L107.486 58.7163L110.59 56.6629L117.277 59.1727L119.904 58.9446L121.815 59.401L124.919 62.8236L127.785 62.5953L129.934 63.7362L133.517 64.8771L136.86 65.1053L139.487 66.9307L139.248 68.0716L141.159 69.897L141.875 71.4942L139.248 72.6351L139.009 74.6886L141.875 76.9703L143.547 81.9902L143.308 84.0438L144.025 89.7482L143.786 92.0299L140.442 94.0834L139.965 99.5596L138.293 101.385L135.666 101.841L134.233 105.264L134.472 109.371L135.188 110.512L139.965 111.881L142.353 108.459L143.547 108.915L144.98 104.58L146.89 101.157L150.234 99.5596L153.338 97.7343L155.727 98.4188L158.592 100.929L160.025 103.667L162.414 110.968L163.369 113.022L164.563 117.357L166.235 121.921L167.667 123.974V123.974ZM133.039 46.395L134.95 48.2204L133.517 50.274L128.263 49.8176L130.651 47.5359L130.412 45.7105L133.039 46.395V46.395ZM113.695 38.4089L114.889 36.8116H117.277L119.188 35.4426L120.859 35.6708L120.143 38.4089L121.576 40.4624H119.188L120.143 43.2005L119.188 44.3414L123.725 45.4822L123.486 47.0795L126.83 49.5894L124.68 50.5021L116.083 50.0457L112.023 49.5894L111.068 52.3275L111.307 55.0656L109.396 54.6092L105.097 51.1866L98.6493 49.5894L94.8282 50.274L92.9177 53.6966L84.798 54.8375L81.4545 55.522L79.544 59.8572L76.9169 61.2263L75.2453 64.4207L73.5735 63.9645L74.7676 60.77L72.3795 58.9446L70.4689 62.8236L68.0808 63.7362L67.8419 61.4545L66.409 60.77L65.9314 63.9645L64.4985 64.8771L62.8268 68.528L61.8714 71.7223L58.2892 78.3394L57.5728 80.6212L54.9458 78.7958V77.1986L55.901 74.0041H51.3636L52.5577 71.0378L52.3188 65.5616L49.9306 63.7362L46.826 63.2798L45.6319 59.8572L44.1991 58.9446L37.0345 57.8037L35.1239 58.2601L31.3029 58.0318L25.5712 55.2937L5.98831 51.4149L3.60014 47.0795L0.256642 46.1667L0.0178833 45.2541L7.1824 41.8315L11.2422 37.9525L18.8844 36.5835L21.9889 34.5299L23.6607 32.4763L26.7653 31.7918L27.9594 29.2819L31.5416 25.8593L32.7357 27.9128L34.6464 28.3692L36.7956 32.02L36.318 35.6708L38.2286 35.4426L40.8556 32.7045L49.2142 33.1609L52.5577 34.9863L53.5128 36.5835L58.7668 42.7441L61.155 42.9724L64.0209 41.6033L65.9314 41.3751L67.8419 43.4288L70.23 42.0596L72.8571 43.4288L75.2453 40.2343L79.0663 37.9525L81.4545 35.8989L82.4098 36.1271L86.7085 34.758H93.3953L99.127 31.5637L102.232 31.3354L102.948 32.4763L102.709 37.7244L107.247 39.0934L110.59 37.7244L112.501 39.5498L113.695 38.4089V38.4089ZM49.2142 19.0141L46.1096 19.9267L40.1391 26.3156L37.0345 31.7918L35.1239 28.141L32.9746 27.6847V25.4029L36.0792 21.5239L40.1391 19.2422L43.005 18.1013L47.3037 17.645L49.2142 19.0141V19.0141ZM32.7357 0.303711L31.5416 3.26995L29.87 4.8672L25.0937 7.14895L24.8548 8.51801L21.7502 10.3434L20.0784 8.28982L21.7502 6.69257L27.0042 3.72633L30.5865 1.2164L32.7357 0.303711V0.303711Z"/>
</mask>
<path d="M96.4999 63.5081L94.8282 63.2798L95.5448 59.6291L97.4553 62.5953L96.4999 63.5081V63.5081ZM167.667 123.974L167.19 129.45L167.429 134.014L166.235 136.068L165.04 136.752L164.802 133.786L163.13 133.101L161.219 135.155L160.503 137.208L160.742 141.544L157.876 143.597L157.398 144.51L157.16 144.738L156.443 145.651L156.204 146.564L155.488 153.181L154.532 153.637L152.144 158.429L151.428 160.71L134.472 163.677L123.964 165.046V163.449L93.6341 166.871L81.9321 168.012L84.3203 165.958L86.2308 162.764L88.1413 157.516L90.0518 153.865L91.4848 147.933L91.9625 141.544L91.0072 134.927L89.5743 131.276L83.6039 120.095L82.6486 118.042L82.8873 115.988L84.3203 113.478L83.6039 108.915L81.9321 105.72L83.8427 103.439L85.9921 97.506V92.0299L85.0367 89.2918L85.7532 88.1509L88.1413 87.4664L88.3802 82.6747L90.7684 80.8493L92.44 81.5338L93.873 78.3394L96.7388 75.8294L97.4553 77.8831L96.4999 83.5874L97.9329 84.2719L98.6493 79.4803L100.799 81.0776L101.276 76.5141L100.321 73.0915L101.276 70.5814L104.381 68.7561L106.769 68.2997L107.008 66.7025L105.097 64.649L105.336 61.6827L107.486 58.7163L110.59 56.6629L117.277 59.1727L119.904 58.9446L121.815 59.401L124.919 62.8236L127.785 62.5953L129.934 63.7362L133.517 64.8771L136.86 65.1053L139.487 66.9307L139.248 68.0716L141.159 69.897L141.875 71.4942L139.248 72.6351L139.009 74.6886L141.875 76.9703L143.547 81.9902L143.308 84.0438L144.025 89.7482L143.786 92.0299L140.442 94.0834L139.965 99.5596L138.293 101.385L135.666 101.841L134.233 105.264L134.472 109.371L135.188 110.512L139.965 111.881L142.353 108.459L143.547 108.915L144.98 104.58L146.89 101.157L150.234 99.5596L153.338 97.7343L155.727 98.4188L158.592 100.929L160.025 103.667L162.414 110.968L163.369 113.022L164.563 117.357L166.235 121.921L167.667 123.974V123.974ZM133.039 46.395L134.95 48.2204L133.517 50.274L128.263 49.8176L130.651 47.5359L130.412 45.7105L133.039 46.395V46.395ZM113.695 38.4089L114.889 36.8116H117.277L119.188 35.4426L120.859 35.6708L120.143 38.4089L121.576 40.4624H119.188L120.143 43.2005L119.188 44.3414L123.725 45.4822L123.486 47.0795L126.83 49.5894L124.68 50.5021L116.083 50.0457L112.023 49.5894L111.068 52.3275L111.307 55.0656L109.396 54.6092L105.097 51.1866L98.6493 49.5894L94.8282 50.274L92.9177 53.6966L84.798 54.8375L81.4545 55.522L79.544 59.8572L76.9169 61.2263L75.2453 64.4207L73.5735 63.9645L74.7676 60.77L72.3795 58.9446L70.4689 62.8236L68.0808 63.7362L67.8419 61.4545L66.409 60.77L65.9314 63.9645L64.4985 64.8771L62.8268 68.528L61.8714 71.7223L58.2892 78.3394L57.5728 80.6212L54.9458 78.7958V77.1986L55.901 74.0041H51.3636L52.5577 71.0378L52.3188 65.5616L49.9306 63.7362L46.826 63.2798L45.6319 59.8572L44.1991 58.9446L37.0345 57.8037L35.1239 58.2601L31.3029 58.0318L25.5712 55.2937L5.98831 51.4149L3.60014 47.0795L0.256642 46.1667L0.0178833 45.2541L7.1824 41.8315L11.2422 37.9525L18.8844 36.5835L21.9889 34.5299L23.6607 32.4763L26.7653 31.7918L27.9594 29.2819L31.5416 25.8593L32.7357 27.9128L34.6464 28.3692L36.7956 32.02L36.318 35.6708L38.2286 35.4426L40.8556 32.7045L49.2142 33.1609L52.5577 34.9863L53.5128 36.5835L58.7668 42.7441L61.155 42.9724L64.0209 41.6033L65.9314 41.3751L67.8419 43.4288L70.23 42.0596L72.8571 43.4288L75.2453 40.2343L79.0663 37.9525L81.4545 35.8989L82.4098 36.1271L86.7085 34.758H93.3953L99.127 31.5637L102.232 31.3354L102.948 32.4763L102.709 37.7244L107.247 39.0934L110.59 37.7244L112.501 39.5498L113.695 38.4089V38.4089ZM49.2142 19.0141L46.1096 19.9267L40.1391 26.3156L37.0345 31.7918L35.1239 28.141L32.9746 27.6847V25.4029L36.0792 21.5239L40.1391 19.2422L43.005 18.1013L47.3037 17.645L49.2142 19.0141V19.0141ZM32.7357 0.303711L31.5416 3.26995L29.87 4.8672L25.0937 7.14895L24.8548 8.51801L21.7502 10.3434L20.0784 8.28982L21.7502 6.69257L27.0042 3.72633L30.5865 1.2164L32.7357 0.303711V0.303711Z" fill="white" stroke="black" stroke-width="1.4" stroke-linecap="round" stroke-linejoin="round" mask="url(#path-1-inside-1_101_488)"/>
</svg>
