<svg width="144" height="158" viewBox="0 0 144 158" fill="none" xmlns="http://www.w3.org/2000/svg">
<mask id="path-1-inside-1_101_440" fill="white">
<path d="M143.914 33.4645L134.839 39.1689L126.719 42.3633L121.943 45.1013L117.883 48.7522L109.047 59.0201L103.793 63.8117L98.2999 68.1471L98.061 69.0597L96.1505 71.5697L94.7176 72.0259L95.1953 87.5419L94.0012 89.139L87.5531 92.3335L85.8813 95.9843L84.2096 97.8098V101.46L86.8367 101.917L88.7472 104.883L87.0754 108.762L86.359 114.695L87.3142 118.802L86.359 123.137L91.1354 127.016L94.9564 127.701L97.5834 130.667L100.927 131.351L104.031 133.861L106.658 137.74L110.241 140.478L112.629 140.707L115.017 141.619L117.644 144.357L118.838 148.236L119.316 155.31L106.181 155.994L86.359 156.679L66.776 157.363L46.9542 157.591L27.3711 157.82H14.2362L14.475 109.903L12.3257 107.393L9.93752 106.937L6.35527 101.689L6.83293 100.548L10.8927 97.3534L12.5645 92.5616V88.2264L11.6093 82.522L9.69862 79.5558L8.74344 74.9923L8.02702 73.8514L8.26577 67.6907L7.54935 64.2681L7.07169 57.4228V51.2621L6.35527 46.0141L4.68352 42.3633L2.05659 32.7799L2.29535 25.9347L1.81768 22.9685L2.77301 19.774L0.623596 11.3315V10.647L26.4158 10.8752L38.5956 10.647L38.8343 10.1907V0.6073L42.1778 0.835488L45.0437 2.66093L45.2824 5.85536L47.1929 12.7006V15.6668L49.5811 17.7204L51.7305 18.405L54.8351 17.9486L56.268 19.5458L62.955 20.0021L65.1042 23.1966L70.1195 22.2839L70.8359 20.6867L74.4182 19.774L79.6722 20.0021L81.3438 20.9149L85.8813 22.0558L84.926 24.5656L88.2695 24.3375L91.1354 30.0419L92.5682 27.7601L95.1953 26.6193L97.3445 27.0756L99.0163 29.8137L102.837 30.7264L104.27 33.0081L106.42 34.3772H109.285L112.151 33.4645L115.733 30.4982L118.36 28.901H120.032L121.226 32.0954L126.003 32.3236L132.689 30.9546L134.6 31.4109L136.511 33.6926L137.943 34.149L139.854 33.2363L143.914 33.4645V33.4645Z"/>
</mask>
<path d="M143.914 33.4645L134.839 39.1689L126.719 42.3633L121.943 45.1013L117.883 48.7522L109.047 59.0201L103.793 63.8117L98.2999 68.1471L98.061 69.0597L96.1505 71.5697L94.7176 72.0259L95.1953 87.5419L94.0012 89.139L87.5531 92.3335L85.8813 95.9843L84.2096 97.8098V101.46L86.8367 101.917L88.7472 104.883L87.0754 108.762L86.359 114.695L87.3142 118.802L86.359 123.137L91.1354 127.016L94.9564 127.701L97.5834 130.667L100.927 131.351L104.031 133.861L106.658 137.74L110.241 140.478L112.629 140.707L115.017 141.619L117.644 144.357L118.838 148.236L119.316 155.31L106.181 155.994L86.359 156.679L66.776 157.363L46.9542 157.591L27.3711 157.82H14.2362L14.475 109.903L12.3257 107.393L9.93752 106.937L6.35527 101.689L6.83293 100.548L10.8927 97.3534L12.5645 92.5616V88.2264L11.6093 82.522L9.69862 79.5558L8.74344 74.9923L8.02702 73.8514L8.26577 67.6907L7.54935 64.2681L7.07169 57.4228V51.2621L6.35527 46.0141L4.68352 42.3633L2.05659 32.7799L2.29535 25.9347L1.81768 22.9685L2.77301 19.774L0.623596 11.3315V10.647L26.4158 10.8752L38.5956 10.647L38.8343 10.1907V0.6073L42.1778 0.835488L45.0437 2.66093L45.2824 5.85536L47.1929 12.7006V15.6668L49.5811 17.7204L51.7305 18.405L54.8351 17.9486L56.268 19.5458L62.955 20.0021L65.1042 23.1966L70.1195 22.2839L70.8359 20.6867L74.4182 19.774L79.6722 20.0021L81.3438 20.9149L85.8813 22.0558L84.926 24.5656L88.2695 24.3375L91.1354 30.0419L92.5682 27.7601L95.1953 26.6193L97.3445 27.0756L99.0163 29.8137L102.837 30.7264L104.27 33.0081L106.42 34.3772H109.285L112.151 33.4645L115.733 30.4982L118.36 28.901H120.032L121.226 32.0954L126.003 32.3236L132.689 30.9546L134.6 31.4109L136.511 33.6926L137.943 34.149L139.854 33.2363L143.914 33.4645V33.4645Z" fill="white" stroke="black" stroke-width="1.4" stroke-linecap="round" stroke-linejoin="round" mask="url(#path-1-inside-1_101_440)"/>
</svg>
