<svg width="148" height="122" viewBox="0 0 148 122" fill="none" xmlns="http://www.w3.org/2000/svg">
<path d="M90.3065 7.99899C90.2735 8.04945 90.2541 8.10757 90.2502 8.16774L90.0113 11.8186C90.0095 11.8453 90.0108 11.8721 90.0152 11.8985L90.7318 16.2338C90.7409 16.2891 90.7632 16.3414 90.7968 16.3863L91.9212 17.8903V20.0557C91.9212 20.1122 91.9349 20.1679 91.9611 20.218L94.1103 24.3251C94.1343 24.3709 94.1681 24.4108 94.2093 24.442L99.8849 28.7349L101.044 30.7276C101.073 30.7781 101.114 30.8204 101.164 30.8507L106.353 34.0053L108.418 37.0753L109.36 42.2513C109.372 42.3143 109.4 42.3728 109.443 42.4207L112.07 45.387C112.194 45.5271 112.406 45.5448 112.552 45.4271L115.501 43.0429L120.755 45.0069L121.909 45.9264L120.625 48.1759C120.59 48.2377 120.574 48.3089 120.581 48.3798L120.81 51.0158L119.425 53.6632C119.417 53.6795 119.409 53.6965 119.403 53.7139L117.254 60.1028C117.228 60.1796 117.23 60.2631 117.259 60.3389L118.214 62.8489C118.234 62.9025 118.268 62.9504 118.311 62.9881L123.804 67.7797C123.84 67.8112 123.882 67.8349 123.928 67.8495L128.187 69.2061L132.626 71.8844L134.494 74.5615C134.538 74.6246 134.601 74.6714 134.674 74.6947L136.626 75.3164L137.303 78.764C137.311 78.8036 137.325 78.8416 137.346 78.8762L139.207 81.9876V83.8656L138.047 86.3041C137.991 86.4214 138.005 86.56 138.083 86.664L142.859 93.053C142.959 93.1868 143.139 93.2312 143.29 93.1593L145.037 92.3245L147.536 93.717L147.091 96.9022C147.086 96.9367 147.087 96.9718 147.092 97.0062L147.557 99.8887L146.416 103.375L145.727 104.033L143.573 102.592C143.481 102.531 143.365 102.516 143.261 102.553C143.157 102.59 143.076 102.674 143.043 102.78L141.925 106.412H140.512H139.079C138.969 106.412 138.865 106.464 138.799 106.553C138.733 106.642 138.712 106.756 138.744 106.862L139.629 109.822L137.676 111.273C137.528 111.383 137.491 111.59 137.592 111.745L138.5 113.133L136.625 113.492C136.506 113.514 136.408 113.597 136.364 113.71C136.321 113.823 136.339 113.951 136.413 114.047L138.134 116.308L137.166 117.233C137.124 117.273 137.092 117.324 137.074 117.379L136.191 120.122L122.334 121.207L122.686 119.693L125.25 116.352L128.336 113.404C128.405 113.338 128.444 113.246 128.444 113.151V111.097C128.444 111.026 128.422 110.956 128.381 110.897L125.993 107.475C125.923 107.375 125.807 107.318 125.685 107.325L105.866 108.466L105.864 108.466L87.4818 109.379L87.4775 109.379L62.8867 110.291L62.8836 110.291L38.5309 110.976L38.5275 110.976L26.4688 111.197L26.4688 98.3196L26.4687 98.3136L25.5134 41.9545C25.5113 41.8293 25.4424 41.7147 25.3329 41.6541L20.8915 39.1974L19.0293 35.4169C19.0141 35.386 18.9944 35.3575 18.9708 35.3323L15.0558 31.1516L16.1614 27.9825L19.4702 23.6921C19.5834 23.5453 19.5625 23.3356 19.4225 23.2141L16.7956 20.9323C16.6682 20.8217 16.4801 20.8177 16.3481 20.9228L15.0796 21.9326L12.7028 20.9004L10.121 18.4336C10.0978 18.4115 10.0717 18.3926 10.0433 18.3776L8.10834 17.3505L8.31562 15.7657C8.32772 15.6732 8.30236 15.5796 8.24518 15.5059L3.50733 9.39493L2.09331 4.89138C2.08263 4.85737 2.06682 4.82519 2.04642 4.79596L1.00548 3.30403L27.5457 3.74893L27.56 3.74888L37.1127 3.52062V3.52071L37.1206 3.52034L46.9081 3.0643L56.6955 2.83613C56.7005 2.83602 56.7055 2.83579 56.7105 2.83546L80.8309 1.23821L80.831 1.23842L80.8428 1.23722L85.1836 0.800777L86.2592 2.23943C86.2759 2.26178 86.2952 2.28205 86.3167 2.29981L91.3291 6.43579L90.3065 7.99899Z" fill="white" stroke="black" stroke-width="0.7" stroke-linecap="round" stroke-linejoin="round"/>
</svg>
