<svg width="81" height="131" viewBox="0 0 81 131" fill="none" xmlns="http://www.w3.org/2000/svg">
<path d="M23.3416 110.498L1.70104 111.586L2.80944 110.659C2.94371 110.547 2.97442 110.353 2.88135 110.205L1.53289 108.057L1.96509 106.612C1.9862 106.542 1.9845 106.466 1.96023 106.397L1.38908 104.76L3.09955 104.578C3.24219 104.563 3.36116 104.462 3.39972 104.324L4.35505 100.902C4.37622 100.826 4.3712 100.745 4.34078 100.672L3.4784 98.6125L5.45381 96.7251C5.51381 96.6678 5.55149 96.591 5.56012 96.5085L6.03181 92.0007L7.38087 88.9935L9.15109 88.3592C9.21746 88.3354 9.27509 88.2922 9.31646 88.2351L11.4267 85.3227L12.8033 84.4459C12.8778 84.3985 12.9316 84.3247 12.9539 84.2393L13.4233 82.4455L16.7527 75.4014C16.8295 75.2391 16.7709 75.045 16.6171 74.9522L12.2321 72.306L12.0086 69.7453C12.0027 69.6776 11.9773 69.6131 11.9353 69.5597L10.5818 67.8353L10.8112 61.9166L12.1742 60.1803C12.2854 60.0386 12.2709 59.8355 12.1407 59.7111L9.8607 57.5327V55.1174L10.9173 54.3097C11.0113 54.2379 11.0626 54.1235 11.0538 54.0056L10.8149 50.8111C10.8072 50.7077 10.754 50.6131 10.6697 50.5527L9.04954 49.3917L10.0298 48.0805C10.075 48.02 10.0995 47.9465 10.0995 47.8709V45.1328C10.0995 45.0132 10.0384 44.9019 9.93749 44.8376L8.04065 43.6294L9.1151 41.1656C9.15747 41.0684 9.15353 40.9573 9.10438 40.8634L8.2712 39.2714L11.1853 36.4871C11.2479 36.4273 11.2861 36.3465 11.2926 36.2602L11.5315 33.0657C11.5378 32.9814 11.5134 32.8977 11.4628 32.83L10.5523 31.6121L13.9274 30.4028C14.0322 30.3653 14.1128 30.2802 14.1447 30.1736L14.6224 28.5764C14.6601 28.4504 14.6239 28.3139 14.5288 28.223L13.1623 26.9174L14.7297 25.7943C14.7786 25.7593 14.8177 25.7121 14.8432 25.6575L15.7648 23.6763L20.718 19.6199C20.7934 19.5582 20.8396 19.4678 20.8456 19.3706L21.0845 15.4916C21.0876 15.4407 21.0796 15.3897 21.0609 15.3422L20.3918 13.6376L21.2467 11.187L23.2295 10.5556C23.3909 10.5042 23.4923 10.3446 23.4704 10.1767L23.2673 8.62511L25.3975 7.81094C25.4484 7.79151 25.4939 7.76051 25.5307 7.72039L27.2024 5.89502C27.2894 5.80004 27.3172 5.66495 27.2748 5.54334L26.7111 3.92775L49.891 2.58547L49.8966 2.58505L74.3297 0.771947L76.5031 3.0561L75.3132 43.7536L75.3132 43.7554L74.3579 83.4578C74.3577 83.466 74.3578 83.4742 74.3581 83.4824C74.3586 83.493 74.3596 83.5035 74.361 83.5139L79.8314 123.282L78.4058 124.838L76.4522 124.423C76.4222 124.417 76.3916 124.415 76.361 124.416L72.1703 124.639L69.6356 123.098C69.6019 123.077 69.565 123.063 69.5265 123.054L67.3772 122.598C67.2641 122.574 67.1463 122.607 67.0627 122.687L65.2045 124.463L57.8692 127.176C57.8545 127.181 57.8403 127.187 57.8265 127.195L55.6771 128.336C55.5877 128.383 55.5232 128.467 55.5002 128.566L55.0857 130.348H53.4999L52.0207 129.945L50.9093 127.821L49.4848 123.738C49.465 123.681 49.4309 123.63 49.3858 123.591L46.3342 120.899L44.9907 118.118L47.1019 110.946C47.1113 110.914 47.1161 110.881 47.1161 110.847V109.478C47.1161 109.382 47.0764 109.29 47.0063 109.223C46.9362 109.157 46.8419 109.123 46.7457 109.129L23.3445 110.498L23.3416 110.498Z" fill="white" stroke="black" stroke-width="0.7" stroke-linecap="round" stroke-linejoin="round"/>
</svg>
