<svg width="226" height="141" viewBox="0 0 226 141" fill="none" xmlns="http://www.w3.org/2000/svg">
<path d="M217.776 114.913L217.776 114.915L215.654 139.694H215.511L200.967 138.555L200.957 138.554L181.623 136.501L181.623 136.501L153.927 133.536L153.92 133.535L141.271 131.939L141.27 131.939L113.573 128.289L113.569 128.288L94.4725 125.551L94.4671 125.551L78.7106 123.042C78.5225 123.012 78.345 123.138 78.3112 123.325L76.0573 135.815L73.9547 133.258L72.7809 129.445C72.7387 129.308 72.6172 129.21 72.4742 129.199L69.6084 128.971C69.4576 128.959 69.3161 129.045 69.2577 129.185L67.4735 133.446L64.4396 132.411C64.3747 132.389 64.3047 132.386 64.2383 132.404L61.8003 133.039L60.7473 132.033C60.6869 131.975 60.6077 131.941 60.5241 131.936L56.2827 131.711L53.4705 130.592C53.3999 130.564 53.3221 130.559 53.2489 130.579L51.5771 131.036C51.5019 131.056 51.4357 131.101 51.389 131.164L50.3477 132.556L44.6186 130.586C44.5318 130.556 44.4367 130.562 44.3539 130.601L41.102 132.155L39.426 131.954L38.4067 130.786V125.897C38.4067 125.851 38.3975 125.805 38.3795 125.762L36.469 121.198C36.4184 121.078 36.3046 120.995 36.174 120.985L33.5008 120.772L31.5432 117.031L32.6053 115.611C32.6691 115.525 32.6906 115.416 32.6636 115.312L31.7084 111.662C31.7018 111.636 31.6922 111.611 31.6799 111.588L28.854 106.188V98.7442C28.854 98.6672 28.8286 98.5923 28.7817 98.5311L26.1547 95.1085C26.0372 94.9554 25.8179 94.9263 25.6645 95.0435L22.1328 97.743L17.8886 99.0236L16.1252 96.7069C16.0874 96.6572 16.0371 96.6186 15.9793 96.595L14.6633 96.0561L16.1568 93.2021C16.1999 93.1198 16.2085 93.0237 16.1807 92.935L15.547 90.9169L19.1308 88.7769C19.2365 88.7137 19.3013 88.5996 19.3013 88.4764V85.9665C19.3013 85.9155 19.2902 85.8651 19.2687 85.8189L18.3837 83.9166L19.9822 80.6439C20.0056 80.5961 20.0177 80.5436 20.0177 80.4903V78.5282L23.5553 72.219C23.5653 72.2012 23.5737 72.1825 23.5805 72.1631L24.5358 69.4251C24.5618 69.3504 24.5618 69.2691 24.5358 69.1945L24.0581 67.8254C24.0067 67.678 23.8639 67.5825 23.708 67.5913L19.9486 67.8026L19.5326 65.8155C19.5169 65.7401 19.4767 65.672 19.4183 65.6218L14.7829 61.6358L15.0003 59.7669C15.009 59.692 14.9933 59.6164 14.9556 59.5512L9.95973 50.9141L9.2549 48.6692C9.2302 48.5906 9.17853 48.5232 9.109 48.4789L6.33572 46.7123L5.4228 44.5317C5.39854 44.4738 5.35913 44.4234 5.30871 44.386L3.55368 43.0818L4.81958 42.2179C4.97496 42.1119 5.01873 41.902 4.91869 41.7427L3.67072 39.7555L4.81033 39.0295C4.92038 38.9594 4.9823 38.8339 4.97096 38.7039L4.73213 35.9659C4.72774 35.9155 4.71248 35.8667 4.68741 35.8228L3.28865 33.3727L3.05882 31.6156C3.05319 31.5725 3.03958 31.5308 3.01868 31.4927L0.456537 26.8193L6.55595 1.26762L21.9857 4.39474L21.9864 4.39488L42.0464 8.50185L42.0464 8.50192L42.0532 8.50318L61.875 12.154L61.8791 12.1547L85.7608 16.2618L85.7611 16.2619L101.762 19L101.762 19.0001L101.772 19.0016L116.339 21.0551L116.34 21.0551L134.012 23.565L134.013 23.5651L150.252 25.8469L150.256 25.8474L166.257 27.901L166.262 27.9016L186.562 30.1834L186.567 30.1839L202.806 31.7811L202.809 31.7814L225.148 33.8034L217.776 114.913Z" fill="white" stroke="black" stroke-width="0.7" stroke-linecap="round" stroke-linejoin="round"/>
</svg>
