<svg width="107" height="97" viewBox="0 0 107 97" fill="none" xmlns="http://www.w3.org/2000/svg">
<mask id="path-1-inside-1_101_435" fill="white">
<path d="M64.1736 92.0615L66.323 95.0278L64.1736 96.1687L62.9795 95.4841L63.2183 92.5179L64.1736 92.0615ZM77.3086 0.563477L76.8309 3.75798L74.4427 3.07341L74.6816 1.47623L77.3086 0.563477ZM103.817 45.0575L101.907 46.4266L100.952 50.3056L99.2798 49.621L98.8021 52.3591L95.4586 52.5873L94.5034 55.0973L94.0258 58.748L91.6376 59.4326L90.4435 61.9425L85.4284 66.506L82.3237 71.0695L76.5922 76.3175L73.4876 75.1766L72.0546 75.8611L71.8158 78.8274L67.9946 82.7063L66.323 81.3373L62.2631 85.2163H58.9196L57.4868 83.1627L55.5763 86.3571L53.4269 84.7599L51.7551 84.5318L50.0834 86.1289L46.74 83.8472V80.881L44.5906 78.5992L45.5459 77.2301L44.5906 75.4048L41.486 75.8611L36.4709 73.5793V71.754L35.2768 68.3314L25.7241 41.1786L21.4253 37.756L15.9325 35.4742L13.7833 35.246L12.8279 37.5278L9.9621 38.4405L8.52925 40.2659L6.61875 41.1786L4.23057 43.2321L0.648315 41.4068L5.42466 37.9842L8.76801 35.0179L10.6785 30.9107L7.81283 21.3274L12.5892 19.9583L11.8726 18.1329L20.9478 15.3948L21.4253 16.9921L26.9182 17.9048V16.5357L29.0675 16.0794L31.2169 14.254L33.3662 14.4821L33.1274 12.4286L34.5602 11.2877L36.7097 10.8313L42.2024 6.49603L44.8295 7.6369L50.7999 8.09328L53.6656 7.6369L55.5763 8.54959L57.7255 11.5159L59.1585 12.4286L61.7855 11.2877L63.2183 8.54959L65.3677 6.03972L68.4723 4.21428L69.4276 5.58334L72.2935 3.9861L75.6368 5.35516L74.6816 6.72422L73.4876 10.8313L74.6816 12.4286V17.9048L73.4876 18.8174L72.771 21.3274L69.9053 25.2064L78.9803 22.2401L80.4132 24.75L79.458 27.9444L81.3685 30.2262L84.9508 31.8234L85.9059 34.5615L89.2494 37.9842L89.7271 40.0377L92.8317 41.8631L97.608 40.2659L99.9962 41.4068L102.146 40.0377L106.444 39.8095L105.489 42.5477L102.623 43.4603L103.817 45.0575V45.0575Z"/>
</mask>
<path d="M64.1736 92.0615L66.323 95.0278L64.1736 96.1687L62.9795 95.4841L63.2183 92.5179L64.1736 92.0615ZM77.3086 0.563477L76.8309 3.75798L74.4427 3.07341L74.6816 1.47623L77.3086 0.563477ZM103.817 45.0575L101.907 46.4266L100.952 50.3056L99.2798 49.621L98.8021 52.3591L95.4586 52.5873L94.5034 55.0973L94.0258 58.748L91.6376 59.4326L90.4435 61.9425L85.4284 66.506L82.3237 71.0695L76.5922 76.3175L73.4876 75.1766L72.0546 75.8611L71.8158 78.8274L67.9946 82.7063L66.323 81.3373L62.2631 85.2163H58.9196L57.4868 83.1627L55.5763 86.3571L53.4269 84.7599L51.7551 84.5318L50.0834 86.1289L46.74 83.8472V80.881L44.5906 78.5992L45.5459 77.2301L44.5906 75.4048L41.486 75.8611L36.4709 73.5793V71.754L35.2768 68.3314L25.7241 41.1786L21.4253 37.756L15.9325 35.4742L13.7833 35.246L12.8279 37.5278L9.9621 38.4405L8.52925 40.2659L6.61875 41.1786L4.23057 43.2321L0.648315 41.4068L5.42466 37.9842L8.76801 35.0179L10.6785 30.9107L7.81283 21.3274L12.5892 19.9583L11.8726 18.1329L20.9478 15.3948L21.4253 16.9921L26.9182 17.9048V16.5357L29.0675 16.0794L31.2169 14.254L33.3662 14.4821L33.1274 12.4286L34.5602 11.2877L36.7097 10.8313L42.2024 6.49603L44.8295 7.6369L50.7999 8.09328L53.6656 7.6369L55.5763 8.54959L57.7255 11.5159L59.1585 12.4286L61.7855 11.2877L63.2183 8.54959L65.3677 6.03972L68.4723 4.21428L69.4276 5.58334L72.2935 3.9861L75.6368 5.35516L74.6816 6.72422L73.4876 10.8313L74.6816 12.4286V17.9048L73.4876 18.8174L72.771 21.3274L69.9053 25.2064L78.9803 22.2401L80.4132 24.75L79.458 27.9444L81.3685 30.2262L84.9508 31.8234L85.9059 34.5615L89.2494 37.9842L89.7271 40.0377L92.8317 41.8631L97.608 40.2659L99.9962 41.4068L102.146 40.0377L106.444 39.8095L105.489 42.5477L102.623 43.4603L103.817 45.0575V45.0575Z" fill="white" stroke="black" stroke-width="1.4" stroke-linecap="round" stroke-linejoin="round" mask="url(#path-1-inside-1_101_435)"/>
</svg>
