<svg width="190" height="82" viewBox="0 0 190 82" fill="none" xmlns="http://www.w3.org/2000/svg">
<mask id="path-1-inside-1_101_475" fill="white">
<path d="M178.078 0.636902L179.033 0.408783H179.511L180.228 0.180664L179.272 1.77777L178.078 0.636902ZM177.601 0.86516L178.556 2.91865L180.944 4.05952L183.81 9.99214H179.989L176.645 13.1865L172.108 14.5556L169.958 17.0655L166.137 16.6091L165.899 19.5755L169.72 19.1191L171.391 17.75L173.541 18.2064L177.362 15.9246L180.705 15.4683L180.466 18.8909L181.661 21.1726L183.332 21.8573L182.616 17.75L185.004 14.7838L188.825 17.9783L189.542 21.4009L189.303 23.6826L186.437 25.2799L182.138 32.5813L179.511 33.0377L175.451 32.3532L172.108 33.266L170.197 34.8631L174.735 35.0913L175.451 37.1448L171.869 39.1985L174.496 40.3393L170.675 44.6747L171.153 46.7282L173.541 44.2183L175.451 43.5338H179.511L180.705 45.1309L177.839 49.2382H176.168L174.735 51.0636L169.242 51.7481L162.794 55.3988L162.078 57.2243L156.346 61.7878L153.958 64.754L151.092 69.7739L150.614 72.2838L150.853 76.6192L148.465 78.9009L143.211 79.129L136.285 81.4108L118.374 69.7739L107.15 62.0159H105.956L81.5961 65.4385L80.641 62.0159L77.0587 58.5933L74.9093 60.1906L73.4764 57.9088L46.0125 60.6469L40.042 62.7004L36.2209 65.4385L34.788 65.6667L28.1012 68.633L0.875966 72.5119L0.637207 66.8075L1.35363 65.4385L5.17465 64.754L6.12997 63.6132L6.36873 60.1906L8.99581 57.4524L12.1004 55.6271L17.3544 54.9426L22.3695 50.1508L25.9518 47.8691L28.1012 47.641L29.7728 42.8492L31.2058 43.3056L31.9222 41.2521L34.788 39.4266L36.2209 41.4802L38.1314 40.5675L39.8031 37.6012L43.8631 35.3195L46.7289 36.4603L47.923 35.3195L49.3558 30.9842L52.9381 27.3334L53.177 24.139L53.8934 21.629L54.8486 22.0854L63.6848 21.4009L75.8646 19.5755L88.7606 17.9783L116.464 13.1865L136.763 9.30765L177.601 0.86516V0.86516Z"/>
</mask>
<path d="M178.078 0.636902L179.033 0.408783H179.511L180.228 0.180664L179.272 1.77777L178.078 0.636902ZM177.601 0.86516L178.556 2.91865L180.944 4.05952L183.81 9.99214H179.989L176.645 13.1865L172.108 14.5556L169.958 17.0655L166.137 16.6091L165.899 19.5755L169.72 19.1191L171.391 17.75L173.541 18.2064L177.362 15.9246L180.705 15.4683L180.466 18.8909L181.661 21.1726L183.332 21.8573L182.616 17.75L185.004 14.7838L188.825 17.9783L189.542 21.4009L189.303 23.6826L186.437 25.2799L182.138 32.5813L179.511 33.0377L175.451 32.3532L172.108 33.266L170.197 34.8631L174.735 35.0913L175.451 37.1448L171.869 39.1985L174.496 40.3393L170.675 44.6747L171.153 46.7282L173.541 44.2183L175.451 43.5338H179.511L180.705 45.1309L177.839 49.2382H176.168L174.735 51.0636L169.242 51.7481L162.794 55.3988L162.078 57.2243L156.346 61.7878L153.958 64.754L151.092 69.7739L150.614 72.2838L150.853 76.6192L148.465 78.9009L143.211 79.129L136.285 81.4108L118.374 69.7739L107.15 62.0159H105.956L81.5961 65.4385L80.641 62.0159L77.0587 58.5933L74.9093 60.1906L73.4764 57.9088L46.0125 60.6469L40.042 62.7004L36.2209 65.4385L34.788 65.6667L28.1012 68.633L0.875966 72.5119L0.637207 66.8075L1.35363 65.4385L5.17465 64.754L6.12997 63.6132L6.36873 60.1906L8.99581 57.4524L12.1004 55.6271L17.3544 54.9426L22.3695 50.1508L25.9518 47.8691L28.1012 47.641L29.7728 42.8492L31.2058 43.3056L31.9222 41.2521L34.788 39.4266L36.2209 41.4802L38.1314 40.5675L39.8031 37.6012L43.8631 35.3195L46.7289 36.4603L47.923 35.3195L49.3558 30.9842L52.9381 27.3334L53.177 24.139L53.8934 21.629L54.8486 22.0854L63.6848 21.4009L75.8646 19.5755L88.7606 17.9783L116.464 13.1865L136.763 9.30765L177.601 0.86516V0.86516Z" fill="white" stroke="black" stroke-width="1.4" stroke-linecap="round" stroke-linejoin="round" mask="url(#path-1-inside-1_101_475)"/>
</svg>
