<svg width="146" height="89" viewBox="0 0 146 89" fill="none" xmlns="http://www.w3.org/2000/svg">
<path d="M133.274 7.33132C133.274 7.36044 133.277 7.38945 133.284 7.41768L135.41 15.7663L134.482 18.868C134.467 18.9185 134.464 18.9718 134.472 19.0239L134.944 21.9564L134.707 28.7675C134.706 28.8028 134.71 28.8382 134.719 28.8722L137.346 38.4556C137.351 38.4738 137.357 38.4916 137.365 38.5088L139.015 42.1125L139.722 47.2856V53.4226C139.722 53.4307 139.722 53.4389 139.723 53.447L140.2 60.2922C140.201 60.3081 140.204 60.3239 140.207 60.3396L140.914 63.72L140.677 69.8377C140.675 69.9081 140.693 69.9777 140.731 70.0373L141.414 71.1251L142.356 75.6273C142.365 75.6692 142.381 75.7091 142.404 75.7451L144.276 78.6507L145.214 84.2553V88.2114H127.419H127.414L109.277 87.7554L109.273 87.7553L91.1274 87.0708L72.9819 86.3865L72.9773 86.3863L55.0733 85.474L55.0706 85.4739L27.8563 83.8774L27.8481 83.8768L0.50539 81.6246L7.84558 0.860358L29.2348 2.4324L29.2376 2.43259L57.1793 4.25796L57.1793 4.25801L57.1855 4.25831L86.0825 5.6274L86.0873 5.62757L106.387 6.31207L106.39 6.31215L133.274 6.98814V7.33132Z" fill="white" stroke="black" stroke-width="0.7" stroke-linecap="round" stroke-linejoin="round"/>
</svg>
