<svg width="184" height="87" viewBox="0 0 184 87" fill="none" xmlns="http://www.w3.org/2000/svg">
<path d="M170.174 51.6572L171.493 52.017L170.65 54.6349C170.613 54.7493 170.638 54.8747 170.715 54.9669L171.588 56.0102V59.9901C171.588 60.0857 171.627 60.1772 171.697 60.2432L172.312 60.831L172.54 65.6363L171.851 67.392C171.799 67.5243 171.833 67.6748 171.935 67.7729L173.759 69.5155L173.98 70.9943C173.988 71.0477 174.009 71.0985 174.04 71.1428L175.442 73.1523L176.858 77.6645C176.871 77.7041 176.89 77.7412 176.916 77.7741L181.603 83.8194L181.383 85.5003C181.364 85.6451 181.437 85.7864 181.566 85.8549L182.473 86.3366L161.672 86.3366L161.669 86.3366L130.39 86.1084L130.387 86.1084L117.021 85.8804L117.016 85.8803L94.8181 85.1962L94.8111 85.1959L72.3693 84.0553L41.1993 82.476L42.8487 56.3613C42.8608 56.1704 42.7174 56.0052 42.5267 55.9903L16.2568 53.9368L16.2552 53.9367L1.08857 52.822L6.03759 0.583112L26.9501 2.15465L26.9532 2.15486L57.9994 4.20837L58.0034 4.20859L78.7805 5.3495L78.7857 5.34971L95.9805 6.03436L95.9838 6.03446L118.563 6.7157L123.491 10.3028C123.505 10.3128 123.519 10.3218 123.534 10.3297L128.311 12.8397C128.381 12.8765 128.462 12.8885 128.539 12.8736L129.733 12.6454C129.8 12.6327 129.861 12.6012 129.909 12.5547L131.938 10.6164L135.355 11.0515C135.38 11.0548 135.406 11.0552 135.431 11.0529L142.707 10.3802L146.184 12.8165C146.219 12.8411 146.259 12.8591 146.3 12.8695L151.686 14.2118L152.808 15.4979C152.853 15.5499 152.913 15.5873 152.98 15.6055L154.464 16.0107L154.886 17.4217C154.899 17.4658 154.921 17.5068 154.95 17.5424L156.621 19.596C156.675 19.6615 156.75 19.7055 156.833 19.7199L159.422 20.1697L160.842 20.7508V23.9386C160.842 24.0066 160.861 24.0732 160.899 24.1302L162.026 25.8529L161.798 28.2407C161.79 28.3261 161.814 28.4115 161.864 28.4807L163.485 30.6928L163.711 32.2046C163.724 32.2883 163.766 32.3648 163.831 32.4196L165.88 34.1599L166.338 37.2244C166.346 37.2779 166.366 37.3287 166.397 37.373L167.739 39.2964L166.822 43.0215C166.81 43.0703 166.809 43.1212 166.818 43.1706L167.296 45.6806C167.312 45.7674 167.361 45.8448 167.432 45.8972L170.369 48.0553L169.92 51.2712C169.896 51.4455 170.005 51.6108 170.174 51.6572Z" fill="white" stroke="black" stroke-width="0.7" stroke-linecap="round" stroke-linejoin="round"/>
</svg>
