<svg width="38" height="74" viewBox="0 0 38 74" fill="none" xmlns="http://www.w3.org/2000/svg">
<path d="M35.8166 55.4715L36.6684 56.8955L36.0184 60.4144L34.098 60.8222C34.0262 60.8374 33.9609 60.875 33.9115 60.9294L27.7773 67.6918L5.15936 72.6441L2.54808 69.7334L3.22818 66.4842C3.23714 66.4415 3.238 66.3974 3.23073 66.3543L2.05351 59.3809L2.49203 58.3335C2.52211 58.2616 2.52737 58.1818 2.50697 58.1066L0.858724 52.0325L1.55422 49.1535C1.56359 49.1147 1.56626 49.0746 1.5621 49.0349L1.33678 46.8829L2.69512 44.9362C2.74208 44.8689 2.7639 44.7873 2.75677 44.7055L2.52068 41.9997L3.23394 34.7305C3.23726 34.6966 3.23562 34.6624 3.22906 34.629L2.5323 31.0783L3.161 29.4764L5.42465 28.3951C5.46693 28.3749 5.50473 28.3464 5.53579 28.3113L8.16287 25.3451C8.19931 25.3039 8.22554 25.2548 8.23946 25.2016L9.43354 20.6381C9.46196 20.5295 9.43657 20.4139 9.36527 20.3272L6.85007 17.2687L8.00156 12.648C8.01521 12.5933 8.01541 12.5361 8.00217 12.4812L7.29865 9.56836L7.76428 3.34054L9.01627 1.74551L11.9351 1.96003C12.082 1.97083 12.2199 1.88856 12.2801 1.75422L12.6407 0.950392L28.1014 44.1467L29.0518 48.6867C29.0696 48.7714 29.118 48.8465 29.1879 48.8976L33.1429 51.7871L33.5909 53.7141C33.6097 53.7948 33.6565 53.8663 33.7231 53.9157L35.8166 55.4715Z" fill="white" stroke="black" stroke-width="0.7" stroke-linecap="round" stroke-linejoin="round"/>
</svg>
