<svg width="29" height="65" viewBox="0 0 29 65" fill="none" xmlns="http://www.w3.org/2000/svg">
<path d="M13.6454 30.9211C13.71 30.8439 13.7383 30.7425 13.7229 30.643C13.7075 30.5434 13.65 30.4554 13.565 30.4012L5.06549 24.9874L4.15142 22.5858C4.09975 22.4501 3.96958 22.3603 3.82431 22.3603H1.94838L0.869584 18.0313L2.15559 16.8026C2.21641 16.7445 2.25427 16.6665 2.26223 16.5827L2.50099 14.0729C2.51114 13.9662 2.47185 13.8607 2.39436 13.7867L0.482071 11.9595L2.18216 9.92904C2.20178 9.9056 2.21826 9.87969 2.23115 9.85197L4.14166 5.74485C4.15846 5.70874 4.16897 5.67003 4.17274 5.63038L4.40084 3.23258L6.56581 0.750369L24.7712 6.32537L24.9632 7.42594L24.0255 13.4724L23.1756 15.0967L22.1475 15.2932C22.0814 15.3058 22.0202 15.3373 21.9715 15.3839L21.0162 16.2965C20.963 16.3473 20.9271 16.4137 20.9138 16.486L20.1973 20.365C20.1696 20.5152 20.2425 20.6661 20.3774 20.7377L22.5268 21.8786C22.5907 21.9125 22.6635 21.9258 22.7352 21.9166L26.1276 21.4844L27.8373 23.5263L28.0646 31.563L27.3859 31.7252C27.2073 31.7678 27.092 31.9414 27.122 32.1226L27.8268 36.3877L27.1271 39.2849C27.1049 39.3766 27.1207 39.4733 27.1709 39.5532L27.7732 40.5124L25.0175 45.12C25.0094 45.1335 25.0023 45.1475 24.9961 45.1619L22.8467 50.1818C22.8382 50.2015 22.8316 50.222 22.8269 50.2429L22.1173 53.4072L21.174 55.6605C21.1664 55.6786 21.1604 55.6973 21.1559 55.7164L20.2139 59.7663L18.1601 63.0367L16.8758 63.497L17.308 58.3349C17.3214 58.1749 17.2242 58.0263 17.0723 57.9744L13.7288 56.8335C13.6578 56.8093 13.581 56.8085 13.5096 56.8313L10.8301 57.6846L8.59009 55.7585C8.54219 55.7173 8.48404 55.6899 8.4218 55.6791L5.86589 55.2351L1.52816 52.3994L1.07329 48.0536L1.76015 44.5534L3.79545 42.3928L7.07978 40.8237C7.15843 40.7862 7.22022 40.7206 7.25308 40.6399L8.90418 36.5835L13.6454 30.9211Z" fill="white" stroke="black" stroke-width="0.7" stroke-linecap="round" stroke-linejoin="round"/>
</svg>
