<svg width="157" height="153" viewBox="0 0 157 153" fill="none" xmlns="http://www.w3.org/2000/svg">
<path d="M154.088 27.9652C153.942 28.0002 153.834 28.1253 153.821 28.2755L143.582 147.034L122.915 145.239L101.902 143.414L101.899 143.413L75.8756 140.904L75.8712 140.904L59.1584 139.079C59.0476 139.067 58.9376 139.108 58.8623 139.19C58.787 139.273 58.7554 139.386 58.7772 139.495L59.7323 144.287C59.7464 144.357 59.7818 144.422 59.8338 144.471L60.9722 145.559L21.6712 140.449C21.4806 140.424 21.3057 140.557 21.2794 140.748L19.6556 152.494L2.09163 150.032L2.08454 150.031L0.5328 149.846L23.1149 1.08732L35.193 2.64078L35.194 2.64092L55.9701 5.37877L55.9701 5.37885L55.9777 5.37968L85.1132 8.5742L85.1165 8.57453L110.192 11.0844L110.193 11.0844L130.97 13.1381L130.976 13.1386L155.706 15.1639L154.794 27.7966L154.088 27.9652Z" fill="white" stroke="black" stroke-width="0.7" stroke-linecap="round" stroke-linejoin="round"/>
</svg>
