<svg width="100" height="123" viewBox="0 0 100 123" fill="none" xmlns="http://www.w3.org/2000/svg">
<mask id="path-1-inside-1_101_436" fill="white">
<path d="M84.4767 38.5616L84.9544 40.6151L82.805 41.2996L81.6109 40.3869L84.4767 38.5616V38.5616ZM20.9514 54.3056L21.9066 50.4266L23.8171 49.0575L26.4442 48.373L29.0711 50.1984H31.937L33.1311 49.0575L35.9969 48.1449L36.2356 49.5139L41.7284 49.9703L43.6391 48.1449L49.8483 46.3195L53.9082 47.2322L56.0574 48.1449L57.2515 45.8631L58.9233 44.494L63.222 37.6488L65.6101 41.9842L67.9983 42.6687L71.5806 42.4405L71.8195 40.6151L73.73 39.7024L77.7899 41.9842L79.7004 42.4405V44.0377L77.7899 45.6349L77.551 47.6885L83.0439 45.4068L86.6262 45.1786L85.6708 48.1449L80.8945 49.7421L80.4168 51.7957L77.3122 53.621L76.5958 55.4465L73.4912 56.3592L72.7746 58.6409L70.3865 59.5536V60.6945L64.6549 65.0298L64.1773 66.8552L62.2668 67.3115L60.8338 69.5933L58.2069 70.9623V73.0159H56.5351L55.1023 74.8413L51.2811 76.4385L50.8036 77.8075L48.1765 78.4921L48.4154 80.0893L45.0719 79.4048L47.6988 82.5992L47.4601 83.7401L44.5942 85.3374L42.445 84.4246L40.0568 85.3374L38.8627 82.8274L36.4746 83.0556L35.9969 85.5655L34.3251 86.7063L32.6534 89.4445L34.0864 92.6389L32.4146 100.397L30.9816 101.31L31.2205 103.135L28.8324 105.189L29.7876 107.698L28.5935 108.383L26.9219 112.49H25.4889L23.1007 115L21.429 114.772L22.1455 117.738L20.4738 120.02L16.8915 122.073L14.0257 120.933L13.3093 118.423L9.24934 115.456L9.01058 117.738L5.90584 118.651L3.75657 115.228L3.04015 112.262L0.890736 110.208L1.1295 106.558L0.651978 103.591L1.3684 100.625L3.75657 96.5179L1.60716 96.2897L3.75657 92.6389L11.6375 82.5992L12.1152 81.2302L16.6526 75.754L19.0408 73.4722L22.3843 71.1905L24.5337 67.7679L25.4889 70.9623L28.8324 72.3314L29.7876 68.9088L34.5639 65.4861L36.2356 63.6608L40.7732 62.0635L37.6686 61.1508L31.4593 63.2044L28.8324 63.6608L24.5337 65.4861L23.3396 66.8552H19.5184L17.8467 68.2243L17.6079 70.0496L13.3093 70.7341L14.0257 66.8552L16.6526 63.6608L19.2797 58.6409L19.5184 56.131L20.9514 54.3056V54.3056ZM77.0735 0.228189L78.2676 2.50993H82.0886L83.9991 8.67068L83.7603 15.9722L86.1485 17.3413L84.4767 22.5893L83.2827 24.1865L82.805 28.75L80.4168 30.3473L81.1332 32.8572L79.2227 34.6826L81.1332 36.2798L82.3273 34.2262L86.6262 33.5417L86.1485 31.4881L89.4918 24.8711L84.9544 29.2064L83.2827 28.0655L85.4321 25.0992L84.4767 23.2738L85.6708 18.9385L87.1037 16.2004L91.1636 16.885L92.5966 15.9722L96.8953 16.2004L98.3281 17.7977L97.8504 19.623L99.7611 20.0794L99.9999 21.9048L98.567 24.1865L95.9399 25.5556L97.6117 26.9246L95.9399 28.75L95.7012 30.3473L93.5518 33.0853L88.2978 37.1925L87.5813 36.7361L82.805 38.3334L81.1332 40.3869L79.2227 39.9306L77.3122 41.5278L73.73 38.7897L71.103 34.6826L68.7149 31.2599L68.9536 28.0655L71.103 24.4147L71.5806 20.0794L72.2971 17.7977L72.7746 7.75799L73.9687 5.93255L74.9241 0L77.0735 0.228189V0.228189Z"/>
</mask>
<path d="M84.4767 38.5616L84.9544 40.6151L82.805 41.2996L81.6109 40.3869L84.4767 38.5616V38.5616ZM20.9514 54.3056L21.9066 50.4266L23.8171 49.0575L26.4442 48.373L29.0711 50.1984H31.937L33.1311 49.0575L35.9969 48.1449L36.2356 49.5139L41.7284 49.9703L43.6391 48.1449L49.8483 46.3195L53.9082 47.2322L56.0574 48.1449L57.2515 45.8631L58.9233 44.494L63.222 37.6488L65.6101 41.9842L67.9983 42.6687L71.5806 42.4405L71.8195 40.6151L73.73 39.7024L77.7899 41.9842L79.7004 42.4405V44.0377L77.7899 45.6349L77.551 47.6885L83.0439 45.4068L86.6262 45.1786L85.6708 48.1449L80.8945 49.7421L80.4168 51.7957L77.3122 53.621L76.5958 55.4465L73.4912 56.3592L72.7746 58.6409L70.3865 59.5536V60.6945L64.6549 65.0298L64.1773 66.8552L62.2668 67.3115L60.8338 69.5933L58.2069 70.9623V73.0159H56.5351L55.1023 74.8413L51.2811 76.4385L50.8036 77.8075L48.1765 78.4921L48.4154 80.0893L45.0719 79.4048L47.6988 82.5992L47.4601 83.7401L44.5942 85.3374L42.445 84.4246L40.0568 85.3374L38.8627 82.8274L36.4746 83.0556L35.9969 85.5655L34.3251 86.7063L32.6534 89.4445L34.0864 92.6389L32.4146 100.397L30.9816 101.31L31.2205 103.135L28.8324 105.189L29.7876 107.698L28.5935 108.383L26.9219 112.49H25.4889L23.1007 115L21.429 114.772L22.1455 117.738L20.4738 120.02L16.8915 122.073L14.0257 120.933L13.3093 118.423L9.24934 115.456L9.01058 117.738L5.90584 118.651L3.75657 115.228L3.04015 112.262L0.890736 110.208L1.1295 106.558L0.651978 103.591L1.3684 100.625L3.75657 96.5179L1.60716 96.2897L3.75657 92.6389L11.6375 82.5992L12.1152 81.2302L16.6526 75.754L19.0408 73.4722L22.3843 71.1905L24.5337 67.7679L25.4889 70.9623L28.8324 72.3314L29.7876 68.9088L34.5639 65.4861L36.2356 63.6608L40.7732 62.0635L37.6686 61.1508L31.4593 63.2044L28.8324 63.6608L24.5337 65.4861L23.3396 66.8552H19.5184L17.8467 68.2243L17.6079 70.0496L13.3093 70.7341L14.0257 66.8552L16.6526 63.6608L19.2797 58.6409L19.5184 56.131L20.9514 54.3056V54.3056ZM77.0735 0.228189L78.2676 2.50993H82.0886L83.9991 8.67068L83.7603 15.9722L86.1485 17.3413L84.4767 22.5893L83.2827 24.1865L82.805 28.75L80.4168 30.3473L81.1332 32.8572L79.2227 34.6826L81.1332 36.2798L82.3273 34.2262L86.6262 33.5417L86.1485 31.4881L89.4918 24.8711L84.9544 29.2064L83.2827 28.0655L85.4321 25.0992L84.4767 23.2738L85.6708 18.9385L87.1037 16.2004L91.1636 16.885L92.5966 15.9722L96.8953 16.2004L98.3281 17.7977L97.8504 19.623L99.7611 20.0794L99.9999 21.9048L98.567 24.1865L95.9399 25.5556L97.6117 26.9246L95.9399 28.75L95.7012 30.3473L93.5518 33.0853L88.2978 37.1925L87.5813 36.7361L82.805 38.3334L81.1332 40.3869L79.2227 39.9306L77.3122 41.5278L73.73 38.7897L71.103 34.6826L68.7149 31.2599L68.9536 28.0655L71.103 24.4147L71.5806 20.0794L72.2971 17.7977L72.7746 7.75799L73.9687 5.93255L74.9241 0L77.0735 0.228189V0.228189Z" fill="white" stroke="black" stroke-width="1.4" stroke-linecap="round" stroke-linejoin="round" mask="url(#path-1-inside-1_101_436)"/>
</svg>
