<svg width="143" height="207" viewBox="0 0 143 207" fill="none" xmlns="http://www.w3.org/2000/svg">
<path d="M90.934 203.462L90.3785 206.116L80.8182 193.068L80.8121 193.059L63.8621 168.425L63.8617 168.424L55.504 156.332L55.5031 156.331L43.3255 138.536L43.3243 138.535L31.1459 120.51L31.1459 120.51L31.1416 120.504L19.6783 104.304L19.6776 104.303L12.0395 93.5844L12.0355 93.5787L0.907381 77.2909L22.5025 0.881678L48.2033 7.41471L48.207 7.41561L63.2524 11.0665L63.2524 11.0666L63.2596 11.0681L81.8874 15.1753L81.8885 15.1755L108.156 20.8794L108.158 20.8799L119.381 23.3893L119.381 23.3894L119.391 23.3915L141.728 27.6599L114.338 157.37L114.338 157.371L110.054 177.837L107.334 181.735H105.333L103.523 178.492C103.461 178.381 103.344 178.313 103.217 178.313H101.393L98.8417 176.983C98.7683 176.945 98.6839 176.934 98.6032 176.952L94.5433 177.865C94.4253 177.891 94.3294 177.977 94.2895 178.091L93.3343 180.829C93.31 180.899 93.3083 180.974 93.3294 181.045L94.2551 184.14L93.0898 188.148C93.0744 188.201 93.0718 188.257 93.0821 188.312L93.5395 190.715L92.3887 193.354C92.3621 193.415 92.3534 193.483 92.3637 193.548L93.0729 198.066L92.6181 202.195L91.0793 203.245C91.0046 203.296 90.9525 203.374 90.934 203.462Z" fill="white" stroke="black" stroke-width="0.7" stroke-linecap="round" stroke-linejoin="round"/>
</svg>
