<svg width="167" height="120" viewBox="0 0 167 120" fill="none" xmlns="http://www.w3.org/2000/svg">
<mask id="path-1-inside-1_101_485" fill="white">
<path d="M126.124 116.865L125.885 119.147L123.736 119.375L123.974 117.094L126.124 116.865ZM159.797 94.9607L156.931 97.6988L158.364 99.0678L160.275 98.3833L162.185 96.5579L163.379 97.6988L166.006 95.1888L166.961 95.8733L158.364 102.719L154.782 105.457L152.394 105.913L148.334 108.651L142.602 110.705L140.214 112.758L136.393 114.356L133.766 116.409L130.9 115.496L128.273 118.235L126.84 116.637L128.273 112.074L131.139 110.933L131.617 109.336L135.438 107.054L135.915 106.141L141.408 105.685L143.319 103.403L150.005 102.034L153.588 100.437L157.648 95.1888L159.797 94.9607V94.9607ZM84.8084 7.11347L110.839 0.724609L111.556 5.05984L112.511 5.9726L112.75 9.85159L113.466 11.9051L115.616 14.1868V17.1531L116.571 20.5757L115.855 21.2603L115.616 25.8238L116.571 26.7364L119.198 33.3535L118.72 36.0917H121.347L122.78 37.6888L128.034 58.6809L127.796 76.9348L128.512 77.3912L132.333 97.2424L134.005 99.0678L129.945 103.175L132.333 105.457L129.945 110.477L127.796 111.846L127.318 108.423L127.079 107.054L108.451 101.35L107.018 99.5242L104.153 99.7523L101.526 98.6114L99.6151 96.3297L98.6598 91.9944L97.9434 90.8536L91.4953 87.6591L66.1807 92.9071L35.8509 99.0678L19.3725 102.034L1.93884 105.229L0.744751 98.155L5.99876 93.3634L7.67051 90.8536L11.4915 87.6591L13.1633 83.7801L15.3125 82.4111L15.7902 79.9011L13.6409 76.4785V73.9686L10.5362 73.7405L9.81977 69.177L16.7455 65.7544L22.716 63.7007L25.8206 63.4726L27.97 62.5599H35.3732L38.2391 63.9289L40.1496 64.1571L43.2542 62.3317L50.8964 61.1909L55.9115 58.6809L56.628 56.8555L60.6878 52.292L64.0313 51.6075L64.7477 47.7285L61.4044 42.7086L63.7925 41.3397L63.3149 37.917H60.2103L58.2996 36.5479L61.1655 33.3535L63.3149 31.7563L67.8523 25.8238L67.1359 24.6829L68.33 22.1729L74.7781 13.046L77.1662 10.7642L81.7038 7.34159L84.8084 7.11347V7.11347Z"/>
</mask>
<path d="M126.124 116.865L125.885 119.147L123.736 119.375L123.974 117.094L126.124 116.865ZM159.797 94.9607L156.931 97.6988L158.364 99.0678L160.275 98.3833L162.185 96.5579L163.379 97.6988L166.006 95.1888L166.961 95.8733L158.364 102.719L154.782 105.457L152.394 105.913L148.334 108.651L142.602 110.705L140.214 112.758L136.393 114.356L133.766 116.409L130.9 115.496L128.273 118.235L126.84 116.637L128.273 112.074L131.139 110.933L131.617 109.336L135.438 107.054L135.915 106.141L141.408 105.685L143.319 103.403L150.005 102.034L153.588 100.437L157.648 95.1888L159.797 94.9607V94.9607ZM84.8084 7.11347L110.839 0.724609L111.556 5.05984L112.511 5.9726L112.75 9.85159L113.466 11.9051L115.616 14.1868V17.1531L116.571 20.5757L115.855 21.2603L115.616 25.8238L116.571 26.7364L119.198 33.3535L118.72 36.0917H121.347L122.78 37.6888L128.034 58.6809L127.796 76.9348L128.512 77.3912L132.333 97.2424L134.005 99.0678L129.945 103.175L132.333 105.457L129.945 110.477L127.796 111.846L127.318 108.423L127.079 107.054L108.451 101.35L107.018 99.5242L104.153 99.7523L101.526 98.6114L99.6151 96.3297L98.6598 91.9944L97.9434 90.8536L91.4953 87.6591L66.1807 92.9071L35.8509 99.0678L19.3725 102.034L1.93884 105.229L0.744751 98.155L5.99876 93.3634L7.67051 90.8536L11.4915 87.6591L13.1633 83.7801L15.3125 82.4111L15.7902 79.9011L13.6409 76.4785V73.9686L10.5362 73.7405L9.81977 69.177L16.7455 65.7544L22.716 63.7007L25.8206 63.4726L27.97 62.5599H35.3732L38.2391 63.9289L40.1496 64.1571L43.2542 62.3317L50.8964 61.1909L55.9115 58.6809L56.628 56.8555L60.6878 52.292L64.0313 51.6075L64.7477 47.7285L61.4044 42.7086L63.7925 41.3397L63.3149 37.917H60.2103L58.2996 36.5479L61.1655 33.3535L63.3149 31.7563L67.8523 25.8238L67.1359 24.6829L68.33 22.1729L74.7781 13.046L77.1662 10.7642L81.7038 7.34159L84.8084 7.11347V7.11347Z" fill="white" stroke="black" stroke-width="1.4" stroke-linecap="round" stroke-linejoin="round" mask="url(#path-1-inside-1_101_485)"/>
</svg>
