<svg width="606" height="452" viewBox="0 0 606 452" fill="none" xmlns="http://www.w3.org/2000/svg">
<mask id="path-1-inside-1_204_295" fill="white">
<path d="M457.112 442.438L456.242 451.13L448.405 452L449.276 443.308L457.112 442.438ZM579.879 358.992L569.431 369.423L574.655 374.638L581.621 372.031L588.586 365.077L592.94 369.423L602.518 359.861L606 362.469L574.655 388.546L561.595 398.977L552.888 400.715L538.086 411.146L517.19 418.969L508.483 426.792L494.552 432.877L484.974 440.7L474.526 437.223L464.949 447.654L459.724 441.569L464.949 424.184L475.397 419.838L477.138 413.754L491.069 405.061L492.81 401.584L512.837 399.846L519.802 391.154L544.181 385.938L557.242 379.853L572.043 359.861L579.879 358.992V358.992ZM306.483 24.3384L401.388 0L404 16.5151L407.483 19.9922L408.354 34.7692L410.966 42.592L418.802 51.2843V62.5842L422.285 75.6227L419.673 78.2308L418.802 95.6154L422.285 99.092L431.862 124.3L430.121 134.731H439.698L444.922 140.815L464.078 220.784L463.207 290.323L465.819 292.061L479.75 367.684L485.845 374.638L471.043 390.284L479.75 398.977L471.043 418.1L463.207 423.315L461.466 410.276L460.595 405.061L392.681 383.331L387.457 376.377L377.009 377.246L367.431 372.9L360.466 364.207L356.983 347.692L354.371 343.346L330.862 331.177L238.569 351.169L127.992 374.638L67.9137 385.938L4.35345 398.108L0 371.161L19.1553 352.907L25.2502 343.346L39.181 331.177L45.276 316.4L53.1119 311.185L54.8534 301.623L47.0175 288.584V279.023L35.6981 278.154L33.0861 260.769L58.3363 247.731L80.1036 239.907L91.4224 239.038L99.2589 235.561H126.25L136.698 240.776L143.664 241.646L154.983 234.692L182.845 230.346L201.129 220.784L203.742 213.831L218.543 196.446L230.733 193.838L233.345 179.061L221.155 159.938L229.862 154.723L228.121 141.685H216.802L209.836 136.469L220.284 124.3L228.121 118.215L244.664 95.6154L242.052 91.2692L246.405 81.7074L269.914 46.9381L278.621 38.2458L295.164 25.2074L306.483 24.3384V24.3384Z"/>
</mask>
<path d="M457.112 442.438L456.242 451.13L448.405 452L449.276 443.308L457.112 442.438ZM579.879 358.992L569.431 369.423L574.655 374.638L581.621 372.031L588.586 365.077L592.94 369.423L602.518 359.861L606 362.469L574.655 388.546L561.595 398.977L552.888 400.715L538.086 411.146L517.19 418.969L508.483 426.792L494.552 432.877L484.974 440.7L474.526 437.223L464.949 447.654L459.724 441.569L464.949 424.184L475.397 419.838L477.138 413.754L491.069 405.061L492.81 401.584L512.837 399.846L519.802 391.154L544.181 385.938L557.242 379.853L572.043 359.861L579.879 358.992V358.992ZM306.483 24.3384L401.388 0L404 16.5151L407.483 19.9922L408.354 34.7692L410.966 42.592L418.802 51.2843V62.5842L422.285 75.6227L419.673 78.2308L418.802 95.6154L422.285 99.092L431.862 124.3L430.121 134.731H439.698L444.922 140.815L464.078 220.784L463.207 290.323L465.819 292.061L479.75 367.684L485.845 374.638L471.043 390.284L479.75 398.977L471.043 418.1L463.207 423.315L461.466 410.276L460.595 405.061L392.681 383.331L387.457 376.377L377.009 377.246L367.431 372.9L360.466 364.207L356.983 347.692L354.371 343.346L330.862 331.177L238.569 351.169L127.992 374.638L67.9137 385.938L4.35345 398.108L0 371.161L19.1553 352.907L25.2502 343.346L39.181 331.177L45.276 316.4L53.1119 311.185L54.8534 301.623L47.0175 288.584V279.023L35.6981 278.154L33.0861 260.769L58.3363 247.731L80.1036 239.907L91.4224 239.038L99.2589 235.561H126.25L136.698 240.776L143.664 241.646L154.983 234.692L182.845 230.346L201.129 220.784L203.742 213.831L218.543 196.446L230.733 193.838L233.345 179.061L221.155 159.938L229.862 154.723L228.121 141.685H216.802L209.836 136.469L220.284 124.3L228.121 118.215L244.664 95.6154L242.052 91.2692L246.405 81.7074L269.914 46.9381L278.621 38.2458L295.164 25.2074L306.483 24.3384V24.3384Z" fill="white" stroke="black" stroke-width="1.4" stroke-linecap="round" stroke-linejoin="round" mask="url(#path-1-inside-1_204_295)"/>
</svg>
