<svg width="95" height="101" viewBox="0 0 95 101" fill="none" xmlns="http://www.w3.org/2000/svg">
<path d="M90.8049 36.867C90.7253 36.9196 90.6707 37.0025 90.6536 37.0963C90.6366 37.1902 90.6586 37.287 90.7146 37.3643L92.7801 40.2147L92.5623 41.6706C92.5522 41.7385 92.5622 41.8078 92.5911 41.87L93.4778 43.7759L92.5911 45.6819C92.5761 45.7142 92.5661 45.7487 92.5614 45.7841L91.845 51.2603C91.842 51.2835 91.8413 51.3068 91.8429 51.3301L92.0771 54.6877L90.9022 58.5042C90.892 58.5376 90.8867 58.5723 90.8867 58.6072V62.7929L87.6516 65.884C87.624 65.9104 87.6009 65.941 87.5833 65.9748L86.4103 68.2161L84.8224 69.95L81.6691 71.2411L79.641 70.5952C79.4714 70.5412 79.2883 70.6231 79.2154 70.7855L77.8417 73.8479L75.5887 74.7089C75.4993 74.743 75.4277 74.8124 75.3908 74.9007L74.4356 77.1824C74.4145 77.2328 74.4055 77.2874 74.4093 77.3419L74.8704 83.9496L73.8215 84.4506L70.1615 82.2651C70.042 82.1936 69.8914 82.1999 69.7782 82.2811L68.8229 82.9657C68.7676 83.0053 68.725 83.0602 68.7004 83.1237L66.3122 89.2843C66.2866 89.3504 66.2817 89.4228 66.2981 89.4918L67.3896 94.0807H66.3998C66.2355 94.0807 66.0934 94.1949 66.058 94.3553L65.1433 98.5065L61.7976 99.785H60.101L57.5774 97.1546C57.5351 97.1105 57.4821 97.0783 57.4235 97.0611L54.4662 96.1918L52.6235 92.4506C52.5429 92.2868 52.3498 92.2126 52.1801 92.2801L49.3143 93.421C49.2507 93.4463 49.1959 93.4897 49.1567 93.5459L47.314 96.1868L44.0258 97.234L42.501 95.9852C42.4614 95.9528 42.4152 95.9295 42.3656 95.9169L38.7834 95.0042C38.6664 94.9745 38.5424 95.007 38.4552 95.0903L36.1459 97.2967L34.9772 97.4827L31.5169 94.6175C31.4715 94.5798 31.4173 94.5543 31.3594 94.5433L28.9712 94.0869C28.9173 94.0766 28.8618 94.0791 28.8091 94.0942L26.5011 94.7557L24.3407 94.343L20.8398 88.9911C20.8088 88.9437 20.7668 88.9045 20.7173 88.8769L17.8515 87.2797C17.7707 87.2347 17.6754 87.2235 17.5864 87.2485L13.7041 88.3394L11.9351 86.8605C11.811 86.7567 11.6318 86.7516 11.5019 86.8481L9.83725 88.0852L2.98314 30.7285L2.98337 30.7285L2.98144 30.7161L1.36497 20.3465L11.5171 19.0237C11.5221 19.0231 11.5272 19.0223 11.5322 19.0214L28.4464 16.0625L31.6585 16.2818L33.7326 17.6029C33.7801 17.6331 33.8342 17.6515 33.8903 17.6564L36.3844 17.8729L40.5916 22.3393C40.7118 22.4668 40.9078 22.4859 41.0502 22.3838L42.8776 21.0744L46.9786 20.8568L49.5209 22.1816C49.6164 22.2313 49.7295 22.2344 49.8276 22.1897L54.8427 19.908C54.8517 19.9039 54.8606 19.8994 54.8692 19.8945L58.8381 17.664L62.0773 17.885C62.1291 17.8885 62.181 17.8805 62.2293 17.8615L66.2891 16.2644C66.3397 16.2444 66.3851 16.2129 66.4214 16.1724L72.1231 9.81683L78.2829 5.74241L87.3983 0.734648L93.7163 34.9411L90.8049 36.867Z" fill="white" stroke="black" stroke-width="0.7" stroke-linecap="round" stroke-linejoin="round"/>
</svg>
