<svg width="192" height="96" viewBox="0 0 192 96" fill="none" xmlns="http://www.w3.org/2000/svg">
<path d="M149.324 92.3899L148.621 93.5647L147.027 91.6604C146.96 91.581 146.862 91.5351 146.759 91.5351H144.988L141.508 88.2094C141.431 88.1358 141.324 88.1013 141.219 88.1156C141.113 88.1299 141.02 88.1914 140.965 88.2828L140.134 89.6726L136.711 89.0593L135.598 87.1457C135.543 87.0514 135.447 86.988 135.339 86.9743C135.231 86.9607 135.123 86.9983 135.046 87.076L131.225 90.955C131.182 90.9986 131.151 91.0527 131.136 91.112L130.774 92.4948L129.008 91.4827L129.427 89.6826C129.448 89.5917 129.432 89.4962 129.383 89.4172L128.666 88.2763C128.568 88.1204 128.366 88.067 128.204 88.1542L124.579 90.1025L122.608 88.6379C122.557 88.5998 122.496 88.5765 122.432 88.5704L120.275 88.3644L119.628 86.3041C119.583 86.1582 119.447 86.059 119.295 86.059H117.623C117.538 86.059 117.456 86.0898 117.392 86.1457L114.592 88.5985L112.866 89.0106L111.341 88.464L111.756 86.4807C111.791 86.3154 111.702 86.149 111.546 86.0851L108.42 84.805V82.0736C108.42 81.8857 108.272 81.7313 108.084 81.7239L102.353 81.4958C102.258 81.492 102.165 81.5269 102.097 81.5924L100.527 83.0926H98.9227L97.356 81.1681C97.2843 81.08 97.1742 81.0322 97.0608 81.0399L93.7705 81.2644L90.0641 80.3792L88.4456 79.2746C88.3875 79.235 88.3187 79.2137 88.2483 79.2137H86.6077L83.1345 78.5914L83.3427 76.4024C83.3509 76.317 83.3274 76.2316 83.2767 76.1624L81.6051 73.8806C81.5709 73.834 81.5257 73.7966 81.4736 73.7717L78.6077 72.4027C78.5066 72.3543 78.3884 72.3574 78.2898 72.4109C78.1913 72.4644 78.1244 72.5619 78.1098 72.6731L77.923 74.1005L74.9668 73.2935C74.9202 73.2807 74.8715 73.2778 74.8237 73.2848L71.8991 73.7148L67.4866 69.0552C67.4277 68.993 67.3481 68.9546 67.2627 68.9472L64.9708 68.748L67.3433 17.9729C67.3523 17.7809 67.2047 17.6176 67.0128 17.6071L50.2967 16.6944L50.2956 16.6944L26.6546 15.3255L26.6538 15.3254L0.499467 13.7495L1.40415 1.21511L22.3123 2.56178L22.3149 2.56193L38.3157 3.47468L38.3162 3.47471L58.8544 4.61559L58.8544 4.61567L58.8622 4.61593L79.3964 5.30027L79.4004 5.30043L94.6808 5.98477V5.98489L94.6902 5.98506L120.244 6.44145L120.247 6.44148L146.037 6.66957L146.039 6.6696L161.321 6.89793L161.33 6.89786L186.769 6.67272V19.5537C186.769 19.5716 186.77 19.5894 186.773 19.607L191.306 49.0152V94.9577H190.528L185.336 92.9282C185.323 92.9232 185.31 92.919 185.296 92.9155L182.765 92.2558L180.207 89.5893C180.179 89.5603 180.146 89.5363 180.11 89.5183L174.618 86.7802C174.466 86.7047 174.282 86.7484 174.181 86.8839L173.044 88.4055L171.066 89.2453L167.23 88.814L165.886 87.3161C165.776 87.1941 165.597 87.1644 165.454 87.2447L161.455 89.4923L159.732 89.698L157.924 88.6183C157.815 88.5535 157.68 88.5523 157.57 88.6152L155.223 89.9609L152.641 90.6338C152.564 90.6538 152.496 90.6993 152.449 90.7629L151.36 92.2196H149.624C149.501 92.2196 149.387 92.2843 149.324 92.3899Z" fill="white" stroke="black" stroke-width="0.7" stroke-linecap="round" stroke-linejoin="round"/>
</svg>
