<svg width="180" height="144" viewBox="0 0 180 144" fill="none" xmlns="http://www.w3.org/2000/svg">
<path d="M42.9049 3.96241V1.29623L44.4777 2.63201C44.528 2.67471 44.5893 2.70234 44.6546 2.71169L49.431 3.39619C49.4832 3.40368 49.5365 3.39925 49.5868 3.38323L51.4649 2.78514L52.9967 5.50331C53.036 5.57297 53.0979 5.62708 53.1722 5.65666L56.038 6.79753C56.1524 6.84305 56.2822 6.82516 56.38 6.75042L57.4548 5.92892L58.6246 6.1152L61.5819 9.15815L62.4971 12.8743L61.0764 21.2451C61.0593 21.3462 61.0873 21.4498 61.1531 21.5284L62.1084 22.6693C62.1467 22.715 62.1961 22.7502 62.2518 22.7715L64.6087 23.6722L69.3566 26.6209C69.4195 26.6599 69.4931 26.678 69.5669 26.6726L75.7762 26.2162C75.8014 26.2144 75.8264 26.2098 75.8507 26.2026L79.5862 25.0872L83.7721 25.976L89.1317 27.9797L90.9794 30.8484C91.0519 30.9609 91.1822 31.0223 91.3151 31.0064L93.1455 30.7878L95.6963 31.674C95.7501 31.6927 95.8077 31.698 95.864 31.6893L101.721 30.794L104.247 32.1101C104.287 32.131 104.33 32.1439 104.375 32.1482L109.152 32.6045C109.21 32.61 109.268 32.601 109.322 32.5782L111.415 31.6894L115.389 31.466L120.858 31.9204C120.926 31.926 120.995 31.9116 121.055 31.8787L122.632 31.0175L127.277 31.4613L132.03 32.5965C132.108 32.6151 132.19 32.6064 132.262 32.5719L134.061 31.7124L161.883 38.301L161.887 38.3019L173.819 40.9843L174.034 43.2416C174.037 43.2767 174.046 43.3111 174.059 43.3436L175.014 45.6254C175.036 45.6771 175.07 45.7228 175.113 45.7587L178.843 48.8771L179.513 51.8665L179.086 53.2953L174.129 58.4826C174.108 58.5046 174.09 58.5294 174.075 58.5561L171.474 63.3003L168.886 65.7728C168.844 65.813 168.813 65.8631 168.795 65.9186L167.862 68.8164L165.574 71.4395L163.498 72.3208C163.442 72.3448 163.393 72.3831 163.356 72.4319L160.274 76.5092L157.914 78.5383C157.855 78.5893 157.814 78.6586 157.799 78.7353L156.844 83.5269C156.811 83.6903 156.898 83.854 157.052 83.9183L160.744 85.4613L161.795 87.8721L160.023 89.9878C159.959 90.0645 159.931 90.1652 159.946 90.2642L160.168 91.7486L157.116 97.5799C157.103 97.6046 157.093 97.6307 157.086 97.6577L145.705 143.418L127.418 139.386L127.41 139.385L112.376 135.736L112.372 135.735L86.3475 129.12L86.3447 129.119L60.3219 122.276L60.3164 122.275L34.295 114.976L34.2908 114.975L18.7736 110.413L18.7719 110.412L2.91902 105.665L1.11849 102.009L1.58293 96.2411L4.41812 90.5977C4.43268 90.5687 4.44314 90.5378 4.4492 90.506L4.92679 87.9961C4.93996 87.9269 4.93194 87.8554 4.90378 87.7908L3.73887 85.1196V82.5856L7.2349 78.5774C7.251 78.5589 7.26512 78.5388 7.27703 78.5174L11.292 71.2967L13.8399 69.7475C13.8909 69.7165 13.9331 69.673 13.9625 69.6211L20.1717 58.6687C20.1774 58.6587 20.1826 58.6484 20.1873 58.6378L28.0683 40.8402C28.0721 40.8316 28.0756 40.8228 28.0787 40.8138L29.9682 35.398L30.8824 34.3062C30.8985 34.2869 30.9125 34.266 30.9241 34.2438L34.5064 27.3985C34.5159 27.3804 34.5237 27.3615 34.5299 27.3421L36.9068 19.8477L39.7542 14.8602C39.7895 14.7983 39.8051 14.7272 39.799 14.6562L39.5679 12.0068L40.7264 9.35038C40.7456 9.30625 40.7555 9.25862 40.7555 9.21047V7.37753L41.9893 6.78816C42.0799 6.74492 42.1475 6.66489 42.175 6.56841L42.8914 4.05848C42.9004 4.02724 42.9049 3.9949 42.9049 3.96241Z" fill="white" stroke="black" stroke-width="0.7" stroke-linecap="round" stroke-linejoin="round"/>
</svg>
