<svg width="130" height="81" viewBox="0 0 130 81" fill="none" xmlns="http://www.w3.org/2000/svg">
<path d="M119.799 16.8572C119.751 16.9124 119.722 16.9813 119.715 17.0541L119.482 19.5041L117.616 23.5149L115.735 25.7613C115.617 25.9027 115.628 26.1117 115.762 26.2391L117.788 28.1754L117.578 30.3865L116.239 31.6656C116.148 31.7524 116.111 31.8813 116.141 32.0033L117.335 36.7949C117.374 36.9508 117.514 37.0602 117.675 37.0602H119.583L120.453 39.3448C120.479 39.4151 120.528 39.475 120.592 39.5155L128.853 44.7774L124.352 50.1522L122.466 51.7295C122.386 51.796 122.34 51.8943 122.34 51.998V53.6206L117.74 56.2578C117.673 56.2961 117.621 56.3553 117.591 56.4263L117.203 57.3523H113.615C113.531 57.3523 113.45 57.3824 113.387 57.437L110.999 59.4906C110.956 59.5278 110.922 59.575 110.901 59.6281L110.254 61.2777L98.5014 63.7479L98.4976 63.7487L74.3809 68.5397L74.3803 68.5398L55.0435 72.4173L55.0362 72.4186L33.3152 76.2955L33.311 76.2962L11.6854 79.8897L7.44724 56.0438L7.44681 56.0415L1.04434 21.3778L3.69077 19.9029C3.70775 19.8934 3.72392 19.8825 3.7391 19.8704L12.5542 12.814L14.4833 11.708L15.5938 18.2864C15.6094 18.3788 15.6613 18.4611 15.7381 18.5148C15.8148 18.5686 15.9098 18.5893 16.002 18.5724L33.4345 15.3781L33.4356 15.3779L49.913 12.4119L49.913 12.412L49.9206 12.4104L80.2505 6.24968L80.2518 6.24939L105.448 1.02591L111.7 4.12297L112.331 5.12873L113.273 9.40462C113.286 9.45959 113.311 9.51083 113.347 9.55399L115.257 11.8357C115.292 11.8774 115.336 11.9104 115.386 11.9321L118.013 13.0729C118.066 13.0958 118.123 13.1054 118.18 13.1008L120.859 12.8876L121.997 14.3374L119.799 16.8572Z" fill="white" stroke="black" stroke-width="0.7" stroke-linecap="round" stroke-linejoin="round"/>
</svg>
