<svg width="47" height="19" viewBox="0 0 47 19" fill="none" xmlns="http://www.w3.org/2000/svg">
<path d="M4.91007 6.27251C4.86515 6.35835 4.85782 6.45897 4.88983 6.55042C4.92184 6.64186 4.99031 6.71594 5.07896 6.75503L11.1004 9.41029L11.3198 11.7159C11.3297 11.8195 11.3851 11.9133 11.471 11.9719L13.1427 13.1127C13.2143 13.1616 13.3015 13.1822 13.3874 13.1704L15.059 12.9422C15.157 12.9289 15.2449 12.8746 15.3007 12.7928C15.3565 12.7111 15.3751 12.6095 15.3518 12.5133L14.6971 9.80227L15.5884 9.29125L21.6546 9.06839L24.7045 9.96501C24.775 9.98572 24.8502 9.98375 24.9194 9.95936L29.4569 8.36211C29.4769 8.35505 29.4963 8.34619 29.5147 8.33562L36.6564 4.2416L44.2129 1.30854H45.8883L43.9081 4.33577L41.6083 5.43441C41.5183 5.4774 41.4509 5.55674 41.4231 5.65251L40.29 9.54995L37.8783 9.96888C37.7797 9.986 37.6932 10.0445 37.6405 10.1295C37.5879 10.2146 37.5742 10.3181 37.6028 10.414L38.0805 12.0112C38.1088 12.1059 38.1758 12.1842 38.2649 12.2268L41.0922 13.5774L40.3525 14.1428C40.2356 14.2322 40.1871 14.3853 40.2312 14.5257L40.8525 16.5046L36.9548 18.1597L33.7123 17.3336L33.508 15.9663C33.493 15.8661 33.4353 15.7773 33.3498 15.7229L31.2004 14.3538C31.1538 14.3241 31.1007 14.3059 31.0457 14.3006L28.6575 14.0725C28.5291 14.0602 28.4044 14.1195 28.3329 14.2269L26.7545 16.5966L19.1271 17.2592L15.4642 15.728L14.5635 14.6525C14.5094 14.5878 14.4336 14.5448 14.3502 14.5316L11.4844 14.0753C11.4143 14.0641 11.3425 14.0745 11.2785 14.1051L8.31111 15.5227L7.4678 12.5014C7.4416 12.4075 7.37746 12.3288 7.2908 12.2842L4.18621 10.6871C4.09288 10.639 3.98294 10.6354 3.88667 10.6772L1.47291 11.7255L0.571053 10.8639L0.784971 8.81952L1.94803 6.59707C1.97423 6.54699 1.98792 6.49131 1.98792 6.43479V4.45858L3.65002 0.88548L5.8088 3.1355L5.59644 4.96089L4.91007 6.27251Z" fill="white" stroke="black" stroke-width="0.7" stroke-linecap="round" stroke-linejoin="round"/>
</svg>
