<svg width="18" height="22" viewBox="0 0 18 22" fill="none" xmlns="http://www.w3.org/2000/svg">
<path d="M11.201 7.30429C11.0102 7.28771 10.8415 7.42764 10.8224 7.61826L10.3448 12.41C10.3388 12.4696 10.3483 12.5297 10.3722 12.5846L11.5193 15.2148L10.8823 17.8525L8.94864 18.263C8.91046 18.2711 8.8739 18.2855 8.84048 18.3057L4.78376 20.7537L4.35488 15.8369C4.35299 15.8153 4.34909 15.7938 4.34321 15.7729L0.855378 3.3318L8.35526 1.22424L10.8552 6.43537C10.8845 6.49651 10.9309 6.54781 10.9889 6.58304L12.3375 7.40304L11.201 7.30429ZM17.1877 12.0761L16.4029 12.576L15.4451 8.91573H15.9472L17.1877 12.0761Z" fill="white" stroke="black" stroke-width="0.7" stroke-linecap="round" stroke-linejoin="round"/>
</svg>
