<svg width="114" height="83" viewBox="0 0 114 83" fill="none" xmlns="http://www.w3.org/2000/svg">
<path d="M109.223 27.8083C109.21 27.8205 109.198 27.8337 109.187 27.8476L105.844 32.183C105.83 32.2005 105.819 32.2192 105.809 32.2389L102.465 38.856C102.444 38.8968 102.432 38.9412 102.429 38.9868L101.957 45.0637L98.7162 50.3725L96.752 51.2066L94.4522 50.9868C94.354 50.9774 94.2564 51.0099 94.1834 51.0762C94.1105 51.1426 94.0689 51.2366 94.0689 51.3352V53.969L91.7838 57.4622L89.4684 58.7896C89.3841 58.8379 89.3236 58.9192 89.3016 59.0139L88.8456 60.9745L86.5714 63.3647L83.5309 64.7054C83.5008 64.7187 83.4728 64.7361 83.4476 64.7572L79.6852 67.9027L78.195 68.3095L75.1954 67.2072C75.0229 67.1438 74.8306 67.2247 74.7554 67.3924L74.039 68.9896C73.9996 69.0774 73.9981 69.1776 74.0349 69.2665C74.0716 69.3555 74.1434 69.4254 74.2333 69.4597L76.5156 70.332L77.5102 71.8524L75.5781 74.3136L73.9207 74.9074L70.7203 72.9418C70.5568 72.8414 70.3428 72.8914 70.2407 73.0539L69.5243 74.1948C69.4243 74.3541 69.468 74.564 69.6234 74.67L72.6834 76.7583L71.6993 78.2628L68.6236 81.2012C68.5545 81.2673 68.5154 81.3587 68.5154 81.4543V81.8655L65.8815 80.8976C65.8085 80.8708 65.7287 80.8691 65.6546 80.8927L64.4305 81.2824L62.3012 79.0446L62.5274 76.2344C62.5331 76.1638 62.5172 76.0931 62.4819 76.0317L59.8549 71.4682C59.8236 71.4138 59.7783 71.3689 59.7237 71.338L54.6185 68.4558L54.1661 65.4303C54.1615 65.3999 54.153 65.3703 54.1408 65.3422L52.9467 62.604C52.9281 62.5614 52.9012 62.523 52.8676 62.4909L51.0181 60.7237L50.0905 58.0652C50.0565 57.9678 49.9813 57.8903 49.885 57.8535L43.9804 55.5969L42.4126 54.0989L41.4855 51.8845C41.4485 51.7962 41.377 51.7269 41.2876 51.6928L39.1041 50.8584L38.8844 48.3386C38.8757 48.2383 38.8241 48.1466 38.743 48.0869L35.6383 45.8052C35.611 45.7851 35.5809 45.7692 35.549 45.7577L31.8508 44.4327L30.2431 41.58C30.2159 41.5317 30.1776 41.4905 30.1313 41.4599L27.0267 39.4064C27.0132 39.3975 26.9991 39.3895 26.9845 39.3826L21.8439 36.9268L20.9418 34.9873C20.9217 34.944 20.893 34.9054 20.8574 34.8737L17.3428 31.7395L16.4173 29.087C16.4068 29.0568 16.3922 29.0282 16.3739 29.002L13.508 24.8949C13.4426 24.801 13.3354 24.7451 13.221 24.7451H9.52056L6.98847 22.7659C6.96317 22.7461 6.93527 22.7299 6.90555 22.7178L1.95172 20.6892L1.19005 19.9615L1.84139 17.2652L4.66006 13.6744C4.68109 13.6476 4.6981 13.6179 4.71054 13.5862L5.3746 11.8946L11.8883 9.005L13.276 8.78407C13.3297 8.77552 13.3807 8.75459 13.4249 8.72292L17.2044 6.01462L23.0879 3.99104L50.2955 1.27848L51.613 3.37657C51.6649 3.45921 51.749 3.51643 51.8449 3.53443C51.9408 3.55243 52.0399 3.52957 52.1182 3.47136L54.0306 2.05025L57.3298 5.20247L58.2592 8.53251C58.3063 8.70147 58.4713 8.80943 58.645 8.78502L82.9801 5.36581H84.0406L95.1752 13.0617L95.1751 13.0618L95.1835 13.0673L112.724 24.4631L109.223 27.8083Z" fill="white" stroke="black" stroke-width="0.7" stroke-linecap="round" stroke-linejoin="round"/>
</svg>
