<svg width="156" height="99" viewBox="0 0 156 99" fill="none" xmlns="http://www.w3.org/2000/svg">
<path d="M152.046 72.9503L153.203 75.8255L152.503 80.0641C152.487 80.1574 152.51 80.2529 152.566 80.329C152.623 80.4051 152.707 80.4552 152.801 80.468L154.223 80.6621L154.633 82.8138L153.725 84.7652C153.703 84.8114 153.692 84.8618 153.692 84.9128V86.9031L152.53 90.0118L151.111 92.4973C151.041 92.6209 151.052 92.7749 151.14 92.8869L153.246 95.57L154.034 98.3917L152.082 98.0527L150.537 96.1546L150.079 94.624C150.044 94.5082 149.952 94.4185 149.836 94.3866L148.266 93.9581L147.141 92.6688C147.094 92.6149 147.032 92.5766 146.962 92.5593L141.533 91.206L138.004 88.7333C137.936 88.6857 137.853 88.6638 137.77 88.6714L130.405 89.3523L126.861 88.901C126.757 88.8876 126.651 88.9222 126.575 88.9951L124.501 90.9773L123.528 91.1632L118.883 88.7219L113.888 85.0862C113.831 85.0448 113.763 85.0215 113.693 85.0193L91.0083 84.335L91.005 84.3348L73.8189 83.6506L73.8136 83.6503L53.0457 82.5099L53.0418 82.5097L22.0026 80.4567L21.9994 80.4564L1.10193 78.886L5.81787 26.3938H5.97556C6.15729 26.3938 6.30878 26.2547 6.32429 26.0736L8.44393 1.32204L35.799 3.57514L35.799 3.57524L35.8072 3.57572L63.0324 5.17299L63.0351 5.17312L80.9464 6.08577L80.951 6.08594L99.1011 6.77044L117.251 7.4551L117.256 7.45521L135.406 7.91156H135.415H153.072L151.596 12.1415L147.617 15.2726C147.57 15.3094 147.533 15.3576 147.51 15.4125L147.033 16.5534C146.987 16.6628 146.999 16.7879 147.066 16.8859L150.649 22.134C150.701 22.2104 150.781 22.2631 150.872 22.2805L153.14 22.7137L155.124 25.0315L154.888 72.4696H152.37C152.254 72.4696 152.146 72.5273 152.08 72.6237C152.015 72.72 152.002 72.8424 152.046 72.9503Z" fill="white" stroke="black" stroke-width="0.7" stroke-linecap="round" stroke-linejoin="round"/>
</svg>
