<svg width="189" height="64" viewBox="0 0 189 64" fill="none" xmlns="http://www.w3.org/2000/svg">
<path d="M163.149 5.08293L163.15 5.08269L182.495 2.34471C182.55 2.3368 182.603 2.31551 182.649 2.28265L183.532 1.64984L188.412 1.04177L187.841 3.04297C187.834 3.06581 187.83 3.08925 187.828 3.11293L187.599 6.17965L184.106 9.73914C184.069 9.77734 184.04 9.82362 184.024 9.87444L182.618 14.1268L181.65 15.0521L178.993 13.9943C178.894 13.9552 178.784 13.9626 178.692 14.0144L174.632 16.2961C174.576 16.3275 174.53 16.3736 174.498 16.4294L172.881 19.2993L171.338 20.0364L170.075 18.2263C169.968 18.0725 169.758 18.0306 169.6 18.1314L166.734 19.9569C166.668 19.9992 166.618 20.0626 166.592 20.1368L165.988 21.8688L164.879 21.5157C164.699 21.4582 164.505 21.555 164.442 21.734L162.844 26.3163L160.915 26.5211C160.861 26.5268 160.809 26.5449 160.764 26.5739L157.182 28.8557C157.162 28.8679 157.144 28.882 157.128 28.8978L152.196 33.6103L147.055 34.28C147.009 34.2861 146.964 34.3015 146.923 34.3254L143.819 36.1508C143.791 36.167 143.766 36.187 143.743 36.2102L141.116 38.9483C141.06 39.0074 141.025 39.0845 141.02 39.1662L140.789 42.4756L139.988 43.432L136.292 44.0941C136.186 44.1131 136.094 44.1804 136.044 44.2763L135.327 45.6453C135.299 45.6998 135.285 45.7608 135.288 45.8222L135.513 51.2048L112.19 54.131L112.188 54.1313L106.94 54.815L81.3976 57.3238L63.4923 58.4642L63.4885 58.4645L48.2041 59.6054C48.0866 59.6142 47.9814 59.6815 47.9242 59.7845C47.8698 59.8824 47.8657 60.0001 47.9124 60.1012L23.8505 61.8868L23.8449 61.8871L1.28304 63.1936L2.12148 62.507C2.1622 62.4736 2.19487 62.4315 2.21706 62.3838L3.14441 60.3901L5.0072 58.6102C5.10353 58.5182 5.13924 58.3794 5.09933 58.2523L4.39898 56.0218V53.2452L5.97884 51.5202C6.03795 51.4557 6.07073 51.3713 6.07073 51.2838V49.897L8.03424 48.8548C8.14863 48.7941 8.22015 48.6752 8.22015 48.5457V45.8076C8.22015 45.7683 8.21354 45.7293 8.2006 45.6923L7.57423 43.8972L11.8827 41.0808C12.0283 40.9856 12.0819 40.7979 12.0085 40.6402L11.2597 39.0306L12.9222 38.8541C13.0453 38.8411 13.1523 38.764 13.2037 38.6513C13.2551 38.5387 13.2431 38.4073 13.1723 38.3058L11.8388 36.3945L12.7135 33.678L13.8435 32.5984C13.9723 32.4753 13.9881 32.2751 13.8802 32.1334L12.312 30.0731L14.145 29.7229C14.2597 29.701 14.3559 29.6233 14.4015 29.5159C14.4471 29.4084 14.4362 29.2852 14.3722 29.1875L13.3586 27.6379L15.2434 26.2374C15.3616 26.1496 15.4122 25.9973 15.37 25.8562L14.5493 23.112H15.5122H17.1839C17.1878 23.112 17.1917 23.1119 17.1957 23.1118C17.2012 23.1116 17.2068 23.1113 17.2123 23.1108L48.0198 20.601C48.1216 20.5927 48.2146 20.5404 48.2746 20.4578C48.3346 20.3751 48.3555 20.2705 48.3319 20.1711L47.2458 15.6052L51.2145 15.8048L52.0862 16.4294C52.1558 16.4792 52.2413 16.5019 52.3264 16.493L80.7457 13.5267C80.7609 13.5252 80.7759 13.5226 80.7907 13.5191L82.6656 13.0712L91.4652 12.844L91.4652 12.8443L91.4788 12.8434L105.569 11.9306C105.574 11.9303 105.578 11.9299 105.583 11.9294C105.59 11.9287 105.597 11.9278 105.603 11.9267L112.516 10.788L143.31 8.05115C143.336 8.04888 143.361 8.04381 143.386 8.03602L144.79 7.58884L163.149 5.08293Z" fill="white" stroke="black" stroke-width="0.7" stroke-linecap="round" stroke-linejoin="round"/>
</svg>
