<svg width="313" height="291" viewBox="0 0 313 291" fill="none" xmlns="http://www.w3.org/2000/svg">
<mask id="path-1-inside-1_101_462" fill="white">
<path d="M222.937 242.171L219.116 250.157L217.922 250.385L221.504 242.399L222.937 242.171ZM226.519 236.466L229.624 230.305L231.057 230.99L226.519 236.466V236.466ZM242.281 223.688L234.878 228.024L234.639 227.339L239.654 223.917L242.281 223.688ZM287.656 81.3075L289.806 83.5892L291.955 82.6766L296.492 82.9047L297.686 83.5892L298.164 98.1925L298.881 125.117L302.224 128.083L304.373 132.647L304.135 136.069L308.433 141.774L307.956 142.915L312.016 150.444L310.583 151.357L311.538 153.182L310.821 156.377L308.195 162.309L307.239 163.45L307.956 166.417L306.762 168.014L307.717 170.752L307.956 176.456L306.045 178.966H304.612L302.941 182.161L302.702 184.671L304.373 187.409L299.836 187.181L285.268 193.798L286.462 191.06L282.88 191.744L284.313 187.181L282.88 184.899L280.969 185.355L279.775 188.093L276.432 186.496L276.193 191.288L279.536 195.851L275.238 200.415L273.088 202.012V204.75L267.596 209.314L262.103 212.508L259.953 213.192H256.849L247.296 217.3L245.863 214.562L243.714 215.931L238.46 215.474L237.982 217.3L239.415 218.212L242.281 221.407L236.072 224.373L232.967 221.178L231.295 221.863L232.967 224.145V226.427L230.34 228.936L223.414 229.393L224.847 230.99L226.758 231.903L222.698 237.379L220.787 236.01L214.339 236.238L215.056 237.151L217.683 237.379L218.399 239.889L220.787 241.486L216.489 251.069L213.862 250.385L211.235 251.754V253.123L214.1 253.579L216.011 252.438L215.772 256.317L214.578 257.002L215.056 259.284L213.145 259.512L212.906 264.532L214.578 265.901L216.25 272.518L215.533 275.484L217.922 277.538L217.683 279.363L218.877 281.645V283.698L220.549 285.067L220.787 287.577L223.176 288.034H220.31L215.772 291L209.324 285.98L206.22 285.067L202.637 285.296L195.473 284.611L193.562 283.47L191.891 281.189L186.637 279.363L184.965 279.819L182.577 277.994L181.144 276.169H178.756L176.845 275.256L173.74 275.028L173.263 271.605L171.83 270.464L173.024 267.042L170.875 265.444L169.919 261.565L167.531 260.196L167.053 258.143L164.904 257.002L165.859 252.895L164.427 249.244L165.143 246.962L164.427 243.083L162.038 241.03L159.411 240.117L157.023 237.379L155.829 236.466L155.352 233.728L152.486 230.534L150.814 226.655L147.948 225.057L145.799 222.776L143.411 214.562L141.261 211.367L140.784 208.629L138.395 205.435L137.44 200.187L135.291 198.589L134.097 195.851L129.32 192.429L128.843 190.375L126.455 188.778L124.305 185.355L122.634 185.583L121.439 184.214L120.484 181.704L116.902 180.792L114.991 181.248L106.872 179.423L103.289 179.651L98.9906 177.141L97.0801 178.054L96.1249 179.879L93.4978 179.423L89.1991 180.335L86.5722 184.214L83.7064 190.831L82.9899 194.026L80.6018 194.938L77.497 197.905L76.303 199.958L72.4819 198.361H70.8102L68.422 196.536L66.9892 194.71L63.8846 193.798L61.4964 191.972L61.2575 190.831L57.9141 190.147L54.8094 188.55L50.272 183.073L48.3615 182.617L44.0626 178.738L43.5851 175.544L41.1969 171.208L40.958 168.698L41.9134 164.363L40.4804 162.309L38.3311 157.518L37.8534 154.323L35.2265 150.673L33.5548 149.76L30.4502 146.566L27.3454 145.196L23.0468 140.861L22.5691 138.808L18.5093 135.613L16.5987 132.419L13.733 129.224L9.91181 127.399L7.52364 123.52L6.32955 119.641L2.9862 118.044L1.07554 116.218L0.120361 111.427L16.8376 113.252L42.8685 115.762L63.8846 117.587L84.9005 119.413L95.1696 0.305511L96.1249 0.0773926L122.634 1.67464L146.276 3.04363L162.994 3.95639L160.606 55.0674L163.232 55.2957L167.77 60.0873L170.875 59.6309L174.218 60.5437L174.457 58.7183L177.323 60.0873L178.994 62.369L178.756 64.8789L182.577 65.5635H184.248L185.92 66.7044L189.741 67.617L193.085 67.3889L194.756 69.4424H196.667L198.339 67.8453L204.07 68.0734V71.0396L207.414 72.4088L206.936 74.6905L208.846 75.375L210.757 74.9186L213.623 72.4088H215.295L216.011 74.6905L218.399 74.9186L220.549 76.5159L224.37 74.4623L225.086 75.6031L224.608 77.6568L226.997 79.0257L227.474 77.2004L231.295 73.3214L232.489 75.375L236.31 76.0595L237.266 74.4623L240.848 77.8849H242.759L244.669 80.1666L245.624 78.5694H247.535L248.729 76.9723L251.356 76.2876L253.744 74.9186L255.655 76.0595L257.565 75.8314L261.625 73.5496L263.058 75.1467L267.118 75.6031L269.267 74.6905L270.461 73.0933L275.954 75.8314L278.581 78.5694L281.208 79.254L286.462 81.3075H287.656V81.3075Z"/>
</mask>
<path d="M222.937 242.171L219.116 250.157L217.922 250.385L221.504 242.399L222.937 242.171ZM226.519 236.466L229.624 230.305L231.057 230.99L226.519 236.466V236.466ZM242.281 223.688L234.878 228.024L234.639 227.339L239.654 223.917L242.281 223.688ZM287.656 81.3075L289.806 83.5892L291.955 82.6766L296.492 82.9047L297.686 83.5892L298.164 98.1925L298.881 125.117L302.224 128.083L304.373 132.647L304.135 136.069L308.433 141.774L307.956 142.915L312.016 150.444L310.583 151.357L311.538 153.182L310.821 156.377L308.195 162.309L307.239 163.45L307.956 166.417L306.762 168.014L307.717 170.752L307.956 176.456L306.045 178.966H304.612L302.941 182.161L302.702 184.671L304.373 187.409L299.836 187.181L285.268 193.798L286.462 191.06L282.88 191.744L284.313 187.181L282.88 184.899L280.969 185.355L279.775 188.093L276.432 186.496L276.193 191.288L279.536 195.851L275.238 200.415L273.088 202.012V204.75L267.596 209.314L262.103 212.508L259.953 213.192H256.849L247.296 217.3L245.863 214.562L243.714 215.931L238.46 215.474L237.982 217.3L239.415 218.212L242.281 221.407L236.072 224.373L232.967 221.178L231.295 221.863L232.967 224.145V226.427L230.34 228.936L223.414 229.393L224.847 230.99L226.758 231.903L222.698 237.379L220.787 236.01L214.339 236.238L215.056 237.151L217.683 237.379L218.399 239.889L220.787 241.486L216.489 251.069L213.862 250.385L211.235 251.754V253.123L214.1 253.579L216.011 252.438L215.772 256.317L214.578 257.002L215.056 259.284L213.145 259.512L212.906 264.532L214.578 265.901L216.25 272.518L215.533 275.484L217.922 277.538L217.683 279.363L218.877 281.645V283.698L220.549 285.067L220.787 287.577L223.176 288.034H220.31L215.772 291L209.324 285.98L206.22 285.067L202.637 285.296L195.473 284.611L193.562 283.47L191.891 281.189L186.637 279.363L184.965 279.819L182.577 277.994L181.144 276.169H178.756L176.845 275.256L173.74 275.028L173.263 271.605L171.83 270.464L173.024 267.042L170.875 265.444L169.919 261.565L167.531 260.196L167.053 258.143L164.904 257.002L165.859 252.895L164.427 249.244L165.143 246.962L164.427 243.083L162.038 241.03L159.411 240.117L157.023 237.379L155.829 236.466L155.352 233.728L152.486 230.534L150.814 226.655L147.948 225.057L145.799 222.776L143.411 214.562L141.261 211.367L140.784 208.629L138.395 205.435L137.44 200.187L135.291 198.589L134.097 195.851L129.32 192.429L128.843 190.375L126.455 188.778L124.305 185.355L122.634 185.583L121.439 184.214L120.484 181.704L116.902 180.792L114.991 181.248L106.872 179.423L103.289 179.651L98.9906 177.141L97.0801 178.054L96.1249 179.879L93.4978 179.423L89.1991 180.335L86.5722 184.214L83.7064 190.831L82.9899 194.026L80.6018 194.938L77.497 197.905L76.303 199.958L72.4819 198.361H70.8102L68.422 196.536L66.9892 194.71L63.8846 193.798L61.4964 191.972L61.2575 190.831L57.9141 190.147L54.8094 188.55L50.272 183.073L48.3615 182.617L44.0626 178.738L43.5851 175.544L41.1969 171.208L40.958 168.698L41.9134 164.363L40.4804 162.309L38.3311 157.518L37.8534 154.323L35.2265 150.673L33.5548 149.76L30.4502 146.566L27.3454 145.196L23.0468 140.861L22.5691 138.808L18.5093 135.613L16.5987 132.419L13.733 129.224L9.91181 127.399L7.52364 123.52L6.32955 119.641L2.9862 118.044L1.07554 116.218L0.120361 111.427L16.8376 113.252L42.8685 115.762L63.8846 117.587L84.9005 119.413L95.1696 0.305511L96.1249 0.0773926L122.634 1.67464L146.276 3.04363L162.994 3.95639L160.606 55.0674L163.232 55.2957L167.77 60.0873L170.875 59.6309L174.218 60.5437L174.457 58.7183L177.323 60.0873L178.994 62.369L178.756 64.8789L182.577 65.5635H184.248L185.92 66.7044L189.741 67.617L193.085 67.3889L194.756 69.4424H196.667L198.339 67.8453L204.07 68.0734V71.0396L207.414 72.4088L206.936 74.6905L208.846 75.375L210.757 74.9186L213.623 72.4088H215.295L216.011 74.6905L218.399 74.9186L220.549 76.5159L224.37 74.4623L225.086 75.6031L224.608 77.6568L226.997 79.0257L227.474 77.2004L231.295 73.3214L232.489 75.375L236.31 76.0595L237.266 74.4623L240.848 77.8849H242.759L244.669 80.1666L245.624 78.5694H247.535L248.729 76.9723L251.356 76.2876L253.744 74.9186L255.655 76.0595L257.565 75.8314L261.625 73.5496L263.058 75.1467L267.118 75.6031L269.267 74.6905L270.461 73.0933L275.954 75.8314L278.581 78.5694L281.208 79.254L286.462 81.3075H287.656V81.3075Z" fill="white" stroke="black" stroke-width="1.4" stroke-linecap="round" stroke-linejoin="round" mask="url(#path-1-inside-1_101_462)"/>
</svg>
