<svg width="126" height="149" viewBox="0 0 126 149" fill="none" xmlns="http://www.w3.org/2000/svg">
<path d="M83.9218 37.2877C83.9057 37.3804 83.9277 37.4756 83.9826 37.5519C84.0376 37.6282 84.1209 37.6792 84.2139 37.6934L112.633 42.0286L112.638 42.0293L125.422 43.8058L109.526 148.3L92.6794 145.841L92.6758 145.84L62.114 141.05L62.1109 141.049L34.6547 136.487L34.6501 136.486L14.3623 132.838L14.3552 132.836L1.09609 130.169L28.4157 0.793242L43.1224 3.69269L43.1223 3.69274L43.1283 3.69381L62.2337 7.11643L62.2337 7.11647L62.2389 7.11733L88.3992 11.3957L83.9218 37.2877Z" fill="white" stroke="black" stroke-width="0.7" stroke-linecap="round" stroke-linejoin="round"/>
</svg>
