<svg width="174" height="94" viewBox="0 0 174 94" fill="none" xmlns="http://www.w3.org/2000/svg">
<mask id="path-1-inside-1_101_478" fill="white">
<path d="M168.123 27.3036L168.601 26.391L173.616 24.7937L172.899 26.391L173.616 28.6727L172.422 30.0417L167.645 41.4504L166.69 44.1885L166.451 50.3493L164.541 47.3829L164.302 45.7858L165.496 38.9406L164.541 37.7997L166.69 34.1488L165.974 32.3234L167.645 30.9544L168.123 27.3036V27.3036ZM116.061 1.06349H119.882L122.031 2.20437L122.27 5.39887L123.942 6.31148L127.285 6.53974L128.479 7.90873L131.106 8.82148L132.539 9.27786L133.495 10.1905L133.972 14.0695L132.539 14.754V16.5793L130.39 16.3512L129.435 22.2837L130.868 24.7937L131.823 25.0218L136.599 22.9683V24.5654L138.749 26.8472L140.659 27.3036L146.391 26.8472L149.018 29.8136L155.705 31.6389L156.182 33.6924L155.227 36.4306V39.1687L153.316 39.8532L155.705 42.1349L158.57 43.504L157.376 45.3294H155.227L156.66 48.5238L155.227 50.5774L159.287 51.4902L160.003 54.9128L157.376 56.5099L156.66 55.1409L152.6 53.5436L151.884 51.4902L145.913 51.0338L150.212 53.3155L151.884 55.8254H154.033L156.66 58.5635L160.242 58.3354L160.959 56.2818L164.302 56.7381L167.407 56.2818L168.601 58.7916L172.422 64.9524L171.944 65.1806L169.795 61.3016H169.078L170.034 65.4087L169.078 65.6369L168.601 65.8651L127.763 74.3076L107.464 78.1865L79.7607 82.9782L66.8647 84.5755L54.6849 86.4008L45.8486 87.0853L44.8935 86.629L39.4007 87.3135L38.4454 87.9981L19.1012 90.7361L0.71228 93.2461L3.81687 90.9643L5.96629 90.508L9.54854 88.4543L11.6978 87.7698L12.6531 85.26L16.7131 83.2063L17.1906 81.1529L19.5787 78.8711L19.8177 76.8175L21.2505 75.2202L26.9822 71.3412L34.1467 63.3551L34.3854 65.4087L35.5795 67.4624L38.4454 69.5159L42.744 70.885L44.8935 70.4286L48.7145 66.7777L51.5803 68.6032L53.4908 67.4624L57.5507 66.3215L58.9836 64.7243V62.6706L61.8494 63.127L65.9093 60.3889L67.5811 61.0734L70.6857 58.3354L70.208 56.7381L71.641 55.5973L69.9693 53.7719L71.1633 50.121L74.7456 44.4167L75.7008 39.6251L77.8502 36.4306L79.0443 31.8671L79.5219 27.7599L81.4324 27.9881L82.8653 30.2698L87.6416 30.7262L89.3134 27.9881L89.791 24.5654L92.1792 18.633L95.0451 19.5457L96.9556 15.4385L98.6273 14.9822L102.448 8.13699L102.21 5.17061L102.926 0.150879L114.867 6.31148L116.061 1.06349V1.06349Z"/>
</mask>
<path d="M168.123 27.3036L168.601 26.391L173.616 24.7937L172.899 26.391L173.616 28.6727L172.422 30.0417L167.645 41.4504L166.69 44.1885L166.451 50.3493L164.541 47.3829L164.302 45.7858L165.496 38.9406L164.541 37.7997L166.69 34.1488L165.974 32.3234L167.645 30.9544L168.123 27.3036V27.3036ZM116.061 1.06349H119.882L122.031 2.20437L122.27 5.39887L123.942 6.31148L127.285 6.53974L128.479 7.90873L131.106 8.82148L132.539 9.27786L133.495 10.1905L133.972 14.0695L132.539 14.754V16.5793L130.39 16.3512L129.435 22.2837L130.868 24.7937L131.823 25.0218L136.599 22.9683V24.5654L138.749 26.8472L140.659 27.3036L146.391 26.8472L149.018 29.8136L155.705 31.6389L156.182 33.6924L155.227 36.4306V39.1687L153.316 39.8532L155.705 42.1349L158.57 43.504L157.376 45.3294H155.227L156.66 48.5238L155.227 50.5774L159.287 51.4902L160.003 54.9128L157.376 56.5099L156.66 55.1409L152.6 53.5436L151.884 51.4902L145.913 51.0338L150.212 53.3155L151.884 55.8254H154.033L156.66 58.5635L160.242 58.3354L160.959 56.2818L164.302 56.7381L167.407 56.2818L168.601 58.7916L172.422 64.9524L171.944 65.1806L169.795 61.3016H169.078L170.034 65.4087L169.078 65.6369L168.601 65.8651L127.763 74.3076L107.464 78.1865L79.7607 82.9782L66.8647 84.5755L54.6849 86.4008L45.8486 87.0853L44.8935 86.629L39.4007 87.3135L38.4454 87.9981L19.1012 90.7361L0.71228 93.2461L3.81687 90.9643L5.96629 90.508L9.54854 88.4543L11.6978 87.7698L12.6531 85.26L16.7131 83.2063L17.1906 81.1529L19.5787 78.8711L19.8177 76.8175L21.2505 75.2202L26.9822 71.3412L34.1467 63.3551L34.3854 65.4087L35.5795 67.4624L38.4454 69.5159L42.744 70.885L44.8935 70.4286L48.7145 66.7777L51.5803 68.6032L53.4908 67.4624L57.5507 66.3215L58.9836 64.7243V62.6706L61.8494 63.127L65.9093 60.3889L67.5811 61.0734L70.6857 58.3354L70.208 56.7381L71.641 55.5973L69.9693 53.7719L71.1633 50.121L74.7456 44.4167L75.7008 39.6251L77.8502 36.4306L79.0443 31.8671L79.5219 27.7599L81.4324 27.9881L82.8653 30.2698L87.6416 30.7262L89.3134 27.9881L89.791 24.5654L92.1792 18.633L95.0451 19.5457L96.9556 15.4385L98.6273 14.9822L102.448 8.13699L102.21 5.17061L102.926 0.150879L114.867 6.31148L116.061 1.06349V1.06349Z" fill="white" stroke="black" stroke-width="1.4" stroke-linecap="round" stroke-linejoin="round" mask="url(#path-1-inside-1_101_478)"/>
</svg>
