<svg width="39" height="68" viewBox="0 0 39 68" fill="none" xmlns="http://www.w3.org/2000/svg">
<path d="M11.3474 44.7414H9.13676L9.54275 42.4134C9.55386 42.3497 9.54711 42.2842 9.52326 42.2241L6.89633 35.607C6.87773 35.5602 6.84924 35.5179 6.81279 35.4831L5.97362 34.6814L6.19686 30.4171L6.81284 29.8285C6.90624 29.7392 6.94287 29.6058 6.90814 29.4813L5.9657 26.1049V23.1866C5.9657 23.0974 5.93164 23.0115 5.87047 22.9466L3.77233 20.7191L3.09638 18.7816L2.86044 14.9508C2.85503 14.8629 2.81662 14.7802 2.75291 14.7193L1.88219 13.8872L1.23728 9.98556L20.985 5.04401L20.985 5.04408L20.9922 5.04212L35.6899 1.02987L36.3016 3.56229L35.1282 8.27058C35.1014 8.37809 35.1271 8.49194 35.1975 8.57752L37.7111 11.634L36.5834 15.9437L34.0588 18.7942L31.7347 19.9045C31.6547 19.9427 31.5922 20.0099 31.5598 20.0924L30.8434 21.9178C30.819 21.9799 30.8129 22.0476 30.8257 22.1131L31.5322 25.7135L30.8208 32.9639C30.8187 32.9853 30.8186 33.007 30.8205 33.0285L31.0484 35.64L29.6881 37.5895C29.6399 37.6585 29.6182 37.7425 29.627 37.8262L29.8596 40.048L29.1572 42.9556C29.1434 43.0128 29.1442 43.0726 29.1596 43.1294L30.7999 49.1742L30.3687 50.2042C30.3431 50.2653 30.3354 50.3324 30.3464 50.3977L31.5295 57.4058L30.8266 60.7637C30.8038 60.8727 30.8342 60.9861 30.9086 61.0691L33.3774 63.8209L18.2905 67.2631L13.1197 46.6035C13.1059 46.5483 13.0788 46.4972 13.0407 46.4548L11.6079 44.8577C11.5415 44.7837 11.4468 44.7414 11.3474 44.7414Z" fill="white" stroke="black" stroke-width="0.7" stroke-linecap="round" stroke-linejoin="round"/>
</svg>
