<svg width="149" height="106" viewBox="0 0 149 106" fill="none" xmlns="http://www.w3.org/2000/svg">
<mask id="path-1-inside-1_101_445" fill="white">
<path d="M44.2585 16.9387L42.8256 21.7304L42.1092 26.7502L44.0197 26.2939L45.2137 29.4883L43.0644 29.9446L41.8703 28.1193L41.3927 24.9248L42.1092 23.5558L39.9597 21.0458L40.1986 19.6768L43.0644 16.7105L44.2585 16.9387V16.9387ZM38.0492 11.6907L35.6611 11.9189L35.4222 8.49624L36.6163 8.26805L38.0492 11.6907ZM42.1092 7.35537L43.7808 9.18081L41.1538 10.0935L38.5269 8.49624L40.9151 7.12718L42.1092 7.35537V7.35537ZM46.4078 0.510132L71.4836 7.81175L91.0667 13.0597L110.65 17.8514L126.412 21.7304L148.383 26.9784L144.323 43.407L142.174 51.3931L131.427 95.659L132.86 100.907L131.188 102.732L132.143 105.699L119.963 102.961L92.0219 96.3435L90.1113 97.2561L85.335 96.1153L80.5587 95.659L78.887 96.5716L73.3941 96.1153L69.3343 96.3435L67.185 97.2561L62.4086 96.7998L59.7816 95.4308L53.8112 96.3435L51.1842 95.4308L49.2737 95.659L47.3631 92.6927L41.8703 90.6391L37.5716 89.7264L33.7505 90.8673L27.5413 91.3237L22.7649 88.3573L20.3768 87.4447L19.4215 86.3038L20.8544 77.8613L19.8991 73.9824L16.7945 70.7879L15.3616 70.5598H12.9734L10.8241 66.4526L8.43591 66.2245L7.00299 64.6272H2.22665L0.554901 61.2046L4.37599 59.8355L6.52533 52.534L3.42074 51.1649L3.8984 49.3395L5.57008 47.7423L8.9135 47.2859L7.00299 45.4606V44.3197L4.61482 43.1788L5.33124 38.1589L4.61482 34.28L5.57008 29.2601L6.04774 23.784L5.57008 21.7304L3.65957 18.3078L4.37599 13.0597L4.13716 11.2344L6.76416 7.81175L8.67474 6.89906L11.3017 9.8653L13.9287 11.6907L16.3169 14.657L22.5261 16.9387L24.4366 18.3078L30.1683 20.5895H33.0341L34.467 22.6431L38.5269 22.4149L38.2881 23.784L39.0045 28.3475L38.7657 29.9446L36.8551 31.5419L34.9446 31.3137L31.3624 35.4209L35.4222 34.7363L36.3775 32.911L40.4374 29.4883L41.3927 29.7165V33.8236L38.0492 34.7363L37.8104 37.4744L38.7657 39.7562L35.8999 44.0915L33.7505 44.5479L30.8847 46.3732V43.1788L29.213 43.8633L27.7801 46.1451L28.4965 47.7423L30.4071 47.5141L31.3624 49.7959L35.1834 47.5141L36.3775 45.9169L37.8104 46.6014L40.9151 44.5479L40.6762 42.4942L41.3927 37.2463L42.5867 33.5954L45.4526 29.9446L48.0796 28.5756L46.169 25.153L47.1243 20.1332L45.2137 17.6232L47.1243 13.9724L48.5572 12.8315V7.58356L46.169 7.12718L45.2137 3.24825L46.4078 0.510132V0.510132Z"/>
</mask>
<path d="M44.2585 16.9387L42.8256 21.7304L42.1092 26.7502L44.0197 26.2939L45.2137 29.4883L43.0644 29.9446L41.8703 28.1193L41.3927 24.9248L42.1092 23.5558L39.9597 21.0458L40.1986 19.6768L43.0644 16.7105L44.2585 16.9387V16.9387ZM38.0492 11.6907L35.6611 11.9189L35.4222 8.49624L36.6163 8.26805L38.0492 11.6907ZM42.1092 7.35537L43.7808 9.18081L41.1538 10.0935L38.5269 8.49624L40.9151 7.12718L42.1092 7.35537V7.35537ZM46.4078 0.510132L71.4836 7.81175L91.0667 13.0597L110.65 17.8514L126.412 21.7304L148.383 26.9784L144.323 43.407L142.174 51.3931L131.427 95.659L132.86 100.907L131.188 102.732L132.143 105.699L119.963 102.961L92.0219 96.3435L90.1113 97.2561L85.335 96.1153L80.5587 95.659L78.887 96.5716L73.3941 96.1153L69.3343 96.3435L67.185 97.2561L62.4086 96.7998L59.7816 95.4308L53.8112 96.3435L51.1842 95.4308L49.2737 95.659L47.3631 92.6927L41.8703 90.6391L37.5716 89.7264L33.7505 90.8673L27.5413 91.3237L22.7649 88.3573L20.3768 87.4447L19.4215 86.3038L20.8544 77.8613L19.8991 73.9824L16.7945 70.7879L15.3616 70.5598H12.9734L10.8241 66.4526L8.43591 66.2245L7.00299 64.6272H2.22665L0.554901 61.2046L4.37599 59.8355L6.52533 52.534L3.42074 51.1649L3.8984 49.3395L5.57008 47.7423L8.9135 47.2859L7.00299 45.4606V44.3197L4.61482 43.1788L5.33124 38.1589L4.61482 34.28L5.57008 29.2601L6.04774 23.784L5.57008 21.7304L3.65957 18.3078L4.37599 13.0597L4.13716 11.2344L6.76416 7.81175L8.67474 6.89906L11.3017 9.8653L13.9287 11.6907L16.3169 14.657L22.5261 16.9387L24.4366 18.3078L30.1683 20.5895H33.0341L34.467 22.6431L38.5269 22.4149L38.2881 23.784L39.0045 28.3475L38.7657 29.9446L36.8551 31.5419L34.9446 31.3137L31.3624 35.4209L35.4222 34.7363L36.3775 32.911L40.4374 29.4883L41.3927 29.7165V33.8236L38.0492 34.7363L37.8104 37.4744L38.7657 39.7562L35.8999 44.0915L33.7505 44.5479L30.8847 46.3732V43.1788L29.213 43.8633L27.7801 46.1451L28.4965 47.7423L30.4071 47.5141L31.3624 49.7959L35.1834 47.5141L36.3775 45.9169L37.8104 46.6014L40.9151 44.5479L40.6762 42.4942L41.3927 37.2463L42.5867 33.5954L45.4526 29.9446L48.0796 28.5756L46.169 25.153L47.1243 20.1332L45.2137 17.6232L47.1243 13.9724L48.5572 12.8315V7.58356L46.169 7.12718L45.2137 3.24825L46.4078 0.510132V0.510132Z" fill="white" stroke="black" stroke-width="1.4" stroke-linecap="round" stroke-linejoin="round" mask="url(#path-1-inside-1_101_445)"/>
</svg>
