<svg width="116" height="120" viewBox="0 0 116 120" fill="none" xmlns="http://www.w3.org/2000/svg">
<mask id="path-1-inside-1_101_479" fill="white">
<path d="M115.081 39.6887V42.8832L113.17 48.1312L112.454 51.0974L111.499 52.6947L109.827 52.2383L108.872 50.1848L111.737 43.1113L113.409 42.4268L115.081 39.6887V39.6887ZM47.018 10.2543L47.2567 11.1669L50.6002 12.0796L52.9884 16.415L72.5713 20.2939L78.303 23.032L82.124 23.2602L84.0346 22.8039L91.1991 23.9447L92.632 24.8573L93.8261 28.28L96.9307 28.7363L99.3188 30.5617L99.5577 36.038L98.3637 39.0042H102.901L101.946 42.1987V43.796L104.573 45.6213L104.095 48.3594L100.752 50.1848L100.513 51.7821L98.3637 56.1173L97.4083 60.6808L100.035 59.7682L102.423 57.9427L104.334 53.6074L108.155 51.3257L110.782 53.1511L110.305 56.3456L108.394 60.909L107.677 66.6134L109.11 69.1233L106.483 72.5459L105.289 77.3375V80.0756L106.245 83.0419L104.812 86.4645V89.659L103.14 95.1352L104.334 99.4705L104.095 101.068L105.289 103.121L105.528 105.175L106.961 106.772L106.722 111.107L107.2 115.443L89.0497 116.812L67.3174 117.953L49.1672 119.094L49.4061 118.181L47.7344 115.215L42.2416 114.302L40.5699 113.389L38.6594 108.826L37.4653 102.437L38.8981 99.0141L38.4205 97.417L36.51 96.9606L35.3159 93.3097L34.8382 86.2364L33.6441 82.3574L31.0172 79.6193L28.629 78.7066L26.2408 78.4784L22.6586 75.7404L20.0315 71.8614L16.9269 69.3514L13.5836 68.6669L10.9565 65.7007L7.13547 65.0162L2.35913 61.1372L3.31431 56.8018L2.35913 52.6947L3.07555 46.7622L4.7473 42.8832L2.83679 39.917L0.209717 39.4606V35.8098L1.88147 33.9843L3.55322 30.3336L10.0013 27.1391L11.1954 25.542L10.7177 10.026L12.1506 9.56976L14.0611 7.05976L16.9269 8.88513L20.2704 8.42889L27.196 5.69077L30.7783 3.18076L32.6889 3.63714L35.5546 1.12728L37.9428 0.670898L39.6145 2.26815L37.9428 5.00627L37.4653 10.4824L40.5699 7.97251L43.9132 9.79788L47.018 10.2543V10.2543Z"/>
</mask>
<path d="M115.081 39.6887V42.8832L113.17 48.1312L112.454 51.0974L111.499 52.6947L109.827 52.2383L108.872 50.1848L111.737 43.1113L113.409 42.4268L115.081 39.6887V39.6887ZM47.018 10.2543L47.2567 11.1669L50.6002 12.0796L52.9884 16.415L72.5713 20.2939L78.303 23.032L82.124 23.2602L84.0346 22.8039L91.1991 23.9447L92.632 24.8573L93.8261 28.28L96.9307 28.7363L99.3188 30.5617L99.5577 36.038L98.3637 39.0042H102.901L101.946 42.1987V43.796L104.573 45.6213L104.095 48.3594L100.752 50.1848L100.513 51.7821L98.3637 56.1173L97.4083 60.6808L100.035 59.7682L102.423 57.9427L104.334 53.6074L108.155 51.3257L110.782 53.1511L110.305 56.3456L108.394 60.909L107.677 66.6134L109.11 69.1233L106.483 72.5459L105.289 77.3375V80.0756L106.245 83.0419L104.812 86.4645V89.659L103.14 95.1352L104.334 99.4705L104.095 101.068L105.289 103.121L105.528 105.175L106.961 106.772L106.722 111.107L107.2 115.443L89.0497 116.812L67.3174 117.953L49.1672 119.094L49.4061 118.181L47.7344 115.215L42.2416 114.302L40.5699 113.389L38.6594 108.826L37.4653 102.437L38.8981 99.0141L38.4205 97.417L36.51 96.9606L35.3159 93.3097L34.8382 86.2364L33.6441 82.3574L31.0172 79.6193L28.629 78.7066L26.2408 78.4784L22.6586 75.7404L20.0315 71.8614L16.9269 69.3514L13.5836 68.6669L10.9565 65.7007L7.13547 65.0162L2.35913 61.1372L3.31431 56.8018L2.35913 52.6947L3.07555 46.7622L4.7473 42.8832L2.83679 39.917L0.209717 39.4606V35.8098L1.88147 33.9843L3.55322 30.3336L10.0013 27.1391L11.1954 25.542L10.7177 10.026L12.1506 9.56976L14.0611 7.05976L16.9269 8.88513L20.2704 8.42889L27.196 5.69077L30.7783 3.18076L32.6889 3.63714L35.5546 1.12728L37.9428 0.670898L39.6145 2.26815L37.9428 5.00627L37.4653 10.4824L40.5699 7.97251L43.9132 9.79788L47.018 10.2543V10.2543Z" fill="white" stroke="black" stroke-width="1.4" stroke-linecap="round" stroke-linejoin="round" mask="url(#path-1-inside-1_101_479)"/>
</svg>
