<svg width="101" height="94" viewBox="0 0 101 94" fill="none" xmlns="http://www.w3.org/2000/svg">
<path d="M63.1763 34.1582C63.1972 34.2892 63.2903 34.3971 63.4168 34.4369C63.5433 34.4767 63.6815 34.4416 63.7736 34.3462L69.5052 28.4136C69.518 28.4003 69.5298 28.3859 69.5405 28.3707L71.3184 25.823L73.2407 26.2311C73.3922 26.2632 73.5468 26.192 73.6208 26.056L76.4323 20.8901L77.0729 21.9612C77.1285 22.0542 77.2241 22.1162 77.3318 22.1291L81.1528 22.5855C81.1909 22.59 81.2295 22.5883 81.267 22.5803L83.4164 22.1239C83.566 22.0922 83.6777 21.967 83.6921 21.8147L83.908 19.5456L87.0181 18.6966C87.112 18.671 87.191 18.6074 87.2361 18.5212L88.1207 16.831L89.5239 16.4479L93.4693 18.2218C93.5568 18.2611 93.6566 18.2628 93.7454 18.2265L95.0851 17.6779L95.9128 19.8526C95.9526 19.9571 96.0399 20.0363 96.1477 20.0657L97.6769 20.4831L99.69 24.116L98.6258 28.7931L87.0864 22.8397C86.9858 22.7877 86.8662 22.7877 86.7655 22.8397C86.6648 22.8916 86.5955 22.9891 86.5795 23.1012L85.8631 28.121C85.8594 28.1467 85.8586 28.1727 85.8607 28.1985L86.0909 31.059L82.3933 37.6831L80.8634 38.1006C80.764 38.1278 80.6816 38.1973 80.6382 38.2907L78.8576 42.1185L76.2854 41.2993C76.1108 41.2437 75.9229 41.3321 75.8545 41.5021L73.4663 47.4346C73.4557 47.461 73.4483 47.4887 73.4444 47.5169L72.9768 50.8675L71.457 53.3568L67.0701 52.9376L65.7288 50.8018C65.6726 50.7122 65.5789 50.6529 65.4739 50.6404L63.5634 50.4122C63.4711 50.4012 63.3781 50.4274 63.3051 50.485C63.2321 50.5426 63.185 50.627 63.1743 50.7193L62.6994 54.8021L61.5266 59.2843L59.4104 62.4295C59.3845 62.4679 59.3666 62.5111 59.3575 62.5565L58.4149 67.2849L54.8669 72.9347C54.8517 72.9589 54.8395 72.9849 54.8307 73.0121L53.6366 76.6629C53.5973 76.783 53.6258 76.9149 53.7111 77.0081L55.1296 78.5569L53.99 79.4642C53.8782 79.5532 53.8317 79.7013 53.8727 79.8383L54.2861 81.2209L51.5125 83.667L50.0419 83.0648C49.9337 83.0205 49.8105 83.0332 49.7136 83.0985L45.7681 85.7595L43.0386 85.3248C42.9374 85.3087 42.8343 85.3377 42.7564 85.4042C42.6784 85.4707 42.6335 85.568 42.6335 85.6705V87.5901L41.3581 89.0119L37.3961 90.1253C37.3664 90.1336 37.3379 90.1459 37.3113 90.1617L35.5862 91.1919L32.9025 89.4824C32.7666 89.3958 32.5891 89.4132 32.4727 89.5245L28.7235 93.1067L26.7619 93.5232L22.6042 92.199L19.8444 90.2214L18.7246 88.2957L18.4943 86.3145C18.4748 86.147 18.3387 86.0173 18.1705 86.0058L14.9384 85.7853L13.3532 84.4871C13.3346 84.4718 13.3145 84.4586 13.2932 84.4475L10.7268 83.1099L1.58705 72.3624L2.47633 69.8135C2.49924 69.7479 2.50207 69.6769 2.48447 69.6096L1.40515 65.4847H2.86229C2.905 65.4847 2.94734 65.4769 2.98723 65.4617L6.56949 64.0927C6.67951 64.0506 6.761 63.9561 6.78635 63.8411L7.68115 59.7804H8.83272C8.93979 59.7804 9.04098 59.7314 9.10736 59.6474C9.17373 59.5633 9.198 59.4536 9.17322 59.3494L8.00434 54.4355L10.3155 48.4737L10.9996 47.9834L14.6237 50.1475C14.7243 50.2076 14.8483 50.2133 14.954 50.1628L16.387 49.4783C16.5167 49.4164 16.5953 49.2815 16.5853 49.1382L16.1134 42.3758L16.9786 40.309L19.2268 39.4499C19.3133 39.4168 19.3832 39.3507 19.4212 39.2662L20.7263 36.3567L22.5779 36.9464C22.6561 36.9713 22.7407 36.9679 22.8167 36.9368L26.1602 35.5678C26.208 35.5483 26.2508 35.5184 26.2857 35.4803L27.9574 33.6549C27.9779 33.6326 27.9954 33.6077 28.0094 33.5808L29.1768 31.3501L32.4786 28.1954C32.5477 28.1293 32.5868 28.0379 32.5868 27.9423V23.6596L33.7654 19.8311C33.778 19.7899 33.783 19.7467 33.78 19.7037L33.5437 16.3161L34.2486 10.928L35.1812 8.92321C35.2247 8.82961 35.2247 8.72156 35.1812 8.62795L34.2702 6.66984L34.4936 5.17662C34.5071 5.086 34.4846 4.99368 34.4308 4.91948L32.4958 2.24901L34.8513 0.690889L39.0567 24.3528C39.0902 24.5416 39.2695 24.6683 39.4587 24.6368L61.0824 21.0437L63.1763 34.1582Z" fill="white" stroke="black" stroke-width="0.7" stroke-linecap="round" stroke-linejoin="round"/>
</svg>
