<svg width="156" height="124" viewBox="0 0 156 124" fill="none" xmlns="http://www.w3.org/2000/svg">
<path d="M150.373 70.1771L145.391 122.766L129.981 121.428L129.975 121.427L110.398 119.374L110.398 119.374L84.1355 116.637L84.1279 116.636L67.8976 114.584L67.8959 114.583L41.8691 111.161L41.8666 111.161L28.7388 109.337L28.7342 109.336L0.67244 105.055L5.14907 79.1677L5.14919 79.167L16.6119 13.6833L16.6123 13.6815L18.9392 0.786646L34.3625 3.24259L34.3625 3.24264L34.3679 3.24341L53.4733 5.98155L53.4772 5.98207L81.1801 9.63282L81.182 9.63306L93.8393 11.2303L93.8393 11.2304L93.8458 11.2311L121.549 14.1973L121.549 14.1973L140.893 16.251L140.893 16.2511L140.903 16.2519L155.118 17.3651L150.373 70.1754L150.373 70.1771Z" fill="white" stroke="black" stroke-width="0.7" stroke-linecap="round" stroke-linejoin="round"/>
</svg>
